<svg viewBox="0 0 25 28" fill="currentColor" xmlns="http://www.w3.org/2000/svg"><path d="M24.4534 6.73683L12.6483 1.03786C12.5437 0.987381 12.4218 0.987381 12.3172 1.03786L0.512137 6.73683C0.380512 6.80036 0.296875 6.93366 0.296875 7.07981V20.9202C0.296875 21.0663 0.380512 21.1996 0.512137 21.2632L12.3172 26.9621C12.3695 26.9874 12.4261 27 12.4828 27C12.5394 27 12.596 26.9874 12.6483 26.9621L24.4534 21.2632C24.585 21.1996 24.6686 21.0663 24.6686 20.9202V7.07986C24.6686 6.93361 24.5849 6.80041 24.4534 6.73683ZM12.4828 1.80379L23.4117 7.07981L20.2436 8.60924C20.2236 8.59396 20.2024 8.57984 20.1792 8.56862L9.32441 3.3285L12.4828 1.80379ZM8.46428 3.75912L19.3774 9.02747L17.1422 10.1065L6.23366 4.84031L8.46428 3.75912ZM19.6327 9.74999V13.7387L17.5449 14.7466V10.7579L19.6327 9.74999ZM23.9069 20.6812L12.8636 26.0123V13.0178L15.4978 11.7462C15.6872 11.6547 15.7666 11.427 15.6752 11.2376C15.5837 11.0482 15.3561 10.9687 15.1666 11.0602L12.4828 12.3559L11.4267 11.846C11.2372 11.7545 11.0096 11.834 10.9181 12.0234C10.8267 12.2128 10.9061 12.4405 11.0955 12.532L12.1019 13.0178V26.0123L1.05859 20.6811V7.6866L9.46797 11.7463C9.52134 11.7721 9.57776 11.7843 9.63326 11.7843C9.77484 11.7843 9.91083 11.705 9.97649 11.5689C10.068 11.3795 9.98853 11.1518 9.79911 11.0603L1.55376 7.07981L5.33722 5.25331L16.7779 10.7764C16.7796 10.7788 16.7815 10.7808 16.7832 10.7831V15.3534C16.7832 15.4845 16.8506 15.6063 16.9616 15.676C17.0233 15.7147 17.0936 15.7343 17.1641 15.7343C17.2206 15.7343 17.2772 15.7217 17.3297 15.6964L20.1792 14.3208C20.3108 14.2572 20.3944 14.124 20.3944 13.9778V9.38233L23.9069 7.68665V20.6812Z" fill="currentColor" stroke="black" stroke-width="0.2"></path></svg>