<svg viewBox="0 0 23 21" fill="none" xmlns="http://www.w3.org/2000/svg"><path fill="none" fill-rule="evenodd" clip-rule="evenodd" d="M4.1211 13.5397L11.5628 20L18.879 13.5393C20.3454 12.2463 21.3511 10.6134 21.7864 8.81812C22.0885 7.57346 21.9892 6.81024 21.965 6.66522C21.6588 3.38202 19.2703 1 16.2821 1C14.6983 1 13.2522 1.66752 12.2192 2.81758C11.9744 3.09014 11.7528 3.38981 11.558 3.71412C11.3616 3.39424 11.136 3.09739 10.8857 2.82647C9.82806 1.68208 8.32795 1.00039 6.71799 1.00039C3.72934 1.00039 1.34125 3.38242 1.03471 6.66561C1.01088 6.81063 0.91153 7.57385 1.21363 8.81812C1.649 10.6138 2.65464 12.2463 4.1211 13.5397Z" stroke="black" stroke-width="1.04782"></path></svg>