<svg viewBox="0 0 70 70" fill="none" xmlns="http://www.w3.org/2000/svg" class="picky-logo"><circle cx="35" cy="35" r="35" fill="#000000"></circle><path d="M15.0336 26.72C15.0336 26.72 16.6136 28.26 19.7936 28.26C22.8736 28.26 24.3336 26.58 24.3336 24.48C24.3336 22.54 22.9936 21.5 20.2136 20.72C18.5136 20.2 17.9136 19.88 17.9136 19.16C17.9136 18.42 18.5136 17.96 19.6936 17.96C21.5336 17.96 22.7336 18.96 22.7336 18.96L24.0336 16.98C24.0336 16.98 22.8136 15.74 19.6936 15.74C16.7136 15.74 15.1936 17.2 15.1936 19.3C15.1936 21.22 16.5536 22.18 19.1536 22.94C21.0936 23.52 21.5536 23.92 21.5536 24.7C21.5536 25.5 20.9936 26.04 19.7136 26.04C17.8936 26.04 16.3536 24.88 16.3536 24.88L15.0336 26.72ZM26.0414 28H28.4614V23.08C28.5214 22.3 29.1214 21.48 30.1614 21.48C31.1814 21.48 31.8414 22.3 31.8414 23.34V27.98H34.2414V23.12C34.2414 20.84 32.9414 19.38 30.9014 19.38C29.7414 19.38 28.9814 19.78 28.5414 20.38H28.4614V15.9H26.0414V28ZM44.5748 23.84C44.5748 21.16 42.5948 19.4 40.1948 19.4C37.7748 19.4 35.7948 21.16 35.7948 23.84C35.7948 26.5 37.7748 28.2 40.1948 28.2C42.5948 28.2 44.5748 26.5 44.5748 23.84ZM40.1948 26.3C38.9948 26.3 38.1548 25.34 38.1548 23.8C38.1548 22.3 38.9948 21.3 40.1948 21.3C41.3548 21.3 42.2148 22.3 42.2148 23.8C42.2148 25.34 41.3548 26.3 40.1948 26.3ZM48.7758 27.12C48.7758 27.12 49.2958 28.2 51.1558 28.2C53.3158 28.2 54.9758 26.4 54.9758 23.78C54.9758 21.1 53.2958 19.4 51.0758 19.4C49.0158 19.4 48.2958 20.78 48.2958 20.78H48.1758L47.8158 19.6H46.2758V31.12H48.6758V27.12H48.7758ZM48.5558 23.82C48.5558 22.32 49.3958 21.38 50.5558 21.38C51.7358 21.38 52.5558 22.4 52.5558 23.82C52.5558 25.24 51.7358 26.22 50.5558 26.22C49.3958 26.22 48.5558 25.3 48.5558 23.82Z" fill="white"></path><path d="M24.959 33.832H27.591V41H28.977V33.832H31.609V32.6H24.959V33.832ZM32.6271 41H34.0131V37.598C34.0131 36.968 34.4751 36.156 35.4271 36.156C36.3091 36.156 36.8131 36.856 36.8131 37.766V41H38.1851V37.626C38.1851 36.03 37.2891 34.98 35.8051 34.98C34.9791 34.98 34.4331 35.218 34.0551 35.68H34.0131V32.53H32.6271V41ZM44.1732 39.53C44.1732 39.53 43.5852 40.048 42.5912 40.048C41.5552 40.048 40.8552 39.46 40.7712 38.27H44.9432C44.9432 38.27 44.9572 38.032 44.9572 37.906C44.9572 36.198 43.9912 34.98 42.2832 34.98C40.5612 34.98 39.4272 36.296 39.4272 38.074C39.4272 39.866 40.5892 41.168 42.5072 41.168C43.9912 41.168 44.6632 40.468 44.6632 40.468L44.1732 39.53ZM42.2552 36.044C43.0252 36.044 43.4872 36.506 43.5852 37.36H40.8272C40.9812 36.478 41.4992 36.044 42.2552 36.044Z" fill="white"></path><path d="M24.9766 55V52.88H19.3366V43H16.9166V55H24.9766ZM34.526 50.84C34.526 48.16 32.546 46.4 30.146 46.4C27.726 46.4 25.746 48.16 25.746 50.84C25.746 53.5 27.726 55.2 30.146 55.2C32.546 55.2 34.526 53.5 34.526 50.84ZM30.146 53.3C28.946 53.3 28.106 52.34 28.106 50.8C28.106 49.3 28.946 48.3 30.146 48.3C31.306 48.3 32.166 49.3 32.166 50.8C32.166 52.34 31.306 53.3 30.146 53.3ZM44.487 50.84C44.487 48.16 42.507 46.4 40.107 46.4C37.687 46.4 35.707 48.16 35.707 50.84C35.707 53.5 37.687 55.2 40.107 55.2C42.507 55.2 44.487 53.5 44.487 50.84ZM40.107 53.3C38.907 53.3 38.067 52.34 38.067 50.8C38.067 49.3 38.907 48.3 40.107 48.3C41.267 48.3 42.127 49.3 42.127 50.8C42.127 52.34 41.267 53.3 40.107 53.3ZM51.3279 46.6L48.5879 50V42.9H46.1879V55H48.5879V52.58L49.2879 51.78L51.4479 55H54.3479L51.1479 50.26L54.2279 46.6H51.3279Z" fill="white"></path></svg>