<svg class="header-logo__img--mobile" viewBox="0 0 149 42" fill="currentColor" xmlns="http://www.w3.org/2000/svg"><path d="M51.9407 26.1713L51.6691 26.0893L51.4065 25.9513L51.1095 25.9937L50.828 25.9531L50.5464 25.8909L50.2603 25.9369L49.9742 25.8665L49.6927 25.9567L49.4066 25.9522L49.1241 25.9919L48.838 26.0144L48.5583 26.0739L48.2867 26.1551L48.0033 26.2389L47.7136 26.3012L47.4257 26.3769L47.1568 26.5095L46.8852 26.6321L46.6371 26.7989L46.3746 26.9279L46.103 27.0487L45.8096 27.1253L45.5679 27.2985L45.3117 27.4436L44.8491 27.7692L44.6218 27.9279L44.3647 28.0397L44.1175 28.1668L43.6676 28.5158L43.8306 28.2525L43.9292 27.982L44.0361 27.7114L44.1212 27.4364L44.1465 27.138L44.3276 26.899L44.4127 26.624L44.4362 26.3264L44.6101 26.0821L44.6644 25.7944L44.7622 25.5239L44.8916 25.2624L44.9351 24.9711L45.0564 24.7078L45.1877 24.4481L45.2873 24.1776L45.385 23.9071L45.4683 23.6276L45.5589 23.349L45.6494 23.0784L45.7327 22.8079L45.8966 22.5609L45.9445 22.2714L46.017 21.991L46.1673 21.7394L46.2904 21.477L46.3121 21.1776L46.4416 20.917L46.5249 20.6393L46.6435 20.3742L46.7965 20.1226L46.8571 19.8368L46.9839 19.5762L47.0237 19.2813L47.1686 19.0252L47.2917 18.7592L47.3678 18.477L47.4981 18.2191L47.5724 17.9396L47.6547 17.6628L47.7082 17.376L47.8159 17.11L47.9426 16.8494L48.0169 16.569L48.198 16.3273L48.2885 16.0523L48.3872 15.7457L48.4632 15.4292L48.5782 15.1271L48.7439 14.8431L48.7864 14.5158L48.9512 14.2344L49.0173 13.9306L49.1323 13.6456L49.1703 13.5987L49.1875 13.5906L49.2391 13.312L49.3296 13.0559L49.3867 12.7854L49.2961 12.5257L49.1757 12.2597L48.9675 12.0541L48.7611 11.8512L48.4958 11.734L48.2505 11.5753L47.9553 11.5843L47.6738 11.5356L47.3795 11.541L47.1206 11.6817L46.8852 11.8431L46.6634 12.0234L46.5086 12.2624L46.4081 12.5239L46.2515 12.8305L46.0704 13.1316L46.017 13.4635L45.9337 13.7836L45.8431 14.0288L45.72 14.2633L45.6639 14.5221L45.5272 14.7493L45.4738 15.0099L45.357 15.2759L45.2809 15.5573L45.1786 15.8278L45.0655 16.0983L44.9333 16.358L44.8654 16.6429L44.7124 16.8954L44.6073 17.1659L44.5422 17.4536L44.4516 17.7241L44.3837 18.0027L44.3113 18.2813L44.2135 18.5518L44.094 18.8142L43.9428 19.0649L43.8976 19.3535L43.8387 19.6384L43.7165 19.9035L43.6259 20.174L43.5046 20.4373L43.3797 20.706L43.3607 21.0036L43.1941 21.2471L43.1488 21.5374L43.0511 21.8079L42.9777 22.0893L42.812 22.3327L42.5404 22.3625L42.2616 22.44L41.99 22.5609L41.6912 22.5365L41.4115 22.615L41.1281 22.6736L40.8447 22.7313L40.5478 22.7024L40.2662 22.7737L39.9756 22.8278L40.0073 22.5302L40.1358 22.2552L40.1666 21.9603L40.1947 21.6655L40.2852 21.3814L40.3106 21.0839L40.4636 20.8133L40.5043 20.5185L40.5813 20.2398L40.6293 19.9558L40.7198 19.679L40.7714 19.3949L40.7614 19.0965L40.8212 18.8151L40.8818 18.532L40.995 18.2615L41.0385 17.9729L41.0846 17.6853L41.1752 17.4148L41.1906 17.1217L41.2567 16.8404L41.3943 16.5744L41.4314 16.2858L41.54 15.9468L41.5083 15.8521L41.5319 15.8332L41.5255 15.8169L41.4993 15.7935L41.5898 15.6745L41.6034 15.3336L41.5455 15.0144L41.4712 14.7547L41.2648 14.4743L40.957 14.3066L40.7171 13.9955L40.488 13.7863L40.1983 13.6059L40.0308 13.569L39.742 13.6402L39.455 13.7196L39.1581 13.7683L38.8747 13.8665L38.6031 13.9973V13.9765L38.3786 14.1677L38.2636 14.4454L38.0825 14.6691L37.8879 14.8855L37.7222 15.1235L37.4877 15.3039L37.3066 15.532L37.179 15.8025L36.9264 15.9729L36.7779 16.2245L36.624 16.4734L36.4429 16.6961L36.2193 16.8891L36.0835 17.1506L35.9024 17.3796L35.7114 17.5978L35.5077 17.807L35.3456 18.0478L35.1247 18.2426L34.9437 18.468L34.7898 18.7151L34.6549 18.9784L34.4629 19.1957L34.2502 19.3967L34.0881 19.6375L33.9387 19.8855L33.7287 20.0884L33.5766 20.3381L33.4182 20.5816L33.2145 20.7899L33.0334 21.018L32.8215 21.2209L32.6667 21.4671L32.4784 21.6889L32.3019 21.8963L32.1452 22.1199L31.9642 22.3255L31.8112 22.5518L31.6754 22.7899L31.5233 23.0162L31.3006 23.1894L31.1729 23.4436L30.9276 23.3454H30.6695L30.4676 23.2453L30.4495 22.9747L30.5401 22.6961L30.5763 22.4058L30.6406 22.1217L30.7311 21.8431L30.799 21.5591L30.856 21.2741L30.8606 20.9766L30.9719 20.706L31.0299 20.4211L31.0724 20.1325L31.1159 19.844L31.1747 19.5591L31.229 19.2723L31.3395 19.0018L31.3666 18.7096L31.4146 18.4229L31.5577 18.1524L31.6075 17.8647L31.5903 17.5627L31.6917 17.2876L31.8039 17.0171V16.7178L31.9126 16.4472L31.9968 16.1677L32.0565 15.8828L32.0638 15.5861L32.1796 15.3156L32.1914 15.0198L32.3073 14.7493L32.3652 14.4644L32.463 14.1875L32.4558 13.8873L32.5192 13.6032L32.626 13.3327L32.6414 13.037L32.7319 12.7187L33.0443 12.7547L33.3276 12.6646L33.6246 12.6844L33.9098 12.587L34.2103 12.5906L34.5046 12.5834L34.7916 12.5041L35.084 12.4743L35.3737 12.4184L35.6707 12.44L35.9649 12.4148L36.2519 12.3246L36.5543 12.367L36.8467 12.3174L37.14 12.2813L37.4325 12.2209L37.7276 12.193L38.0264 12.2002L38.3179 12.1434L38.6094 12.0721L38.9046 12.046L39.207 12.0902L39.5012 12.0487L39.7954 12.0108L40.0842 11.9206L40.3803 11.899L40.6763 11.8765L40.9769 11.9098L41.2684 11.8368L41.5618 11.7908L41.856 11.7556L42.1584 11.8016L42.1874 11.8061L42.4771 11.6934L42.7315 11.523L42.9125 11.2768L42.9832 10.9774L42.9442 10.6781L42.8401 10.4265L42.6817 10.2056L42.4318 10.0974L42.1792 10.027L41.9076 9.95581L41.6161 9.98917L41.3327 10.0974L41.033 10.0559L40.746 10.1371L40.4536 10.1623H40.1585L39.8679 10.2083L39.5772 10.2489L39.2839 10.266L38.9942 10.3174L38.6981 10.3084L38.4048 10.3264L38.1214 10.4373L37.8227 10.3985L37.5348 10.4689L37.2451 10.523L36.9508 10.5275L36.6548 10.5167L36.3768 10.5383L36.1052 10.6456L35.8228 10.6276L35.5512 10.7006L35.2687 10.6826L34.9853 10.6637L34.7137 10.7196L34.4421 10.78L34.1705 10.8305L33.8862 10.8061L33.6056 10.8287L33.3177 10.899L33.4082 10.5446L33.5558 10.2741L33.6146 9.98106L33.6526 9.68169L33.7432 9.39674L33.8437 9.11451L33.9686 8.844L33.9967 8.54192L34.0673 8.25157L34.1796 7.97204L34.242 7.70784L34.2837 7.43732L34.3742 7.18214L34.4466 6.91974L34.5073 6.65373V6.36879L34.6123 6.09828L34.6721 5.81965L34.7626 5.54913L34.7309 5.25518L34.7717 5.02073L34.7581 4.81153L34.7635 4.69251L34.7128 4.50044L34.5725 4.2687L34.3154 4.15148L34.1026 3.99278L33.7975 3.98106L33.5141 4.09377L33.2371 4.22722L33.1737 4.45806L33.0669 4.50405L33.0977 4.61947L32.9601 4.70243L32.9048 4.89269L32.8795 5.24796L32.7265 5.56627L32.683 5.83137L32.6124 6.09197L32.5056 6.34264L32.4639 6.61316L32.3824 6.87105L32.2774 7.15058L32.2059 7.43822V7.743L32.1081 8.02434L32.052 8.31469L31.9569 8.59783L31.8392 8.87465L31.7659 9.1641L31.7505 9.46798L31.6998 9.73849L31.5848 9.99278L31.4943 10.2561V10.5392L31.3875 10.7971L31.3467 11.092L31.0462 11.1325L30.7447 11.073L30.455 11.1434L30.1625 11.2056L29.8638 11.1686H29.5677L29.2798 11.2588L28.9838 11.2723L28.6886 11.2912L28.3944 11.3273L28.102 11.3859L27.8068 11.4121L27.5053 11.3688L27.2111 11.3922L26.9214 11.4887L26.6199 11.4554L26.3239 11.4968L26.0296 11.5582H25.7327L25.4412 11.624L25.1397 11.5726L24.8481 11.6393L24.5503 11.6123L24.2561 11.6637L23.9645 11.7349L23.6603 11.6835L23.3715 11.7971H23.07L22.7713 11.8404H22.4707L22.1692 11.789L21.8696 11.8187L21.5717 11.7746L21.2757 11.7412L20.966 11.7953L20.6817 11.6718L20.3884 11.7078L20.105 11.7214L19.8434 11.8305L19.589 11.9423L19.3627 12.11L19.1698 12.3192L19.0539 12.5906L18.9462 12.8566L18.9154 13.1434L18.958 13.4274L19.1019 13.6772L19.1544 13.9711L19.3527 14.1875L19.608 14.3273L19.8633 14.4436L20.1241 14.5591L20.411 14.6168L20.6826 14.5041L20.9543 14.4391L21.2557 14.3859L21.5092 14.2056L21.8243 14.211L22.114 14.1398L22.3856 13.9829L22.6844 13.9432L22.9813 13.8954L23.2855 13.9062L23.5761 13.816L23.8713 13.7962L24.1646 13.7574L24.4598 13.7322L24.7594 13.7484L25.0509 13.697L25.3452 13.6555L25.6349 13.5789L25.9355 13.5852L26.2315 13.5455L26.5122 13.449L26.8046 13.4418L27.0997 13.4572L27.3831 13.3805L27.6728 13.3598L27.9662 13.3544L28.2468 13.2471L28.5374 13.2236L28.8353 13.2489L29.1232 13.202L29.412 13.1578H29.7053L29.9923 13.0947L30.2811 13.0424H30.5772L30.8633 12.9856L30.8062 13.2561L30.7356 13.5266L30.5998 13.78L30.4876 14.0415L30.445 14.3255L30.292 14.5726L30.2087 14.8431L30.1526 15.1226L30.0457 15.3859L29.9199 15.6564L29.8294 15.9378L29.7633 16.2254L29.6918 16.5122L29.5614 16.7782L29.508 17.0712L29.4174 17.3517L29.2834 17.6168L29.1721 17.8557L29.1042 18.1127L29.0444 18.3733L28.9132 18.6086L28.7973 18.8494L28.742 19.1731L28.6153 19.4752L28.4342 19.7394L28.3256 20.0334L28.2351 20.3039L28.1282 20.5654L27.968 20.7998L27.8729 21.0667L27.7018 21.2931L27.537 21.5176L27.4202 21.7755L27.3062 22.0361L27.1323 22.2606L26.9902 22.5095L26.7865 22.7096L26.6109 22.9306L26.4923 23.193L26.2677 23.3733L26.1346 23.6267L25.9427 23.835L25.7671 24.055L25.567 24.2552L25.4022 24.4932L25.2212 24.7105L24.9767 24.871L24.7857 25.0793L24.5983 25.2921L24.4326 25.5275L24.1981 25.6934L23.9754 25.8738L23.8052 26.1064L23.5807 26.2822L23.3561 26.4563L23.1425 26.642L22.9542 26.8602L22.7233 27.0261L22.4798 27.1758L22.2924 27.3986L22.0416 27.5374L21.7863 27.6673L21.5952 27.8747L21.3191 27.954L21.1317 28.174L20.9017 28.3129L20.6537 28.4346L20.4101 28.5627L20.1331 28.6258L19.9004 28.7737L19.6361 28.8521L19.3799 28.9919L19.1083 29.0821L18.8557 29.1722L18.594 29.2417L18.2436 29.2245L17.9141 29.1226L17.8806 29.1136L17.8471 29.0821L17.7828 29.0207L17.7285 28.8765L17.7502 28.6628L17.733 28.4247L17.7267 28.1794L17.791 27.8927L17.8055 27.5987L17.896 27.3228L17.9186 27.0316L18.0363 26.761L18.0725 26.4689L18.2101 26.2101L18.3387 25.9495L18.3668 25.6474L18.5261 25.4157L18.6402 25.6438L18.8566 25.8106L19.0576 25.9775L19.2975 26.1353L19.5691 26.2498L19.8624 26.2642L20.153 26.2389L20.4165 26.1172L20.6727 25.9946L20.9443 25.8665L21.1145 25.6231V25.5753L21.3345 25.3796L21.4739 25.128L21.645 24.8981L21.8008 24.6555L21.9529 24.4112L22.1819 24.2308L22.3476 23.9973L22.5658 23.807L22.7224 23.5663L22.8854 23.3327L23.0411 23.101L23.2022 22.8747L23.3887 22.6691L23.5879 22.4743L23.7907 22.2822L23.9175 22.0298L24.161 21.8692L24.2778 21.6087L24.4779 21.4148L24.6689 21.2119L24.7775 20.9414L25.0156 20.7728L25.1532 20.5212L25.3615 20.3318L25.5299 20.1019L25.8015 19.9387L25.9825 19.6925L26.1745 19.4599L26.3972 19.2498L26.5402 18.9793L26.6905 18.743L26.8625 18.5149L26.9757 18.2534L26.9993 17.9738L27.1007 17.7214L27.1541 17.4508L27.1839 17.1722L27.0744 16.8792L27.0472 16.5681L26.9006 16.2976L26.676 16.0784L26.5493 15.9765L26.2895 15.7809L26.0314 15.6285L25.7309 15.6068L25.4375 15.5879L25.203 15.6564L24.9704 15.7142L24.7205 15.7322L24.4978 15.8269L24.3086 15.9802L24.0433 16.1389L23.7989 16.3255L23.5716 16.532L23.2873 16.6727L23.09 16.9116L22.9134 17.1389L22.7124 17.339L22.5314 17.5609L22.3259 17.7592L22.1448 17.9774L21.9148 18.1461L21.7338 18.3553L21.5789 18.5888L21.3789 18.7827L21.1806 18.9766L21.062 19.2408L20.8194 19.3958L20.6962 19.6555L20.4708 19.8251L20.297 20.0397L20.086 20.22L19.9738 20.4842L19.7583 20.6646L19.6152 20.9026L19.4532 21.1244L19.2667 21.3282L19.1092 21.5536L18.8765 21.7232L18.7905 22.0018L18.5587 22.1749L18.4292 22.4256L18.298 22.6727L18.1106 22.8828L17.9557 23.1145L17.8426 23.3733L17.6552 23.5852L17.4804 23.8061L17.3899 24.0766L17.2206 24.3021L17.0993 24.5573L16.9997 24.8323L16.8186 25.0649L16.7136 25.3354L16.6602 25.6294L16.5072 25.9134L16.5208 25.5906L16.6185 25.3066L16.5751 25.0081L16.6656 24.7232L16.614 24.4238L16.672 24.1362L16.6964 23.844L16.7987 23.5609L16.786 23.2651L16.7969 22.9729V22.6781L16.8639 22.3913L16.9218 22.1028V21.8088L16.9807 21.5212L17.0051 21.2299L16.9906 20.9333L17.0975 20.651L17.0839 20.3553L17.1264 20.0649L17.1572 19.7746L17.1346 19.4779L17.1771 19.1876L17.2432 18.9008V18.6068L17.2921 18.3174L17.3329 18.0279L17.3863 17.7394L17.3618 17.4463L17.4786 17.1686L17.4714 16.8783L17.4895 16.5897L17.552 16.3066L17.5592 16.0171L17.5637 15.7268L17.6353 15.4445L17.6715 15.1587L17.7385 14.8756L17.724 14.5834L17.8018 14.3021L17.8118 14.0126L17.7973 13.7205L17.8109 13.4319L17.8797 13.1497L17.9539 12.8674V12.5762L17.9594 12.2867L18.0544 12.0072L18.0055 11.7114L18.1187 11.4337L18.0798 11.1389L18.202 10.862L18.1413 10.5654L18.2319 10.2849L18.1984 9.99098L18.326 9.71505L18.3505 9.42741L18.3242 9.13435L18.4419 8.56627L18.4301 8.27501L18.441 7.98556L18.5315 7.70513L18.5442 7.41568L18.5524 7.12623L18.6103 6.84309L18.6013 6.55094L18.6963 6.27141L18.6845 5.98015L18.7298 5.69431L18.8086 5.41297L18.8267 5.12443L18.8538 4.83768L18.891 4.55094V4.26059L18.9471 3.97655L19.0114 3.69341L19.0612 3.40937L19.091 3.12262V2.83227L19.1517 2.54823L19.158 2.25878L19.2015 1.97294L19.2124 1.68439L19.1436 1.46618L18.9806 1.27952L18.6891 1.18935H18.3704L18.0988 1.01983L17.8 0.949494L17.5058 0.864734L17.2079 0.788087L16.9182 0.687997L16.6466 0.754724L16.4945 0.958511L16.3832 1.22362L16.3533 1.51216L16.2356 1.77456L16.145 2.04508L16.0437 2.31559L15.9776 2.59422L15.9359 2.87916L15.8074 3.13976L15.7512 3.42109L15.6335 3.68439V3.98196L15.5493 4.25247L15.4832 4.5302L15.3275 4.78268L15.3049 5.07393L15.2234 5.34445L15.1075 5.61045L15.0025 5.88096L14.9971 6.17763L14.8966 6.44814L14.7418 6.70243L14.6883 6.98466L14.634 7.2678L14.5344 7.53831L14.4946 7.82596L14.3733 8.08205L14.3226 8.36789L14.223 8.63841L14.1506 8.91974L14.099 9.20558L13.9405 9.46167L13.8844 9.74661L13.8609 10.0415L13.7142 10.3003L13.6237 10.5762L13.5766 10.8638L13.5114 11.147L13.4209 11.4229L13.2968 11.6889L13.2488 11.9765L13.2054 12.2651L13.0777 12.5302L13.0279 12.8169L12.9682 13.101L12.8061 13.3562L12.7563 13.6429L12.6504 13.9134L12.597 14.1993L12.5608 14.4896L12.4938 14.7719L12.358 15.0343L12.272 15.3111L12.1814 15.5861L12.1489 15.8783L12.0583 16.1542L12.0058 16.44L11.8673 16.7024L11.8474 16.9937L11.784 17.2723L11.6328 17.5275L11.5966 17.8142L11.5595 18.1001L11.4472 18.3661L11.3567 18.6366L11.2969 18.917L11.2752 19.2074L11.2046 19.4842L11.0552 19.7403L11.0054 20.0225L10.8841 20.2858L10.8126 20.5627L10.8225 20.8611L10.7139 21.1118V20.8413L10.6912 20.5509V20.2615L10.7256 19.9729L10.7573 19.6844L10.7727 19.3949L10.7175 19.1046L10.808 18.8178L10.8162 18.5284L10.7791 18.2371L10.8153 17.9495L10.8289 17.66L10.8533 17.3715L10.78 17.0793L10.7908 16.7899L10.8089 16.5013L10.8415 16.2128V15.9233L10.8325 15.633L10.9465 15.3481L10.9121 15.0568L10.9393 14.7683L10.8877 14.477L10.9927 14.1912L10.9411 13.8999L10.9728 13.6114L10.9828 13.3219V13.0325L11.047 12.7457L11.0606 12.4572L10.9963 12.1641L11.0289 11.8765L11.0498 11.5879L11.0724 11.2994L11.057 11.009L11.172 10.7259L11.1204 10.7123L11.067 10.2921L11.0869 10.275L10.8026 10.1704L10.5011 10.1208L10.2368 9.95851L9.93075 9.91884L9.64738 9.80973L9.33956 9.77005L9.05799 9.65103L8.69042 9.73489L8.50935 9.89539L8.41882 10.1145L8.3147 10.385L8.25224 10.6736L8.08746 10.9224L8.05306 11.2218L7.90458 11.477L7.82401 11.7574L7.67553 12.0135L7.585 12.2903L7.52705 12.5798L7.4166 12.8503L7.25545 13.101L7.19026 13.3868L7.08524 13.6573L6.9594 13.9224L6.86887 14.1984L6.76837 14.4689L6.64253 14.7322L6.61265 15.0307L6.48138 15.2958L6.39084 15.5735L6.25504 15.8368L6.1808 16.1199L6.05405 16.3778L5.99158 16.6646L5.87932 16.9351L5.83496 17.2281L5.65389 17.4743L5.59595 17.7628L5.49183 18.0334L5.4013 18.3111L5.30352 18.5816L5.18854 18.8783L5.17134 18.55L5.22566 18.2543L5.2148 17.9531L5.30533 17.6591L5.3506 17.3616L5.34155 17.0613L5.36871 16.7619L5.34155 16.4608L5.40854 16.1641L5.41941 15.8647L5.44657 15.5545L5.2655 15.3904L5.14871 15.1993L4.85356 15.1596L4.55842 15.1262L4.28682 15L4.00797 14.8963L3.69834 14.9179L3.41949 14.8115L3.12435 14.7701L2.91069 14.8079L2.72962 14.9567L2.66715 15.2408L2.51415 15.5329L2.46164 15.7719L2.34756 15.9874L2.25703 16.2119L2.14567 16.4986L2.00172 16.7692L1.81069 17.0171L1.7274 17.3192L1.52732 17.5663L1.40238 17.8368L1.29917 18.119L1.14255 18.3742L0.940655 18.6041L0.78222 18.8566L0.642795 19.1226L0.500657 19.3886L0.423702 19.6871L0.277036 19.9477L0.0851028 20.1839L0.0235385 20.4842L0 20.7042L0.127653 20.9089L0.378434 21.0748L0.640986 21.22L0.91259 21.3463L1.17423 21.4959L1.40691 21.5022L1.57983 21.3769L1.80073 21.2155L1.90938 20.9621L2.14386 20.807L2.29596 20.5518L2.24888 20.8656L2.17374 21.1533V21.449L2.13662 21.7403L2.17645 22.0397L2.10493 22.3282L2.0832 22.6213L2.04608 22.9134L2.05514 23.2092L2.01349 23.5013L1.98905 23.7944L1.91481 24.0821L1.83695 24.3688L1.86139 24.6582L1.81522 24.9387L1.78715 25.2218L1.76362 25.5059L1.73102 25.7881L1.68847 26.0703L1.62691 26.349L1.58164 26.6294L1.56444 26.9143V27.1984L1.50107 27.477L1.47028 27.7601L1.34987 28.0307L1.33901 28.3165L1.30823 28.5996L1.22946 28.8747L1.27292 29.1695L1.13078 29.4346L1.11629 29.7196L1.10995 30.0063L1.09094 30.2913L1.02123 30.5681L0.924358 30.8386L0.90082 31.1235L0.879091 31.4076L0.84831 31.6907L0.803042 31.9775L0.669051 32.2426L0.698022 32.5392L0.640986 32.8197L0.531438 33.0956L0.479833 33.2507L0.474401 33.3499L0.454483 33.4292L0.508805 33.5455L0.468064 33.5753L0.546829 33.8873L0.590285 34.1677L0.543208 34.3237L0.742384 34.5284L1.02214 34.6077L1.26658 34.7809L1.57078 34.7701L1.84781 34.8431L2.12937 34.9161L2.41909 34.9017L2.67983 34.789L2.93966 34.6727L3.00485 34.3895L3.15151 34.2092L3.16781 33.9766L3.2511 33.706L3.3353 33.4355L3.41678 33.1596L3.48921 32.8819L3.63587 32.6258L3.65307 32.3309L3.75085 32.0604L3.82237 31.7818L3.90023 31.505L4.03332 31.2453L4.09579 30.9639L4.21439 30.6997L4.24155 30.4076L4.33208 30.1371L4.4027 29.8584L4.52402 29.5951L4.60188 29.3183L4.75126 29.064L4.8092 28.7809L4.86896 28.4986L4.93142 28.2164L5.04912 27.9522L5.0971 27.6655L5.19216 27.3949L5.27636 27.1199L5.41941 26.8629L5.52895 26.5924L5.54887 26.2967L5.67834 26.0361L5.71817 25.7466L5.88113 25.4968L5.93183 25.211L6.04953 24.9468L6.10204 24.6609L6.24327 24.404L6.32566 24.1325L6.38813 23.8503L6.50673 23.5825L6.60451 23.312L6.69504 23.0415L6.79463 22.771L6.87158 22.4941L6.9766 22.2317L7.08072 21.9693L7.1287 21.6871L7.22376 21.422L7.36771 21.1722L7.41207 20.8864L7.4836 20.6159L7.56508 20.3454L7.73528 20.1064L7.83578 19.8431L7.91997 19.5726L7.99693 19.2543L7.98516 19.5879L7.94985 19.8774L7.95528 20.165L7.89915 20.4545L7.93265 20.7466L7.8901 21.0361L7.9082 21.3282L7.87923 21.6186L7.9082 21.9107L7.8575 22.2011L7.94804 22.4941L7.90639 22.7836L7.8729 23.0739L7.83306 23.3643L7.85026 23.6555L7.84302 23.9468L7.87109 24.238L7.84574 24.5284L7.81676 24.8188L7.83668 25.11L7.81586 25.4013L7.82763 25.6916L7.80137 25.9829L7.84936 26.2741L7.81495 26.5645L7.78146 26.8548L7.84664 27.147L7.79685 27.4364L7.74886 27.7268L7.8394 28.0189L7.79413 28.3093L7.75339 28.5996L7.83578 28.8918L7.79594 29.1821L7.72985 29.4716V29.7628L7.80228 30.0541L7.75792 30.3445L7.76788 30.6357L7.78779 30.927L7.7208 31.2173L7.74343 31.5077L7.79323 31.7998L7.71899 32.0902V32.3805L7.71174 32.6718L7.72713 32.963L7.74705 33.2543L7.70903 33.3201L7.7389 33.605L7.86475 33.8711L7.96615 34.1416L8.15355 34.3634L8.43421 34.459L8.67503 34.5879L8.94664 34.6375L9.24902 34.6997L9.56771 34.6835L9.81124 34.4716L10.0584 34.3012L10.2875 34.0938L10.4685 33.8314L10.5256 33.5203L10.5717 33.2371L10.5663 32.9477L10.6786 32.6772L10.7084 32.3922L10.6949 32.101L10.7854 31.8251L10.8216 31.541L10.8732 31.2597L10.9076 30.9747L10.9529 30.6916L10.9339 30.3986L11.038 30.128L11.0642 29.8422L11.1548 29.5663L11.1358 29.2732L11.1819 28.9901L11.2797 28.7196V28.4292L11.392 28.1587L11.4228 27.8738L11.4336 27.5834L11.5042 27.3057L11.574 27.027L11.65 26.7502L11.7116 26.4698L11.7369 26.183L11.7523 25.8936L11.8863 25.6285L11.8781 25.3336L11.994 25.0631L12.0465 24.7809L12.0782 24.495L12.1923 24.2245L12.2475 23.9432L12.2267 23.6456L12.3598 23.3805L12.4358 23.1037L12.4621 22.816L12.52 22.5347L12.5635 22.2507L12.6133 21.9675L12.7165 21.697L12.7428 21.4085L12.8559 21.138L12.865 20.8449L12.9899 20.5798L13.0732 20.3048L13.0832 20.0117L13.1963 19.7412L13.2452 19.4572L13.286 19.1722L13.3629 18.8954L13.5042 18.6348L13.573 18.3571L13.6273 18.0748L13.6436 17.7827L13.7921 17.5248L13.8065 17.2317L13.8735 16.9495L13.9496 16.6691L14.0474 16.3986L14.1116 16.1073L14.2511 15.844L14.3289 15.5645L14.3597 15.2723L14.4376 14.9919L14.4683 14.6988L14.5544 14.422L14.701 14.1614L14.8079 13.8909L14.8024 13.587L14.9437 13.3264L14.9826 13.0352L15.1057 12.7646L15.1818 12.4463L15.1175 12.7701L15.0903 13.0622L15.1157 13.3598L15.0786 13.651L14.988 13.936L14.9744 14.2299L14.96 14.523L14.9509 14.8169L14.9102 15.1073L14.8006 15.3904L14.7617 15.6808L14.7707 15.9765L14.7418 16.2687L14.6965 16.5582L14.7228 16.8566L14.6675 17.1452L14.6576 17.4391L14.5869 17.7205L14.596 18.0117L14.4855 18.2885L14.5037 18.5807L14.4258 18.862L14.4521 19.1542L14.4394 19.4418L14.3923 19.7268L14.3217 20.009L14.2927 20.2949L14.2873 20.5843L14.2411 20.8683L14.2547 21.1596L14.1361 21.4364L14.1497 21.7277L14.0908 22.0108L14.1307 22.3048L14.0754 22.5888L14.0247 22.8729V23.1623L13.9659 23.4454L13.8907 23.7277L13.8844 24.0162L13.8998 24.3075L13.84 24.5924L13.7993 24.8774L13.8165 25.1686L13.7857 25.4554L13.7513 25.7412L13.6662 26.0252L13.6481 26.3156L13.6128 26.6032L13.678 26.8999L13.5648 27.1812L13.6065 27.4752L13.5503 27.761L13.4969 28.0469L13.5567 28.3417L13.5395 28.6312L13.4888 28.9179L13.439 29.2047L13.4607 29.4977L13.4652 29.789L13.4136 30.0757L13.3865 30.3652L13.4028 30.6555L13.3665 30.9432L13.3231 31.2299L13.2787 31.5176L13.2307 31.8052L13.2697 32.0983L13.1837 32.3832L13.2507 32.679L13.1683 32.9657L13.2117 33.2606L13.1474 33.5491L13.1384 33.8413L13.1185 34.1334L13.0524 34.4211L13.0334 34.7124L13.0116 35.0027V35.2958L12.9845 35.5861L12.9555 35.8756L12.9917 36.1704L12.9718 36.4608L12.9419 36.7502L12.8677 37.037L12.8786 37.3291L12.8315 37.6204L12.8795 37.9161V38.2083L12.8713 38.4995L12.8559 38.789L12.7735 39.0757L12.7609 39.3661V39.9477L12.74 40.2363L12.7165 40.523L12.731 40.5888L12.769 40.881L12.8442 41.1686L13.0008 41.4229L13.1819 41.6736L13.4698 41.7863L13.7468 41.8819L14.0311 41.991L14.3099 42L14.5643 41.8963L14.7907 41.7439L15.0297 41.615L15.2243 41.422L15.3891 41.1975L15.4181 40.9179L15.4588 40.6537L15.4525 40.6294L15.5294 40.3463L15.5638 40.0604L15.524 39.7701L15.5358 39.4833L15.5294 39.1948L15.5602 38.9089L15.6209 38.624L15.5865 38.3336L15.6227 38.0469L15.5919 37.7565L15.6299 37.4698L15.6688 37.1858L15.6507 36.9008L15.7494 36.6186L15.734 36.33L15.7648 36.0433V35.7556L15.7367 35.4653L15.8173 35.1812L15.7956 34.89L15.8046 34.5996L15.8354 34.3102L15.878 34.0243V33.7349L15.9169 33.4481L15.9341 33.1596L15.9287 32.8711L15.9595 32.5834L15.992 32.2967L16.0183 32.009L15.9631 31.716L16.0473 31.431L16.0889 31.1461L16.0563 30.8539L16.1315 30.5699L16.1432 30.2822L16.1641 29.9946L16.1858 29.7169V29.761L16.3261 30.0081L16.4646 30.2606L16.7362 30.4409L16.8902 30.5852L17.1708 30.7935L17.4198 30.9107L17.6832 30.9288L17.9358 30.9675L18.164 31.0424L18.3966 30.9973L18.8285 30.9856L19.1273 30.8792L19.4296 30.807L19.7474 30.7818L20.0308 30.6474L20.344 30.5888L20.6048 30.4671L20.8583 30.33L21.1299 30.2245L21.3852 30.0911L21.6034 29.8918L21.8949 29.8224L22.0941 29.5978L22.3603 29.4833L22.5676 29.2777L22.8392 29.1713L23.0528 28.9657L23.3036 28.8124L23.5463 28.6465L23.797 28.4905L23.9781 28.2462L24.2307 28.0929L24.429 27.8738L24.7006 27.743L24.8726 27.4959L25.1125 27.3246L25.3189 27.1163L25.5353 26.9188L25.73 26.7006L25.9436 26.5004L26.1528 26.2967L26.361 26.0902L26.5149 25.8458L26.763 25.6763L26.9015 25.4058L27.145 25.2624L27.2853 25.0316L27.4447 24.8169L27.6258 24.6231L27.7824 24.4031L27.805 24.7448L27.7588 25.0893L27.7072 25.3598L27.6556 25.6465L27.5651 25.9224L27.4836 26.2002L27.4266 26.486L27.3831 26.7746L27.2528 27.0397L27.1486 27.3102L27.1025 27.5987L27.0056 27.8692L26.9386 28.1515L26.8091 28.4166L26.7602 28.7042L26.6996 28.9883L26.6561 29.2777L26.5783 29.5573L26.4832 29.8323L26.3266 30.0875L26.4017 30.1109L26.3492 30.3751L26.3972 30.6456L26.4497 30.9098L26.5466 31.1668L26.6851 31.4157L26.9024 31.6041L27.2138 31.6844L27.5117 31.7412L27.8177 31.8314L28.1056 31.6925L28.4206 31.6438L28.6579 31.4364L28.8941 31.2245L28.9023 31.2191L29.0254 30.9567L29.2065 30.7349L29.3622 30.4959L29.5053 30.248L29.699 30.0352L29.8647 29.8133L29.9751 29.5428L30.1743 29.3345L30.3662 29.1208L30.4867 28.8548L30.6587 28.6267L30.8135 28.3859L30.9819 28.1551L31.2263 27.9747L31.3703 27.725L31.5369 27.4923L31.6962 27.2543L31.841 27.0018L32.0629 26.8079L32.2113 26.5582L32.3834 26.3273L32.5807 26.1163L32.7618 25.8936L32.9601 25.6817L33.0968 25.4229L33.2353 25.1659L33.4761 24.9856L33.6391 24.7475L33.6336 24.7665L33.9052 24.6763L34.1877 24.7322L34.4593 24.642L34.7373 24.6213H35.0161L35.2931 24.6023L35.5711 24.5879L35.8517 24.66L36.1288 24.6141L36.4004 24.5491L36.6665 24.5978L36.672 24.8449L36.6005 25.0893L36.5262 25.3318L36.4357 25.5717L36.3759 25.8566L36.3823 26.1551L36.3026 26.4364L36.2492 26.7223L36.1586 27.0018L36.1252 27.2922L35.9884 27.5627L35.926 27.8467L35.9042 28.1398V28.4364L35.8282 28.7187L35.6951 28.9892V29.2858L35.6426 29.5726L35.5168 29.8431L35.476 30.1325L35.4479 30.4238L35.3475 30.7015L35.3846 31.0063L35.2741 31.2768L35.2388 31.5681L35.1401 31.8485L35.0713 32.1334L35.0396 32.4256L34.9636 32.7105L34.9898 33.0126L34.8776 33.2904L34.8975 33.5924L34.8133 33.8756L34.778 34.1686L34.7019 34.4581L34.6187 34.7475V35.0496L34.5788 35.3454L34.5091 35.6402L34.4512 35.8963L34.4394 36.1587V36.4238L34.3968 36.6456L34.3525 36.8702L34.4059 37.0099L34.4267 37.0812L34.4149 37.1812L34.4566 37.2759L34.4666 37.3436L34.4231 37.4472L34.4122 37.5428L34.4838 37.5744L34.4783 37.6646L34.615 37.9053L34.7744 38.1244L34.9826 38.3463L35.237 38.5149L35.5267 38.6213L35.8336 38.6168L36.136 38.596L36.4239 38.4986L36.7127 38.3751L36.9246 38.1488L37.1056 37.8981L37.1247 37.5834L37.16 37.2903L37.198 36.9838L37.1219 36.9684L37.2125 36.6979L37.2795 36.3715L37.3139 36.0415L37.3193 35.7601V35.4761L37.4098 35.2056L37.4406 34.9243L37.4741 34.6429L37.6181 34.3724L37.6425 34.0857L37.6823 33.8016L37.7475 33.5221L37.82 33.2444L37.8516 32.9585L37.867 32.6682L37.9748 32.3977L38.0164 32.1127L38.0282 31.8215L38.1441 31.5509L38.221 31.2714L38.2681 30.9865L38.2989 30.6979L38.3288 30.4094L38.4447 30.1389L38.4727 29.8503L38.4917 29.5591L38.623 29.2885L38.6465 29.0018L38.709 28.7196L38.738 28.431L38.7923 28.147L38.8937 27.8765L38.9752 27.5987V27.303L39.0431 27.0216L39.1644 26.7511L39.1979 26.4626L39.2993 26.1921L39.2911 25.8674L39.4052 25.5672L39.4179 25.2444L39.5148 24.9387L39.5935 24.6285L39.8986 24.5951L40.1974 24.6384L40.4935 24.6952L40.7931 24.6889L41.0946 24.6709L41.3888 24.7439L41.6876 24.7655L42.0081 24.7989L41.8596 25.0694L41.8162 25.367L41.7428 25.6528L41.569 25.9044L41.5473 26.2083L41.3662 26.4572L41.3173 26.7538L41.1815 27.018L41.1607 27.3255L41.052 27.596L40.8963 27.8503L40.8239 28.1316L40.7732 28.4202L40.6374 28.679L40.526 28.9495L40.4256 29.22L40.3205 29.4905L40.2707 29.7818L40.2164 30.0388L40.0779 30.2642L40.0272 30.5239L39.9557 30.7782L39.8543 31.0225L39.7637 31.3435L39.6297 31.6501L39.5745 31.9937L39.5501 32.1019L39.5012 32.303L39.3437 32.6988L39.4116 32.9856L39.4279 33.275L39.6089 33.5041L39.7465 33.752L39.9683 33.9576L40.2354 34.1028L40.5405 34.1082L40.8293 34.1172L41.1209 34.0875L41.3753 33.9423L41.6378 33.8043L41.7003 33.7033L41.9058 33.4923L42.1195 33.2894L42.3232 33.0775L42.5459 32.8837L42.7188 32.642L42.9225 32.4301L43.1371 32.2299L43.3317 32.0126L43.5707 31.8386L43.7871 31.6429L43.9763 31.4211L44.1483 31.1948L44.4199 31.0721L44.601 30.8575L44.8192 30.6772L45.0329 30.4968L45.2031 30.2669L45.4557 30.1316L45.644 29.9216L45.8757 29.7637L46.0876 29.5834L46.3293 29.4409L46.5104 29.1894L46.8028 29.0992L47.011 28.8828L47.2691 28.7412L47.5208 28.5879L47.7924 28.4707L48.0386 28.3102L48.3175 28.2137L48.5691 28.0577L48.8498 27.9675L49.1078 27.8665L49.3794 27.8016L49.6356 27.679H49.919L50.1906 27.6483L50.4622 27.6123L50.7393 27.5798L51.0172 27.6078L51.2888 27.633L51.5604 27.679L51.5658 27.6862H51.8592L52.11 27.5455L52.3816 27.4148L52.4549 27.1208L52.5237 26.8188L52.3888 26.5392L52.2077 26.2994L51.9407 26.1713ZM21.4966 21.1028L21.7057 20.9062L21.8524 20.6492L22.1068 20.4986L22.2724 20.2561L22.4952 20.0757L22.7152 19.8909L22.9261 19.6925L23.2059 19.5879L23.4394 19.422L23.6812 19.2137L23.9256 19.0054L24.2262 18.8891L24.5059 18.7403L24.6689 18.6303L24.591 18.9062L24.4851 19.1497L24.3765 19.3886L24.2742 19.6898L24.1094 19.9603L23.9356 20.2245L23.7916 20.5158L23.5834 20.7151L23.3643 20.9026L23.1932 21.1343L22.9605 21.3057L22.8138 21.5708L22.5631 21.7205L22.3059 21.8566L22.1185 22.0857L21.8813 22.248L21.6097 22.3724L21.3553 22.5257L21.1254 22.7232L20.8293 22.7998L20.5659 22.936L20.3169 23.1163L20.0254 23.1894L19.7357 23.2795L19.9004 23.0469L20.0815 22.8323L20.2408 22.6032L20.4147 22.3841L20.6093 22.1821L20.7859 21.9657L20.8963 21.6952L21.1444 21.5392L21.3254 21.3228L21.4966 21.1028ZM37.7566 19.908L37.6507 20.1731L37.6452 20.4608L37.5547 20.7313L37.5103 21.0099L37.3827 21.2696L37.3148 21.5401L37.2568 21.816L37.2423 22.101L37.2242 22.3859L37.1482 22.6564L37.0006 22.9116V23.2047L36.834 23.2182H36.5561L36.2782 23.2236L36.0066 23.3246L35.7295 23.339L35.4534 23.3571L35.1818 23.3895L34.9102 23.431H34.6304L34.6956 23.3895L34.8341 23.128L35.0342 22.9134L35.2415 22.7051L35.3592 22.4274L35.5774 22.2272L35.7232 21.9711L35.9368 21.7674L36.0862 21.514L36.2483 21.2705L36.4393 21.0496L36.5996 20.8043L36.8223 20.6077L37.0033 20.3823L37.198 20.165L37.3591 19.9206L37.5402 19.6934L37.7113 19.4563L37.8716 19.229L37.781 19.5609L37.7566 19.908Z" fill="currentColor"></path><path d="M71.8728 3.20559L71.8791 2.87376L71.8339 2.54554L71.7578 2.17674L71.7189 1.95041L71.7017 1.79621L71.6446 1.69703L71.6256 1.62128L71.5478 1.47971L71.565 1.39766L71.3911 1.1569L71.2771 0.907124L71.0426 0.760145L70.8244 0.608657L70.5736 0.518485L70.3111 0.44184H70.034L69.7543 0.548242L69.489 0.680794L69.2989 0.907124L69.1024 1.12354L69.0119 1.40126L68.9494 1.6835L68.9766 1.97024L68.9983 2.26601L69.0508 2.55726V2.53111L69.0092 2.50316L69.0255 2.49234V2.54734L69.0363 2.74482L69.0544 2.99008L69.0218 3.23535L69.0517 3.50586L69.0409 3.77187L68.973 4.03517L69.0083 4.30568L68.9711 4.5762L68.9358 4.84671L68.8897 5.11722L68.9141 5.39856L68.8426 5.66907L68.8553 5.82868L68.7439 6.04419L68.6751 6.26781L68.6425 6.53833L68.5837 6.80343L68.5004 7.06312L68.4352 7.32732L68.3066 7.57259L68.2532 7.8431L68.1328 8.09198L68.0558 8.35618L67.9508 8.62309L67.8947 8.90172L67.7417 9.14518L67.633 9.40487L67.5769 9.6835L67.461 9.94049L67.3823 10.211L67.2501 10.4626L67.1595 10.7421L67.0319 11.0063L66.9341 11.2822L66.8391 11.56L66.7413 11.8359L66.6698 12.1217L66.5312 12.3814L66.4488 12.6637L66.3194 12.927L66.2162 13.1975L66.0695 13.4536L66.0143 13.7466L65.8875 14.0117L65.7789 14.2822L65.6929 14.5627L65.5589 14.8251L65.4267 15.0875L65.3072 15.358L65.1732 15.624L65.0827 15.9035L65.0066 16.1894L64.8419 16.4382L64.7287 16.7088L64.6382 16.991L64.4924 17.2471L64.3684 17.5131L64.3131 17.8079L64.1402 18.0523L64.008 18.3147L63.9003 18.5852L63.8098 18.8675L63.6568 19.1181L63.5662 19.3995L63.4168 19.6528L63.3263 19.9333L63.1878 20.1912L63.081 20.4617L62.928 20.7124L62.8284 20.9883L62.7288 21.2561L62.6093 21.5266L62.5024 21.7971L62.3757 22.0595L62.2372 22.3174L62.095 22.5726L61.9737 22.8377L61.8995 23.1253L61.7329 23.3697L61.6179 23.6402L61.4894 23.9026L61.3382 24.1533L61.206 24.4139L61.1281 24.7006L60.9905 24.9576L60.8782 25.2281L60.7216 25.4761L60.5641 25.7232L60.4817 26.0081L60.3369 26.2624L60.2228 26.5329L60.0643 26.7791L59.8896 27.0162L59.7991 27.303L59.618 27.5419L59.4795 27.8034L59.3654 28.0739L59.2233 28.3336L59.1074 28.6078L58.9118 28.8377L58.7896 29.1082L58.6448 29.3625L58.5062 29.624L58.3732 29.8891L58.2048 30.1326L58.0346 30.3751L57.9033 30.6456L57.7222 30.8774L57.571 31.1299L57.409 31.376L57.2179 31.6015L57.0848 31.8657L56.8965 32.0938L56.7309 32.3354L56.5498 32.5284L56.5688 32.2074L56.5751 31.8593L56.5552 31.5708L56.5407 31.2813L56.5742 30.9946L56.6648 30.7133L56.6458 30.422L56.6838 30.1362L56.7372 29.853L56.7888 29.569L56.7734 29.275L56.8694 28.7051L56.9083 28.4184L56.9409 28.1299L57.007 27.8476L57.0867 27.5663L57.1002 27.2732L57.1699 26.9901L57.2469 26.7079V26.4112L57.3374 26.1317L57.361 25.8395L57.4515 25.5591L57.4796 25.2678L57.5203 24.9784L57.5882 24.6943L57.628 24.4049L57.7258 24.128L57.7892 23.8431L57.8616 23.5609L57.9051 23.2714L57.9676 22.9865L58.021 22.6997L58.1043 22.4193L58.1713 22.1353L58.2274 21.8485L58.3053 21.5672L58.317 21.2705L58.4329 21L58.451 20.7042L58.5253 20.422L58.5904 20.1371L58.6384 19.8485L58.7634 19.578L58.8267 19.2931L58.8648 19.0018L58.8992 18.7097L59.006 18.4391L59.0811 18.1632L59.1101 17.8765L59.1943 17.606L59.2848 17.3354L59.369 17.0649L59.4188 16.7827L59.4985 16.5077L59.5691 16.2308L59.5945 15.9423L59.7755 15.4013L59.8163 15.1172L59.9113 14.8467V14.5383L60.0136 14.2678L60.1214 13.9973L60.1395 13.7069L60.2119 13.4301L60.3142 13.1596L60.3839 12.8828L60.412 12.5942L60.5288 12.3291L60.5894 12.0496L60.6112 11.7601L60.7017 11.4896L60.7705 11.2119L60.8457 10.936L60.9317 10.6655L60.9959 10.3859L61.0711 10.1091L61.1616 9.8386L61.2331 9.56087L61.2395 9.26691L61.3717 9.00541L61.4341 8.72678L61.5573 8.16592L61.5899 7.87827L61.6668 7.60145L61.7945 7.33724L61.8008 7.04238L61.8759 6.76556L61.9773 6.49504L62.009 6.20649L62.1331 5.93598L62.1503 5.64202L62.2408 5.37151L62.3096 5.09107L62.4001 4.82056L62.4689 4.54193L62.5305 4.2615L62.5975 3.98107L62.688 3.70604L62.7786 3.42922L62.8275 3.14247L62.8863 2.86474L62.9162 2.5789L62.9823 2.30117L63.0592 2.02435L63.2086 1.80162L63.2856 1.55005L63.3951 1.31199L63.3806 1.02435L63.1597 0.855727L62.8736 0.791704L62.602 0.684402L62.325 0.587016L62.038 0.522994L61.7447 0.490532L61.4731 0.369703L61.1906 0.297566L60.9072 0.218214L60.6202 0.155095L60.3197 0.137962L60.048 0L59.647 0.155997L59.484 0.482417L59.2685 0.66276L59.1183 0.893598L58.9372 1.09919L58.7371 1.28675L58.5832 1.51939L58.3704 1.71776L58.1513 1.90983L57.743 2.32372L57.5457 2.53652L57.3438 2.74662L57.1364 2.94229L56.9346 3.156L56.6874 3.31921L56.5063 3.54824L56.3008 3.76375L56.0518 3.93418L55.8201 4.11452L55.639 4.35528L55.4018 4.53562L55.1872 4.73941L54.9546 4.91975L54.7029 5.08116L54.4965 5.29486L54.2574 5.46709L54.0601 5.69162L53.8084 5.85122L53.5685 6.02435L53.3494 6.22363L53.1022 6.38864L52.8822 6.58702L52.6568 6.77908L52.444 6.98738L52.2041 7.16051L51.9552 7.32372V7.35077L51.7125 7.49594L51.5695 7.73941L51.4998 8.00992L51.5179 8.28494L51.5749 8.54914L51.6654 8.81245L51.8854 8.97566L52.0855 9.156L52.3508 9.2065L52.6115 9.23084L52.875 9.2065L53.1285 9.11632L53.3729 8.95131L53.6445 8.82597L53.9161 8.70785L54.1705 8.56087L54.4421 8.44184L54.6866 8.27683L54.9455 8.13706L55.1818 7.95672L55.4534 7.8395L55.6671 7.64924L55.9387 7.5239L56.2103 7.39676L56.443 7.21641L56.6847 7.0487L56.9382 6.90081L57.1763 6.72859L57.4117 6.54824L57.6715 6.40938L57.9431 6.28765L58.1604 6.08386L58.3904 5.90352L58.681 5.72318L58.5904 6.04599L58.5388 6.34446L58.4257 6.62669L58.3759 6.92606L58.2853 7.21461L58.2238 7.51037L58.1423 7.80163L58.0518 8.09017L57.9476 8.37512L57.8933 8.67358L57.7756 8.95492L57.6951 9.22994L57.6444 9.51398L57.5683 9.79531L57.5131 10.0785L57.4542 10.3598L57.3773 10.6357L57.2867 10.9062L57.169 11.1722L57.131 11.459L57.083 11.7439L56.9871 12.0144L56.9183 12.2931L56.8277 12.5636L56.7299 12.8341L56.7118 13.1262L56.5724 13.3923L56.5353 13.6799L56.4593 13.9567L56.4013 14.239L56.2728 14.5023L56.1822 14.7728L56.1234 15.055L56.0989 15.3454L55.9695 15.6087L55.9179 15.8918L55.8518 16.1722L55.7875 16.4527L55.6671 16.7205L55.6155 17.0045L55.5584 17.2876L55.5077 17.5717L55.3864 17.8377L55.3366 18.1244L55.2905 18.4121L55.1999 18.6889L55.1556 18.9775L55.0179 19.2426L54.9627 19.5275L54.8812 19.807L54.8215 20.0911L54.7309 20.3679L54.6712 20.6519L54.6549 20.9468L54.5879 21.229L54.52 21.5122L54.4159 21.7827L54.3625 22.0685L54.3081 22.3544L54.2185 22.6357L54.1877 22.927L54.1216 23.2101L54.003 23.4806L53.9596 23.7692L53.8754 24.0478L53.8519 24.3409L53.7758 24.6213L53.7224 24.9071L53.6853 25.1966L53.5848 25.4725L53.5422 25.7611L53.4951 26.0478L53.4137 26.3282L53.3458 26.6123L53.3358 26.9071L53.2362 27.1776L53.1891 27.4572L53.2054 27.7484L53.162 28.0289L53.1049 28.3066L53.0551 28.5861L52.9836 28.8629L52.951 29.1461L52.9456 29.4319L52.9012 29.7133L52.827 29.991L52.8578 30.2813L52.8279 30.5627L52.7917 30.8458L52.7844 31.1308L52.7165 31.4121L52.7048 31.6997L52.7446 31.963L52.6722 32.2227L52.7283 32.7484L52.7337 33.0117L52.7102 33.3102L52.7781 33.6033L52.8542 34.193L52.8931 34.4896L52.9601 34.6979L52.9863 34.9198L53.057 35.1425L53.1792 35.3769L53.3394 35.615L53.4689 35.8675L53.65 36.1686L53.8953 36.4193L54.1054 36.5852L54.3009 36.7719L54.5399 36.8972L54.9365 37.0622L55.1664 37.1623L55.6825 37.284L55.9631 37.2687L56.242 37.2561L56.519 37.2173L56.7906 37.1353L57.055 37.0451L57.2913 36.9234L57.5113 36.7728L57.7258 36.6204L57.9712 36.5113L58.2718 36.2101L58.5841 35.9739L58.748 35.743L58.9689 35.569L59.1065 35.3201L59.3029 35.1235L59.4632 34.8981L59.6343 34.679L59.8154 34.468L59.9829 34.2453L60.1413 34.0153L60.2671 33.7656L60.4527 33.5546L60.6021 33.321L60.7397 33.0794L60.8755 32.8386L61.0285 32.5843L61.177 32.3264L61.3581 32.0893L61.4848 31.8188L61.6233 31.5555L61.8216 31.3264L61.9574 31.0622L62.048 30.7737L62.2136 30.5266L62.3866 30.2822L62.4771 29.9973L62.6437 29.7502L62.7949 29.4941L62.9271 29.229L63.023 28.9468L63.1914 28.6997L63.2819 28.422L63.4458 28.1776L63.5689 27.9143L63.7192 27.6637L63.7971 27.3778L63.922 27.1154L64.0759 26.8666L64.1665 26.587L64.2896 26.3237L64.4616 26.083L64.5449 25.8007L64.7015 25.5528L64.7803 25.2687L64.9387 25.0207L65.0827 24.7638L65.1732 24.4851L65.2936 24.2209L65.3968 23.9504L65.5507 23.7006L65.673 23.4364L65.749 23.1524L65.9156 22.908L66.0197 22.6375L66.1311 22.367L66.2216 22.0911L66.3366 21.8206L66.476 21.5636L66.5665 21.2877L66.6507 21.0081L66.7639 20.7376L66.9251 20.4887L67.0265 20.2182L67.1261 19.9585L67.1867 19.688L67.2953 19.4328L67.4031 19.1776L67.5488 18.9369L67.6204 18.6664L67.7109 18.4031L67.8512 18.1235L67.7806 18.4373L67.7381 18.7214L67.7218 19.009L67.6312 19.578L67.6004 19.8675L67.5742 20.1578L67.538 20.4473L67.4791 20.7331L67.4692 21.0262L67.4293 21.3147L67.3388 21.5951L67.2935 21.8837L67.3035 22.1794L67.2039 22.459L67.193 22.752L67.1405 23.0397L67.069 23.3237L67.031 23.6123L66.9884 23.9017L66.9269 24.1867L66.8898 24.4761L66.8083 24.7583L66.7449 25.0424V25.34L66.6381 25.6159L66.6091 25.9071L66.5665 26.1966L66.4878 26.4779L66.3972 26.7565L66.3293 27.0397L66.3221 27.3363L66.2216 27.6123L66.1854 27.9026L66.0822 28.1731L65.988 28.4364L65.9382 28.7069L65.8893 28.9775L65.8305 29.248L65.7164 29.5005L65.6368 29.7656L65.5915 30.0361L65.5109 30.2985L65.3896 30.5537L65.3326 30.8242L65.2918 31.101L65.2121 31.3661L65.1216 31.6312L65.0139 31.8909L64.9759 32.1704L64.907 32.4409L64.8111 32.7106L64.7414 32.9811L64.6852 33.2561L64.5947 33.5203L64.5159 33.7908L64.4462 34.0613L64.4227 34.3454L64.3204 34.6096L64.2498 34.8801L64.1493 35.1506L64.133 35.44L64.0488 35.7106L63.9899 35.9973L63.9066 36.2777L63.8342 36.5798L63.7953 36.7412L63.8224 37L63.798 37.2705L63.8469 37.541L63.9981 37.7728L64.1321 38.0189L64.3801 38.1497L64.5865 38.33L64.8582 38.3679L65.1171 38.477L65.4294 38.45L65.701 38.3075L65.9871 38.1957L66.2026 37.9766L66.3837 37.7295L66.5285 37.459L66.5611 37.1524L66.5693 37.1461L66.5928 37.1001L66.6019 36.9937L66.5765 36.743L66.6317 36.486L66.6553 36.2254L66.7132 35.9621L66.7884 35.7006L66.8336 35.4355V35.165L66.8707 34.8945L66.9613 34.633L67.0274 34.3625V34.0848L67.1107 33.8233L67.1342 33.5528L67.1786 33.2822L67.2953 33.0262L67.3216 32.7502L67.3533 32.4797L67.4574 32.2218L67.5307 31.9576L67.5398 31.6781L67.6077 31.4076L67.6711 31.1371L67.7227 30.8666L67.7589 30.596L67.8186 30.3255L67.93 30.0676L67.9925 29.7971L68.0042 29.5113L68.1074 29.2462L68.1545 28.9694L68.1862 28.6862L68.2604 28.4058L68.2867 28.1154L68.3962 27.8449L68.4189 27.5546L68.5094 27.2759L68.5402 26.9874L68.5565 26.6961L68.6597 26.4193L68.6425 26.1235L68.7095 25.8413L68.7385 25.5528L68.7919 25.2687L68.877 24.9883L68.896 24.6988L68.9594 24.4157L69.0065 24.1299L68.9784 23.8341L69.0689 23.5546L69.059 23.2624L69.1069 22.9766L69.1232 22.6871L69.1767 22.4031L69.2237 22.1172L69.2726 21.8323L69.2934 21.5446L69.3496 21.2597L69.3867 20.9739L69.4111 20.6862L69.3994 20.3941L69.5026 20.1145L69.5261 19.8269V19.5356L69.5497 19.2471L69.6103 18.963L69.6665 18.6781L69.6384 18.3841L69.6846 18.0983L69.7615 17.8161L69.7253 17.5212L69.8249 17.2408L69.8575 16.954L69.8167 16.6592L69.8575 16.3724L69.8865 16.0848L69.9534 15.8007L69.939 15.5086L69.9797 15.2227L70.006 14.9342L70.0422 14.6474L70.1092 14.3634L70.1255 14.0748L70.1499 13.7863V13.4959L70.2088 13.2119L70.235 12.9234L70.2178 12.6321L70.2658 12.3463L70.3337 12.0496V11.7592L70.3726 11.4725L70.4224 11.1894L70.4586 10.9089L70.5492 10.6447L70.6777 10.3913L70.7556 10.1208L70.8344 9.85032L70.9439 9.59063L71.0082 9.3156L71.0815 9.02345L71.1902 8.74121L71.258 8.44725L71.3115 8.14969L71.3776 7.85753L71.4898 7.5762L71.5804 7.28765L71.6148 6.98467L71.7325 6.66456L71.7859 6.33003L71.8076 5.90713L71.8366 5.61046L71.8755 5.3156L71.8809 5.01804L71.8538 4.422L71.8818 4.11813L71.8474 3.81244L71.8357 3.50676L71.8728 3.20559ZM55.5512 33.5302L55.591 33.5564L55.5458 33.523L55.5512 33.5302Z" fill="currentColor"></path><path d="M78.834 12.5545L78.7136 12.6934L78.5325 12.9639L78.375 13.2461L78.2193 13.5275L78.0382 13.798L77.9395 14.0685L77.8091 14.3255L77.6951 14.5897L77.5765 14.8449L77.4579 15.1154L77.3673 15.3904L77.2587 15.6546L77.1473 15.917L77.0197 16.1641L76.9291 16.4265L76.8549 16.697L76.7309 16.9459L76.6403 17.2064L76.548 17.4598L76.4728 17.7258L76.3823 17.9855L76.2764 18.2371L76.1859 18.4932L76.108 18.7538L75.9948 18.9927L75.9369 19.2633L75.8463 19.5193L75.7486 19.7745L75.6436 20.0279L75.5738 20.3147L75.448 20.5852L75.352 20.8629L75.247 21.1334L75.0659 21.6925L74.951 21.9684V21.6826L74.9374 21.3958L74.9618 21.1082L74.9573 20.8205V20.247L74.9356 19.9594L74.9482 19.6735L74.922 19.3868L74.9365 19.1L74.9537 18.8124L74.9446 18.5248L74.9265 18.238L74.9419 17.9495L74.912 17.6618V17.3742L74.9365 17.0874V16.7989L74.9084 16.5094L74.9156 16.22L74.9265 15.9296V15.7087L74.9129 15.5527L74.8088 15.2515L74.6929 15.0189L74.4901 14.8286L74.2457 14.6979L73.9813 14.6239L73.7224 14.6312L73.478 14.7213L73.2471 14.8295L73.066 14.972L72.9846 15.0937L72.9438 15.1514L72.9266 15.1956L72.8098 15.3516L72.741 15.568L72.6333 15.7682L72.5708 16.0324L72.4721 16.2831L72.3816 16.5365L72.2557 16.8286L72.1444 17.1199L72.0538 17.4229L71.9443 17.7204L71.8619 18.0279L71.7542 18.293L71.6772 18.568L71.5804 18.8386L71.4953 19.1091L71.392 19.3796L71.3088 19.6501L71.1947 19.9125L71.1204 20.1902L70.8488 21.0018L70.7692 21.2723L70.665 21.5428L70.5962 21.8196L70.5057 22.0901L70.3907 22.3534L70.3301 22.6339L70.2341 22.9044L70.1436 23.1749L70.0431 23.4454L69.9806 23.7276L69.8674 23.9936L69.8041 24.2777L69.6846 24.5428L69.594 24.8133L69.5297 25.0955L69.4537 25.3733L69.3632 25.6438L69.2898 25.9233L69.1839 26.1938L69.1223 26.4779L69.0264 26.7484L68.9567 27.0324L68.9286 27.312L69.0345 27.5707L69.1875 27.8088L69.4374 27.954L69.7334 27.9648L70.0168 27.8936L70.2377 27.7042L70.3971 27.4589V27.4355L70.4985 27.1731L70.589 26.908L70.6741 26.6375L70.7646 26.367L70.8398 26.0964L70.9557 25.8395L71.039 25.5689L71.1485 25.3083L71.2436 25.0423L71.3631 24.7863L71.431 24.5157L71.5387 24.2606L71.6356 24.0036L71.7198 23.7412L71.8311 23.4869L71.9407 23.2344L72.043 22.9783L72.1498 22.724L72.2403 22.4616L72.3182 22.1911L72.445 21.9422L72.5292 21.6889V21.9711L72.4984 22.2633L72.4803 22.5554L72.5038 22.8494L72.4576 23.1406L72.4359 23.4328L72.4287 23.7258L72.416 24.0423L72.3825 24.3345L72.3897 24.6276L72.3589 24.9179L72.3662 25.211L72.3417 25.504L72.3372 25.7971L72.3046 26.0892V26.3868L72.292 26.6799L72.2802 26.9729V27.266L72.2639 27.5599L72.2186 28.1487L72.2069 28.4445L72.253 28.7231L72.3019 29L72.4359 29.2488L72.6115 29.4698L72.8207 29.6618L73.0733 29.7971L73.3802 29.8503L73.6862 29.8701L73.985 29.8043L74.2738 29.6997L74.5345 29.5311L74.7156 29.2804L74.8677 29.0153L74.8794 28.954L74.9528 28.6726L75.0433 28.3922L75.0777 28.101L75.1682 27.8223L75.2343 27.5383L75.2877 27.2515L75.3584 26.9693L75.4118 26.6817L75.5159 26.4111L75.5765 26.1262L75.6517 25.8449L75.7223 25.5626L75.7893 25.2795L75.9704 24.7258L76.0392 24.4463L76.1388 24.1758L76.2175 23.8999L76.3026 23.6294L76.4049 23.3588L76.4701 23.0784L76.5688 22.8079L76.6512 22.5329L76.768 22.2696L76.9491 21.7285L77.026 21.4517L77.1066 21.1758L77.2125 20.9053L77.3474 20.6501L77.4289 20.3543L77.5393 20.0703L77.6598 19.789L77.7793 19.5085L77.8698 19.2146L77.9911 18.935L78.1133 18.6555L78.2175 18.403L78.3207 18.1505L78.4429 17.9053L78.5732 17.6654L78.6719 17.4102L78.8014 17.1695L78.9109 16.9404V17.211L78.8711 17.4995V17.7908L78.8322 18.0802L78.8258 18.3706L78.8132 18.6618L78.7851 18.9513L78.7715 19.2416L78.7272 19.5302L78.7009 19.8196L78.6692 20.1082L78.6547 20.3985L78.6285 20.688L78.6068 20.9783L78.5687 21.2669L78.5398 21.5554L78.5162 21.8449L78.48 22.1334V22.4193L78.4239 22.697V22.9792L78.3904 23.2588L78.3614 23.5392L78.3415 23.8196L78.279 24.0964L78.2491 24.376L78.2337 24.6582L78.2102 24.9441L78.155 25.2209L78.1161 25.4995L78.1025 25.7817L78.0572 26.0595L78.0074 26.3372L77.9612 26.6149L77.9341 26.8945L77.8888 27.1722L77.8463 27.4625L77.8282 27.7565L77.7738 28.0459L77.7168 28.3354L77.6869 28.6294L77.6263 28.9179L77.619 29.2146L77.5511 29.5022L77.4805 29.789L77.457 30.0838L77.4017 30.3742L77.3284 30.6609L77.2714 30.9486L77.2351 31.2416L77.1446 31.523L77.0858 31.8088L77.1057 31.8395L77.0577 32.1433L77.0939 32.4499L77.1944 32.743L77.3528 33.0135L77.5765 33.2317L77.8399 33.3994L78.1333 33.5121L78.4049 33.5473L78.6765 33.4923L78.9481 33.4535L79.1916 33.3264L79.4053 33.1542L79.58 32.9459L79.695 32.7006L79.7855 32.4463L79.8806 32.1677L79.9068 31.8728L79.9693 31.587L80.0435 31.3038L80.0779 31.0126L80.1612 30.7294L80.1839 30.4364L80.2463 30.1505L80.2943 29.862L80.3523 29.5753L80.3984 29.2876L80.4392 28.9982L80.4817 28.7096L80.536 28.4229L80.5876 28.1361L80.6175 27.8458L80.6546 27.5563L80.6727 27.2687L80.7108 26.9828L80.7533 26.6988L80.8176 26.4165L80.8402 26.1289L80.8764 25.844L80.9308 25.2705L80.9597 24.9837L81.0123 24.7006L81.0584 24.4165L81.0856 24.1298L81.0937 23.8413L81.1517 23.5581L81.1815 23.2723L81.215 22.9864L81.2386 22.6997V22.4057L81.3029 22.1181L81.3246 21.8268V21.5329L81.3825 21.2443L81.3898 20.9522L81.4151 20.6609L81.4523 20.3706V20.0748L81.4867 19.7844L81.5238 19.4941L81.5473 19.2028L81.569 18.9116L81.5844 18.6194L81.6007 18.3282L81.6197 18.036L81.6342 17.7448L81.6822 17.4553V17.1623L81.6895 16.8701L81.7311 16.5798L81.7601 16.2885L81.7456 15.9954L81.7764 15.7042L81.7872 15.4129L81.8126 15.1217L81.8524 14.8313V14.5383L81.8805 14.2479L81.8705 13.9549L81.9058 13.6636L81.923 13.3579L81.6369 13.2921L81.3653 13.2019L81.0847 13.1388L80.8031 13.0712L80.5188 13.0162L80.2409 12.9386L79.9693 12.8539L79.6868 12.7899L79.4152 12.6817L79.1337 12.6104L78.834 12.5545ZM80.7751 14.256H80.7461L80.7515 14.2353L80.852 14.1767L80.7751 14.256Z" fill="currentColor"></path><path d="M147.888 23.2678L147.583 23.2993L147.276 23.3697L146.973 23.2669H146.669L146.365 23.2506L146.058 23.3092L145.751 23.3219L145.445 23.2642L145.138 23.256L144.85 23.3047L144.56 23.2344L144.274 23.3525L143.985 23.3462L143.697 23.3309L143.408 23.293L143.074 23.3706L143.152 23.045V22.7664L143.172 22.4887L143.143 22.211L143.109 21.9332L143.141 21.6555L143.152 21.3769L143.114 21.0991L143.195 20.8097L143.177 20.2308V19.9413L143.112 19.6528L143.154 19.3633L143.07 19.0748L143.115 18.7853L143.17 18.4941L143.141 18.1983L143.083 17.9035L143.129 17.6068L143.032 17.3128L143.024 17.018L143.096 16.7195V16.4238L142.999 16.1316L143.014 15.8358L143.04 15.5383L143.029 15.2416L143 14.9468L142.936 14.6537L143.008 14.3525L142.98 14.0568L142.895 13.7655L142.905 13.4661L142.836 13.1731L142.721 12.9116L142.615 12.6564L142.475 12.4102L142.232 12.2614L141.993 12.1217L141.706 12.0622L141.403 11.9594L141.116 12.0757L140.804 12.1163L140.615 12.3706L140.403 12.5734L140.259 12.8313L140.064 13.1289L140.045 13.3119L140.097 13.4021L140.063 13.5193L140.1 13.7754L140.004 14.0099L139.995 14.2696L139.92 14.5175L139.885 14.7745L139.777 15.0126L139.728 15.3065L139.575 15.5662L139.546 15.8665L139.469 16.1541L139.371 16.4346L139.28 16.7168L139.209 17.0063L139.061 17.2696L139.019 17.5707L138.914 17.8494L138.722 18.0937L138.698 18.4039L138.559 18.6681L138.422 18.9332L138.27 19.1911L138.231 19.4986L138.035 19.7367L137.983 20.0396L137.76 20.2642L137.621 20.5266L137.56 20.8259L137.47 21.0964L137.342 21.3471L137.251 21.6131L137.056 21.8295L136.984 22.1073L136.803 22.3309L136.695 22.5906L136.543 22.8277L136.474 23.1091L136.247 23.3047L136.092 23.5392L136.021 23.8205L135.855 24.0486L135.741 24.3192L135.436 24.3426L135.165 24.449L134.873 24.4923L134.602 24.5924L134.33 24.7033L134.058 24.8124L133.808 24.9729L133.512 25.0153L133.261 25.1677L132.977 25.2443L132.716 25.3724L132.421 25.4319L132.205 25.651L131.933 25.7574L131.68 25.8999L131.45 26.0802L131.186 26.1902L130.924 26.3074L130.679 26.4535L130.425 26.5861L130.216 26.7844L130.027 27.0081L129.743 27.0982L129.561 27.2714L129.574 27.0171L129.685 26.7466L129.75 26.4923L129.686 26.2128L129.841 25.9765L129.922 25.7258L129.96 25.4652V25.1659L130.087 24.8954V24.596L130.205 24.3255V24.0261L130.306 23.7484L130.347 23.4571L130.477 23.1866L130.506 22.8917L130.576 22.6077L130.643 22.3219L130.686 22.0297L130.766 21.7475L130.87 21.4715L130.972 21.1956L131.042 20.9107L131.026 20.6023L131.179 20.3399L131.237 20.0505L131.319 19.7673L131.443 19.4968L131.533 19.2155L131.518 18.9062L131.616 18.6275L131.662 18.3354L131.792 18.0649L131.924 17.7944L131.914 17.4851L132.02 17.2092L132.067 16.9161L132.198 16.6456L132.359 16.3868V16.0784L132.526 15.8223L132.617 15.541L132.659 15.2461L132.749 14.9657L132.782 14.6663L132.971 14.4183L133.02 14.1244L133.11 13.8449L133.186 13.5599L133.25 13.2696L133.378 12.9991L133.507 12.7285L133.559 12.4382L133.707 12.1821L133.792 11.9017L133.894 11.6312L134.049 11.3778L134.087 11.0775L134.229 10.8187L134.319 10.541L134.511 10.3074L134.532 10.2831L134.609 10.0207L134.579 9.73755L134.501 9.47696L134.447 9.22087L134.42 8.92601L134.183 8.7592L133.985 8.57434L133.761 8.41113L133.501 8.29932L133.216 8.35973L132.945 8.36605L132.683 8.43007L132.447 8.55991L132.251 8.74026L132.052 8.9206L131.871 9.13341L131.847 9.41384L131.75 9.70058L131.638 9.98552L131.667 10.3002L131.539 10.5789L131.522 10.8836L131.398 11.1614L131.375 11.4634L131.331 11.761L131.241 12.0477L131.2 12.3444L131.062 12.6149L130.981 12.9008L130.885 13.1821L130.841 13.4761L130.762 13.7619L130.701 14.0523L130.59 14.3291L130.505 14.6131L130.441 14.9026L130.339 15.1812L130.352 15.4914L130.185 15.7529V16.0604L130.095 16.3417L130.016 16.6266L129.966 16.9206L129.785 17.1767L129.71 17.4634L129.678 17.7619L129.655 18.0631L129.504 18.3282L129.408 18.6086L129.391 18.9116L129.272 19.2001L129.146 19.4706L129.037 19.7475L128.99 20.0279L128.892 20.2939L128.809 20.5644V20.8566L128.695 21.1181L128.575 21.3778L128.545 21.6627L128.422 21.9215L128.466 22.2281L128.331 22.4833L128.187 22.7376L128.199 23.0342L128.117 23.3047L127.984 23.5617L127.907 23.8322L127.887 24.146L127.599 23.9927H127.298L127.026 24.1244L126.746 24.1893L126.507 24.3507L126.222 24.522L125.913 24.6492L125.659 24.7817L125.393 24.8918L125.114 24.9693L124.836 25.0775L124.597 25.2912H124.277L123.999 25.4048L123.72 25.5193L123.44 25.6312L123.168 25.7908L122.875 25.8728L122.554 25.8656L122.296 26.0631L122.001 26.1388L121.694 26.1686L121.286 26.3264L121.43 26.0009L121.422 25.6961L121.545 25.4256L121.627 25.146L121.747 24.8755L121.832 24.5996L121.904 24.3201L121.986 24.0432L122.108 23.7799L122.224 23.5094L122.277 23.2236L122.352 22.945L122.378 22.6501L122.469 22.3751L122.574 22.1046L122.748 21.8566L122.797 21.5689L122.887 21.2984L122.957 21.0171L123.031 20.7376L123.111 20.4589L123.265 20.2055L123.401 19.9468L123.479 19.6681L123.506 19.3715L123.687 19.1253L123.777 18.8548L123.882 18.5843L123.958 18.3056V17.9991L124.163 17.7637L124.239 17.4851V17.1794L124.429 16.9377L124.465 16.6438L124.556 16.3733L124.689 16.1118L124.712 15.8133L124.836 15.5491L124.97 15.2894L125.152 14.7385L125.227 14.4553L125.305 14.1731L125.395 13.8981L125.469 13.6185L125.65 13.3733L125.679 13.0775L125.738 12.7926L125.899 12.541L126.024 12.2777L126.019 11.9702L126.152 11.7096L126.225 11.4283L126.345 11.1578L126.509 10.9062L126.554 10.6131L126.681 10.3715L126.696 10.0901L126.848 9.85838L126.972 9.61763L127.041 9.35523L127.181 9.12168L127.255 8.85928L127.356 8.55991L127.43 8.24612L127.574 7.96298L127.755 7.68165L127.874 7.36875L128.126 7.12529L128.161 7.03963L128.251 6.73846V6.42827L128.24 6.15775V5.8701L128.033 5.66091L127.926 5.39941L127.677 5.26415L127.447 5.12529L127.2 5.01348L126.929 4.95396L126.657 5.01799L126.386 5.05315L126.114 5.12799L125.891 5.30022L125.662 5.48056L125.546 5.74477L125.436 6.00717L125.452 6.2912L125.352 6.58426L125.387 6.89986L125.273 7.18751L125.148 7.48147L125.127 7.79887L125.069 8.10816L124.979 8.36244L124.932 8.63295L124.885 8.90347L124.76 9.14693L124.598 9.37777L124.592 9.6591L124.545 9.92962L124.454 10.2001L124.316 10.4571L124.262 10.7457L124.104 10.9972L124.054 11.2858L123.93 11.5536L123.861 11.8367L123.758 12.1073L123.641 12.3733L123.499 12.6312L123.44 12.9197L123.276 13.1704L123.169 13.4409L123.116 13.7294L123.026 14L122.964 14.2858L122.897 14.5698L122.799 14.8404L122.673 15.1027L122.506 15.3516L122.474 15.6483L122.426 15.9386L122.294 16.1983L122.211 16.4761L122.083 16.7385L121.951 16.9991V17.3056L121.77 17.5473L121.737 17.8449L121.64 18.1154L121.573 18.3994L121.386 18.642L121.27 18.9125L121.201 19.1965L121.189 19.4986L121.001 19.7421L120.941 20.0306L120.858 20.3119L120.778 20.5933L120.592 20.8431L120.531 21.1361L120.459 21.4256L120.398 21.7186L120.217 21.9702L120.157 22.2642L120.102 22.5608L119.97 22.8313L119.911 23.1433L119.738 22.8936L119.528 22.7655L119.289 22.6221L119.018 22.5635L118.741 22.5067L118.462 22.5536L118.232 22.7258L118.005 22.8557L117.807 23.0261L117.591 23.1965L117.478 23.4021L117.355 23.6041L117.168 23.7844L117.05 24.0225L116.879 24.2128L116.635 24.3336L116.482 24.5374L116.272 24.6853L116.115 24.9197L115.887 25.0757L115.678 25.256L115.476 25.4463L115.204 25.5302L114.981 25.6889L114.742 25.825L114.47 25.889L114.206 25.9522L113.958 26.0892L113.675 26.0351L113.404 26.0441L113.122 26.1343L112.834 26.0802L112.563 25.972L112.301 25.8485L112.074 25.6681L111.827 25.5248L111.563 25.3958L111.389 25.2335L111.299 25.0532L111.003 24.8431L110.85 24.5085L110.789 24.1478L110.741 23.8385L110.842 23.5338L110.877 23.2308L110.853 22.9125L111.042 22.642L111.083 22.3336L111.13 22.073L111.261 21.8106L111.312 22.1L111.501 22.2903L111.661 22.4851L111.842 22.6654L112.057 22.8458L112.329 22.9233L112.592 23.0477L112.88 23.0613L113.157 22.9828L113.397 22.8295L113.647 22.7213L113.9 22.5933L114.067 22.3679L114.112 22.2434L114.331 22.0459L114.48 21.7944L114.647 21.5545L114.874 21.367L115.074 21.1578L115.315 20.99L115.496 20.761L115.714 20.5716L115.932 20.3832L116.122 20.1839L116.339 20.0153L116.527 19.8142L116.7 19.5978L116.888 19.3967L117.153 19.2786L117.305 19.0396L117.552 18.9008L117.697 18.6546L117.952 18.5121L118.077 18.2416L118.306 18.0712L118.481 17.8476L118.677 17.6456L118.894 17.4598L119.087 17.2533L119.268 17.0315L119.392 16.77L119.604 16.5897L119.753 16.3651L119.877 16.1262L119.992 15.8818L120.115 15.6438L120.236 15.367L120.399 15.1154L120.451 14.8133L120.508 14.5157L120.667 14.2326L120.673 13.9711L120.575 13.7141L120.607 13.4571L120.624 13.1866L120.437 12.8809L120.309 12.5004L120.187 12.2921L120.021 12.1172L119.776 12.0162L119.516 11.7835L119.253 11.7565L119.086 11.6546L118.765 11.6411L118.518 11.6131L118.354 11.7385L118.074 11.8232L117.834 11.8602L117.628 12.027L117.408 12.1505L117.136 12.2046L116.945 12.4301L116.673 12.5464L116.501 12.7871L116.239 12.9188L116.005 13.0865L115.839 13.3255L115.634 13.5238L115.453 13.7484L115.206 13.9062L114.992 14.1244L114.844 14.4012L114.573 14.5644L114.391 14.807L114.194 15.0405L114.022 15.2939L113.819 15.5193L113.582 15.7141L113.407 15.9612L113.245 16.22L113.04 16.44L112.768 16.6014L112.58 16.8367L112.391 17.0703L112.256 17.3507L112.055 17.5743L111.852 17.8016L111.596 17.9819L111.448 18.2524L111.277 18.5031L111.096 18.7484L110.836 18.9287L110.646 19.1668L110.496 19.4373L110.323 19.6582L110.154 19.8827L110.016 20.1271L109.888 20.3787L109.752 20.6239L109.59 20.8539L109.507 21.1244L109.388 21.3769L109.193 21.5969L109.081 21.8566L109.07 22.1541L108.889 22.3904L108.87 22.6789L108.796 22.9495L108.705 23.22L108.686 23.5031L108.678 23.7853L108.654 24.0685L108.692 24.3498L108.7 24.3751L108.46 24.22L108.158 24.1686L107.95 23.9504L107.678 23.853L107.412 23.7385L107.177 23.568L106.95 23.3832L106.702 23.2362L106.4 23.1848L106.176 22.9927L105.896 22.9026L105.671 22.7105L105.447 22.5175L105.175 22.4057L104.903 22.2993L104.632 22.1812L104.413 21.9792L104.164 21.8304L103.884 21.7339L103.637 21.5798L103.427 21.3624L103.171 21.2723L103.401 21.1163L103.673 21.0009L103.956 20.9026L104.252 20.8367L104.498 20.6564L104.769 20.5293L105.061 20.4553L105.333 20.3327L105.594 20.1875L105.883 20.1037L106.155 20.0036L106.42 19.889L106.653 19.6988L106.94 19.6348L107.204 19.5202L107.49 19.449L107.709 19.2398L107.981 19.1352L108.233 18.9945L108.505 18.8881L108.786 18.752L109.064 18.6086L109.264 18.3615L109.558 18.2389L109.829 18.0775L110.031 17.8151L110.297 17.6167L110.387 17.2894L110.605 17.0243L110.589 16.6194L110.693 16.2813L110.603 15.9513L110.402 15.7466L110.327 15.4806L110.135 15.2912L109.954 15.0964L109.773 14.8665L109.52 14.7213L109.291 14.5455L109.044 14.3471L108.773 14.1956L108.453 14.1334L108.188 13.9693L107.896 13.8629L107.635 13.7231L107.38 13.5626L107.103 13.458L106.799 13.4319L106.512 13.3597L106.252 13.2073L105.98 13.0955H105.673L105.401 12.9639L105.104 12.935L104.816 12.88L104.558 12.7042L104.259 12.6916L103.963 12.6717L103.691 12.5293L103.41 12.4391L103.105 12.4652L102.82 12.3922L102.534 12.3291L102.244 12.2903L101.948 12.2813L101.66 12.2353L101.388 12.1027L101.098 12.0568L100.796 12.1055L100.515 11.9927L100.222 11.9765L99.9249 11.9882L99.6361 11.9269L99.3392 11.9495V11.8512L99.0793 11.9044L98.7951 11.8926L98.5497 12.0306L98.3578 12.2281L98.0952 12.3525L98.0364 12.6402L97.8997 12.8701L97.8743 13.1352L97.8571 13.4003L97.8372 13.6825L97.9803 13.9233L98.1007 14.1749L98.2917 14.3832L98.5832 14.4373L98.7969 14.6275L99.0793 14.5987L99.3455 14.6176L99.5791 14.5933L99.5927 14.9224L99.6035 15.2182L99.6099 15.5139L99.6624 15.8052L99.6533 16.1027L99.676 16.3967L99.7176 16.6889L99.8235 16.9765L99.7276 17.2804L99.7692 17.5734L99.8598 17.862L99.9005 18.155L99.8742 18.4526L99.8552 18.7502L99.982 19.036V19.3327L99.924 19.6321L100.06 19.9332L99.9286 19.8656H99.905L99.9358 19.9855L99.6823 20.0712L99.4623 20.2236L99.2477 20.3661L99.0848 20.1208L98.9807 19.8331L98.6946 19.2921L98.5787 18.9981L98.3759 18.7628L98.1794 18.55L97.9404 18.3823L97.7594 18.1505L97.533 17.9702L97.2551 17.8638L97.036 17.678L96.8205 17.477L96.5398 17.3868L96.2864 17.2506L96.0455 17.1082L95.754 17.0964L95.4987 16.9945L95.2561 16.8422L94.9845 16.7844L94.7201 16.7385L94.9401 16.66L95.1094 16.4887L95.2905 16.2858L95.4996 16.0982L95.6182 15.8413L95.6662 15.5653L95.6834 15.2948L95.7241 14.9954L95.6635 14.6925L95.4598 14.4598L95.3303 14.1794L95.0931 13.9936L94.8378 13.88L94.6069 13.7312L94.3752 13.578L94.1171 13.4878L93.8455 13.4355L93.5739 13.3877L93.3295 13.2759L93.0579 13.266L92.7863 13.2119L92.5147 13.1046L92.2485 13.0144L91.9688 12.9891L91.6872 12.9774L91.4237 12.8719L91.1521 12.789L90.8651 12.8097L90.5935 12.7475L90.3219 12.614L90.0322 12.5743L89.738 12.5608L89.4465 12.5311L89.1685 12.4319L88.8734 12.4265L88.6018 12.3219L88.322 12.2317L88.0305 12.2082L87.7344 12.2001L87.4556 12.11L87.1641 12.0757L86.8925 11.9486L86.6136 11.8647L86.3112 11.8692L86.0505 11.715L85.7499 11.7033L85.4865 11.6348L85.2149 11.6483L84.936 11.6816L84.6961 11.8268L84.4815 11.9945L84.2226 12.1361L84.0741 12.3832L83.989 12.6537L84.0117 12.9386L83.9628 13.2146L84.0008 13.5202L84.1945 13.7628L84.3584 14.0126L84.5766 14.2227L84.8355 14.3507L84.8636 14.6212L84.8111 14.9008L84.7359 15.1767L84.7812 15.4688L84.6961 15.7439L84.6056 16.0144L84.6436 16.3074L84.4888 16.578L84.5476 16.8863L84.496 17.1767L84.4209 17.4625L84.362 17.7511L84.2181 18.0216L84.2018 18.3183L84.0977 18.5969L84.0841 18.8945L84.018 19.1812L83.9809 19.4743L83.941 19.7664L83.8261 20.0369L83.7138 20.3074L83.6468 20.5933L83.5762 20.8773L83.5282 21.1686L83.4494 21.4517L83.2955 21.7105L83.2186 21.9936L83.128 22.2822L82.9895 22.5527L82.918 22.8485L82.7532 23.1046L82.6772 23.4021L82.4961 23.6456L82.4056 23.9422L82.201 24.1704L82.0063 24.4021L81.9158 24.7123L81.6994 24.9161L81.5908 25.1866L81.617 25.4833L81.6261 25.7637L81.6596 26.0496L81.7501 26.3318L81.9384 26.559L82.1503 26.7619L82.4219 26.8692L82.6835 26.981L82.9551 27.1181L83.2539 27.0748L83.5201 26.9783L83.8161 26.944L84.0298 26.7448L84.2298 26.5428L84.3611 26.2921L84.4335 26.0216L84.5531 25.7899L84.7694 25.9702L84.9641 26.2101L85.4928 26.5139L85.7644 26.6501L86.036 26.7826L86.2895 26.9431L86.5403 27.1136L86.7947 27.2822L87.1043 27.3291L87.3415 27.5491L87.6521 27.5626L87.9237 27.6961L88.1998 27.8088L88.514 27.7808L88.7801 27.9404L89.0861 27.9251L89.3704 28.0153L89.6683 28.0198L89.9489 28.165L90.2486 28.1514L90.5455 28.1623L90.8398 28.2272L91.1376 28.1758H91.4337L91.7315 28.22L92.0303 28.201L92.3218 28.0928L92.6233 28.1145L92.923 28.1046L93.2245 28.0991L93.5042 27.9639L93.8148 27.9918L94.1072 27.9224L94.3788 27.7881L94.6594 27.6862L94.9473 27.6104L95.2488 27.5653L95.5096 27.412L95.7938 27.3174L96.0473 27.1523L96.3189 27.0225L96.6231 26.9576L96.8857 26.8115L97.1075 26.6014L97.3556 26.4355L97.5774 26.2353L97.7883 26.0252L98.078 25.8963L98.2446 25.6501L98.4022 25.4021L98.5886 25.1803L98.7362 24.9314L98.911 24.7006L99.0413 24.4418L99.2396 24.2128L99.3491 23.9422L99.3944 23.6492L99.5003 23.348L99.5809 23.0369L99.5049 22.7105L99.6126 22.4057L99.6352 22.3832L99.8761 22.6014L100.16 22.7466L100.125 23.0243L100.249 23.2948L100.199 23.5734L100.264 23.844L100.289 24.119L100.276 24.3949L100.304 24.6699L100.214 24.9495L100.35 25.2434L100.259 25.5473L100.328 25.8431L100.384 26.1406L100.345 26.4418V26.7403L100.392 27.0423L100.227 27.6266L100.243 27.9314L100.125 28.2101L100.062 28.5022L100.1 28.5266L99.9539 28.7745L99.963 29.0568L100.082 29.3138L100.155 29.5689L100.285 29.8223L100.41 30.1009L100.698 30.211L100.924 30.4093L101.23 30.3895L101.509 30.4481L101.793 30.4093H102.1L102.334 30.2182L102.539 30.0117L102.682 29.7646L102.852 29.5338L102.967 29.2633L102.957 28.9711V28.678L102.859 28.4012L102.693 28.1424V27.8268L102.564 27.559L102.519 27.2624L102.473 26.9657L102.371 26.6735L102.36 26.3724L102.388 26.0694L102.339 25.7709L102.35 25.4706V25.1704L102.365 24.8701L102.281 24.5789L102.38 24.2822L102.32 23.9918L102.574 24.119L102.803 24.2939L103.066 24.4084L103.332 24.5184L103.554 24.6988L103.799 24.8422L104.023 25.0225L104.295 25.1082L104.511 25.2975L104.77 25.4111L105.046 25.5013L105.304 25.6194L105.526 25.7998L105.745 25.9801L106.017 26.0784L106.28 26.1875L106.487 26.3958L106.786 26.4445L106.981 26.6726L107.273 26.7321L107.463 26.9702L107.769 27.0063L107.979 27.2119L108.27 27.2777L108.458 27.523L108.717 27.6591L109.008 27.7385L109.482 28.0874L109.763 28.1839L110.035 28.3074L110.251 28.5157L110.516 28.642L110.787 28.7655L111.021 28.9459L111.298 29.0523L111.503 29.2741L111.78 29.3832L112.018 29.5545L112.228 29.7637L112.479 29.9107L112.722 30.0685L112.949 30.2344L113.2 30.3679L113.406 30.5635L113.601 30.7709L113.8 30.9675L114.006 31.156L114.24 31.3156L114.411 31.5392L114.632 31.7367L114.803 31.9783L114.984 32.2101L115.141 32.4643L115.176 32.7637L115.235 33.0468L115.369 33.1136L115.279 33.2155L115.391 33.4707L115.534 33.7087L115.728 33.9053L115.935 34.091L116.207 34.1632L116.471 34.2173L116.743 34.2705L116.999 34.1659L117.27 34.1226L117.513 33.9954L117.739 33.8295L117.89 33.596L117.96 33.3255L118.088 33.0775L118.071 32.8007L118.076 32.5202L117.904 32.2669L117.835 31.9891L117.738 31.724L117.716 31.4274L117.529 31.1992L117.409 30.945L117.304 30.6907L117.182 30.4445L116.949 30.2732L116.807 30.0595L116.716 29.7998L116.506 29.633L116.287 29.4526L116.106 29.2398L115.866 29.0892L115.692 28.8674L115.455 28.7159L115.256 28.522L115.027 28.3417L115.357 28.1992L115.719 28.1785L115.963 28.0423L116.181 27.862L116.467 27.816L116.715 27.6925L116.929 27.5121L117.15 27.3453L117.382 27.1974L117.643 27.0865L117.835 26.8836L118.016 26.6717L118.288 26.523L118.485 26.2903L118.683 26.0622L118.964 25.9323L118.89 25.9738L118.76 26.2813L118.697 26.6104L118.662 26.9459L118.609 27.2272L118.5 27.394L118.48 27.4517L118.46 27.4833L118.516 27.5464L118.496 27.6627L118.527 27.7303L118.496 28.0342L118.677 28.2849L118.815 28.4571L118.899 28.6844L119.111 28.7745L119.225 28.7835L119.264 28.8584L119.329 28.908L119.489 28.9377L119.644 28.9008L119.72 28.9062L119.863 29.018L120.254 28.9792L120.535 29.0162L120.811 28.9765L121.064 28.8232L121.346 28.8431L121.67 28.7529L121.99 28.6456L122.312 28.5689L122.592 28.5365L122.872 28.4986L123.143 28.4373L123.393 28.2894L123.691 28.3183L123.963 28.2425L124.215 28.1091L124.496 28.064L124.768 27.9873L125.039 27.9224L125.275 27.7349L125.546 27.6447L125.818 27.5635L126.095 27.4959L126.33 27.3976L126.561 27.284L126.849 27.311L127.056 27.1551L126.94 27.5157L126.953 27.8043L126.772 28.0441L126.789 28.3336L126.707 28.5978L126.655 28.8728L126.603 29.2335L126.475 29.578L126.441 29.8349L126.506 30.1055L126.447 30.3606L126.438 30.3778L126.448 30.669L126.567 30.9395L126.602 31.2606L126.856 31.4508L127.11 31.614L127.376 31.7637L127.678 31.8322L127.979 31.7592L128.301 31.7646L128.538 31.5518L128.789 31.3985L128.977 31.1632L129.224 31.0045L129.466 30.8386L129.728 30.6907L129.933 30.4797L130.142 30.275L130.311 30.0279L130.575 29.8836L130.72 29.6131L130.967 29.4661L131.148 29.2524L131.397 29.1109L131.598 28.9161L131.773 28.6898L131.999 28.5229L132.27 28.4147L132.466 28.2092L132.697 28.0523L132.839 27.9269L132.724 28.1713L132.653 28.4661L132.612 28.7718L132.762 29.0486L132.841 29.3345L133.022 29.5662L133.207 29.8079L133.466 29.9224L133.718 30.0541L134.002 30.0459H134.279L134.525 29.9098L134.819 29.8899L135.012 29.6798L135.202 29.4815L135.339 29.2777L135.486 29.0802L135.609 28.8683L135.741 28.5978L135.928 28.3507L136.028 28.0802L136.231 27.8647L136.386 27.6239L136.477 27.3534L136.608 27.0955L136.678 26.8115L136.859 26.5762L136.971 26.3128L137.089 26.0766L137.317 25.9486L137.577 25.9116L137.821 25.807L138.064 25.6952L138.335 25.7015L138.607 25.6789L138.838 25.5049L139.109 25.4986L139.363 25.4084L139.62 25.3453H139.891L140.21 25.2407L140.547 25.2326L140.968 25.1262V25.4526L140.977 25.734L141.006 26.0162L140.993 26.2975L140.915 26.5789L140.993 26.8611L140.917 27.1415L140.934 27.4238L140.983 27.7069L140.956 27.9882L140.866 28.2669L140.833 28.5482V28.8295L140.824 29.1145L140.905 29.403L140.884 29.688L140.793 29.9684L140.884 30.2597L140.856 30.5437L140.79 30.8259L140.735 31.1082L140.71 31.3922V31.678L140.675 31.9612L140.687 32.2497V32.5365L140.568 32.807L140.627 33.101L140.478 33.3715L140.534 33.6672L140.458 33.944H140.393L140.419 34.229L140.453 34.5058L140.628 34.7285L140.719 34.9837L140.912 35.1767L141.127 35.3417L141.392 35.4075L141.645 35.4806H141.91L142.181 35.4914L142.462 35.4472L142.658 35.2398L142.867 35.0676L143.02 34.844L143.119 34.5942L143.177 34.3345L143.194 34.064L143.21 33.7736L143.203 33.4842L143.163 33.1974L143.102 32.9107L143.121 32.6203L143.098 32.3318L143.189 32.0405L143.142 31.7529L143.121 31.4643L143.163 31.1749L143.045 30.8881L143.166 30.5987L143.124 30.3111L143.071 30.0234L143.035 29.7349L143.064 29.4463L143.127 29.1578L143.097 28.8692L143.063 28.5852L143.039 28.3011V28.0171L143.15 27.733L143.048 27.4472L143.057 27.1632L143.134 26.8782L143.166 26.5933L143.158 26.3083L143.172 26.0243L143.093 25.7376L143.146 25.4517L143.084 25.1641L143.174 24.8936L143.419 24.7899L143.723 24.8376L144.014 24.752L144.32 24.8241L144.606 24.6762L144.904 24.6681L145.206 24.6916L145.504 24.6645L145.801 24.5888L146.104 24.6564L146.4 24.5906L146.702 24.6483L146.997 24.5257L147.297 24.5166L147.599 24.5067L147.9 24.4914L147.927 24.4797L148.231 24.4725L148.375 24.2019L148.465 23.9422L148.382 23.6618L148.177 23.4589L147.888 23.2678ZM118.917 14.3408L118.938 14.4472L118.86 14.394L118.917 14.3408ZM113.279 18.5834L113.408 18.3237L113.674 18.1794L113.777 17.8918L114.048 17.7538L114.17 17.4779L114.412 17.3201L114.634 17.1397L114.854 16.9594L115.048 16.752L115.297 16.6122L115.527 16.4481L115.74 16.2678L115.922 16.0324L116.193 15.926L116.424 15.7619L116.628 15.5581L116.905 15.5076L117.08 15.293L117.3 15.1487L117.58 15.11L117.761 14.9639L117.77 15.2344L117.652 15.4923L117.539 15.7502L117.423 16.0369L117.367 16.3489L117.224 16.6257L117.016 16.8665L116.894 17.1523L116.744 17.4229L116.581 17.688L116.337 17.8485L116.176 18.0712L116.03 18.311L115.781 18.4517L115.591 18.6483L115.41 18.8629L115.166 18.9954L114.933 19.1397L114.687 19.2705L114.453 19.4292L114.19 19.5248L113.951 19.6934L113.68 19.7835L113.408 19.8665L113.119 19.8503L112.834 19.8151L112.551 19.8593L112.239 19.9594L112.383 19.6636L112.633 19.495L112.716 19.2092L112.909 19.0027L113.072 18.7736L113.279 18.5834ZM87.4683 14.2768L87.786 14.2642L88.0685 14.3147L88.3501 14.3832L88.6371 14.311L88.915 14.394H89.1993L89.4854 14.3688L89.7679 14.3985L90.0512 14.4174L90.3165 14.5734L90.6062 14.5942L90.9086 14.5437L91.1802 14.6807L91.4672 14.7213L91.756 14.7655L92.0394 14.8295L92.3291 14.8683L92.6007 14.9648L92.9121 14.9963L93.1683 15.1983L93.4979 15.2524L93.162 15.3471L92.8641 15.4896L92.5364 15.5383L92.2847 15.7087L91.9932 15.7367L91.7008 15.7547L91.4237 15.8394L91.1521 15.944L90.8805 16.0468L90.5781 16.0108L90.2902 16.0459L90.0105 16.1749L89.7054 16.1442L89.4238 16.2642H89.1242L88.8344 16.339L88.5447 16.4102L88.2423 16.3868L87.9481 16.4382L87.6421 16.4003L87.3542 16.5275L87.0554 16.5599L86.7567 16.6023L86.5376 16.5545L86.6697 16.2948L86.7775 16.009L86.8554 15.7096L86.9911 15.4391L87.0998 15.1523L87.1903 14.8566L87.3243 14.5807L87.4683 14.2768ZM86.2587 19.3697L86.3438 19.2993L86.3973 19.2362V19.2975L86.2615 19.4021L86.218 19.3841L86.2587 19.3697ZM97.1528 23.0414L97.0496 23.3327L96.8133 23.5518L96.6639 23.807L96.5652 24.1145L96.2873 24.2687L96.118 24.5338L95.8464 24.6762L95.5956 24.844L95.3384 25.0045L95.0759 25.1569L94.7826 25.2272L94.511 25.3372L94.2738 25.5455L93.9795 25.605L93.6753 25.6212L93.3965 25.7213L93.1249 25.8827L92.8225 25.8908L92.5328 25.9594L92.2313 25.9459L91.9416 26.0279L91.6401 25.9765L91.3413 25.9945H91.0426L90.7429 26.0288L90.446 25.9765L90.1499 25.9413L89.8457 25.9675L89.546 25.9413L89.2636 25.8196L88.9476 25.8602L88.6588 25.77L88.3745 25.669L88.1192 25.4887L87.8105 25.495L87.5588 25.348L87.3126 25.1956L87.0346 25.1055L86.763 24.99L86.5548 24.7799L86.3393 24.5888L86.0677 24.4734L85.8613 24.2705L85.6377 24.0901L85.4729 23.8503L85.2303 23.678L85.281 23.6312L85.0836 23.4508L84.8292 23.376L84.5956 23.2633L84.6526 22.9927L84.7341 22.7159L84.7033 22.4202L84.8075 22.1424L84.8672 21.8557L84.8609 21.5509L84.9894 21.2804L85.0428 20.9909L85.1524 20.7204L85.1696 20.4193L85.2846 20.1487L85.4231 19.8836L85.4394 19.5834L85.6014 19.4382L85.5453 19.4165L85.5679 19.3742L85.9554 19.4806L86.227 19.4012L86.5041 19.3372L86.7893 19.3426L87.0781 19.3859L87.3497 19.2596H87.633L87.9191 19.2831L88.1989 19.2344L88.4814 19.2191L88.753 19.1343L89.0336 19.0964H89.3161L89.5958 19.0532L89.8774 19.0468L90.1725 19.137L90.4613 19.128L90.7493 19.0991L91.0372 19.0351L91.3278 19.0775L91.6175 19.0495L91.9063 19.1118L92.1987 18.9991L92.4875 19.0189H92.7781L93.0597 19.1343L93.3467 19.1514L93.6346 19.174L93.9062 19.2335L94.1778 19.3074L94.4729 19.2867L94.7545 19.3381L95.0261 19.4283L95.276 19.5716L95.524 19.7078L95.7422 19.8881L95.9849 20.0243L96.2221 20.174L96.4258 20.367L96.5661 20.6122L96.7915 20.8079L96.8468 21.0955L96.902 21.3733L97.0206 21.6303L97.0649 22.0234L97.1238 22.3958L97.1347 22.7168L97.1528 23.0414ZM109.035 16.5031L109.092 16.5437L109.035 16.5229V16.5031ZM102.21 19.6447L102.263 19.3354L102.22 19.0396L102.202 18.743L102.236 18.4463L102.227 18.1496L102.182 17.853L102.205 17.5563L102.199 17.2605L102.254 16.9639L102.208 16.6672L102.154 16.3697L102.273 16.0748L102.2 15.7772L102.28 15.4824L102.21 15.1839L102.261 14.8881L102.207 14.5419L102.558 14.5951L102.86 14.6591L103.172 14.6032L103.469 14.7087L103.778 14.7015L104.078 14.7754L104.386 14.7871L104.68 14.8773L104.983 14.8557L105.255 15.0063L105.554 15.0117L105.842 15.0712L106.139 15.0973L106.405 15.2479L106.691 15.3138L106.958 15.4454L107.261 15.4625L107.56 15.5527L107.839 15.6934L108.117 15.834L108.397 15.9684L108.631 16.137L108.825 16.3471L109.032 16.5356L109.097 16.5816L108.773 16.8349L108.518 17.0108L108.27 17.1911L108.032 17.3976L107.761 17.5473L107.478 17.6573L107.215 17.7998L106.943 17.926L106.708 18.1289L106.4 18.1812L106.128 18.3147L105.881 18.5022L105.586 18.5798L105.309 18.6997L105.037 18.7736L104.766 18.8404L104.538 19.0207L104.266 19.073L104.017 19.2001L103.74 19.2407L103.468 19.284L103.208 19.3742L102.948 19.4643L102.676 19.5067L102.442 19.5148L102.21 19.6447ZM140.294 23.4716L139.954 23.5617L139.608 23.6185L139.32 23.568L139.049 23.678L138.765 23.6654L138.498 23.7772L138.214 23.7691L138.057 23.7962L138.129 23.5419L138.281 23.3038L138.402 23.0523L138.452 22.77L138.577 22.522L138.75 22.2921L138.757 21.99L138.908 21.7493L139.056 21.5076L139.098 21.2182L139.297 20.9973L139.328 20.7024L139.485 20.4625L139.623 20.2155L139.7 19.9404L139.867 19.706L139.996 19.4544L140.047 19.1677L140.228 18.9422L140.259 18.6456L140.467 18.431L140.609 18.1857L140.647 17.9431L140.762 18.2461L140.718 18.6005L140.809 18.8809L140.745 19.1713L140.728 19.458L140.81 19.7394L140.832 20.0243L140.877 20.3083L140.857 20.5951L140.868 20.88L140.911 21.165L140.939 21.4499L140.836 21.7385L140.871 22.0234L140.913 22.3083V22.5942L140.946 22.8791L140.907 23.1659L140.937 23.4725L140.605 23.4833L140.294 23.4716Z" fill="currentColor"></path></svg>