<svg viewBox="0 0 136 89" fill="none" xmlns="http://www.w3.org/2000/svg"><g clip-path="url(#clip0)"><path d="M106.026 35.8608L105.651 35.7207L105.261 35.6312L104.871 35.5443L104.46 35.6143L104.07 35.5845L103.68 35.5624L103.282 35.5365L102.884 35.5702L102.494 35.6351L102.08 35.5469L101.689 35.6766L101.299 35.7389L100.934 35.9244L100.5 35.9114L100.133 36.1229L99.7342 36.2357L99.3442 36.3875L98.9724 36.5678L98.5668 36.6716L98.1937 36.8507L97.8752 37.1361L97.4995 37.3086L97.1367 37.5032L96.7766 37.703L96.449 37.9547L96.0499 38.0429L95.7652 38.314L95.4545 38.5423L95.1165 38.7291L94.7928 38.9393L94.4665 39.1871L94.7005 38.8212L94.7629 38.4139L94.9215 38.0442L94.9826 37.6381L95.1542 37.2697L95.3245 36.9013L95.5273 36.5471L95.6482 36.1579L95.7782 35.7752L95.8536 35.373L96.0733 35.0215L96.111 34.6037L96.3099 34.2457L96.4126 33.8565L96.6102 33.4985L96.7311 33.1093L96.8052 32.7032L96.9534 32.3231L97.1731 31.9689L97.2603 31.5707L97.402 31.1945L97.5749 30.8273L97.7049 30.4381L97.8427 30.058L98.0156 29.6922L98.0546 29.2771L98.2353 28.9112L98.3549 28.522L98.5499 28.1627L98.6526 27.7735L98.8333 27.4077L98.9204 27.0081L99.0777 26.6358L99.1414 26.2258L99.3936 25.8846L99.4768 25.4799L99.625 25.0998L99.755 24.7171L99.8954 24.3396L100.014 23.9504L100.128 23.5612L100.313 23.2005L100.413 22.8113L100.642 22.4637L100.817 22.0965L100.922 21.7073L101.093 21.2896L101.195 20.8446L101.422 20.4451L101.574 20.0183L101.752 19.6031L101.851 19.1595L102.042 18.7703L102.161 18.3551L102.143 18.2591L102.225 18.2669L102.381 17.9141L102.355 17.5106L102.436 17.1448L102.29 16.8049L102.068 16.4793L101.859 16.1394L101.535 15.9071L101.234 15.6399L100.844 15.5413L100.466 15.4323H100.076L99.6965 15.5296L99.3286 15.6516L98.9451 15.7813L98.7085 16.1108L98.4069 16.3781L98.2496 16.7478L98.1352 17.2187L97.9428 17.6611L97.6945 18.062L97.5112 18.4862L97.3929 18.8325L97.2629 19.1789L97.2355 19.5603L97.1055 19.9041L96.9014 20.2219L96.8728 20.6423L96.7272 21.0224L96.5413 21.3882L96.371 21.7579L96.2306 22.138L96.1201 22.5272L95.9732 22.9086L95.877 23.3082L95.7678 23.7039L95.5429 24.0516L95.5065 24.4628L95.2556 24.8014L95.2205 25.2165L95.0489 25.5824L94.8513 25.9391L94.7577 26.3283L94.6108 26.7045L94.5679 27.1171L94.3494 27.4946L94.2194 27.8838L94.0777 28.2613L93.9958 28.6608L93.8502 29.0358L93.7202 29.4249L93.5304 29.7882L93.3367 30.1514L93.2769 30.5666L92.8635 30.6392L92.4735 30.7261L92.0835 30.8169L91.687 30.8922L91.2865 30.9532L90.8809 30.9843L90.4805 31.0375L90.0905 31.127L89.7005 31.2373H89.2598L89.3339 30.8195L89.5302 30.4381L89.5757 30.0256L89.6472 29.6195L89.785 29.2304L89.7512 28.7971L89.9722 28.4195L90.019 28.0031L90.0515 27.5971L90.1009 27.1936L90.2205 26.8044L90.3765 26.4243L90.4311 26.0221L90.4792 25.6187L90.5403 25.2165L90.6287 24.8196L90.8328 24.4472L90.8094 24.0243L90.9043 23.6351L91.0733 23.2576L91.1955 22.8684L91.2735 22.4689L91.3762 22.0797L91.3997 21.5763L91.4828 21.4725L91.4165 21.4271L91.5167 21.4077L91.4062 21.3752L91.5362 21.2079L91.5206 20.7318L91.5661 20.257L91.2982 19.9703L91.0239 19.6005L90.6898 19.2607L90.279 18.9065L89.9124 18.66L89.6524 18.2501L89.3456 18.2254L88.9257 18.2708L88.5616 18.5069L87.7595 18.7404L87.3591 18.8637L87.3916 18.8546L87.064 19.1141L86.8846 19.4903L86.6142 19.7938L86.3724 20.1208L86.1254 20.4425L85.816 20.7149L85.5858 21.0509L85.2946 21.3376L85.1074 21.7073L84.8474 22.0187L84.6121 22.3495L84.3183 22.6349L84.0752 22.9592L83.7515 23.2187L83.5318 23.5625L83.3134 23.9063L83.0898 24.2474L82.805 24.538L82.5996 24.8935L82.3396 25.2061L82.0939 25.5292L81.7806 25.799L81.5063 26.1L81.3373 26.4814L81.0409 26.7655L80.8498 27.13L80.5157 27.3895L80.3129 27.745L80.0321 28.0407L79.828 28.3962L79.5211 28.6725L79.291 29.0072L79.0765 29.3549L78.7983 29.652L78.5578 29.9491L78.3264 30.2526L78.0872 30.5523L77.8753 30.8701L77.6296 31.1633L77.3852 31.4578L77.2071 31.8016L76.964 32.1091L76.6194 31.9793L76.2619 31.965L75.8836 31.8872L75.9408 31.4539L76.1345 31.0777L76.2255 30.6794L76.2931 30.2773L76.2697 29.8556L76.3997 29.4665L76.5193 29.0773L76.5856 28.6751L76.7351 28.2859L76.7637 27.8747L76.8937 27.4855L76.9445 27.0794L77.0602 26.6903L77.0979 26.2803L77.2448 25.8911L77.2019 25.4643L77.5919 24.2967L77.6491 23.8907L77.7401 23.4937L77.783 23.0851L77.8987 22.6959L78.0209 22.3067L78.0768 21.9019L78.1886 21.5128L78.2549 21.1093L78.3758 20.7201L78.394 20.3063L78.654 19.5279V19.1076L78.8087 18.7184L78.9595 18.3357L78.9257 17.9076L79.0739 17.5184L79.187 17.1681L79.5679 17.0073H79.9801L80.3961 17.0488L80.8043 16.993L81.1943 16.8425L81.609 16.8555L82.0172 16.7919L82.4215 16.7154L82.8401 16.7582L83.2432 16.679L83.6449 16.561L84.0674 16.6155L84.4782 16.5636L84.8903 16.526L85.2998 16.4598L85.7094 16.3871L86.1267 16.3962L86.5388 16.3534L86.947 16.2652L87.3656 16.2834L87.779 16.247L88.1781 16.0745L88.5928 16.0511L89.0037 15.9876L89.4236 16.0213L89.8435 16.0447L90.2426 15.8734L90.6573 15.8501L91.0759 15.8669L91.4946 15.8812L91.9041 15.8111L92.3175 15.7826L92.35 15.7126L92.7907 15.6853L93.1417 15.4129L93.3237 15.0237L93.5096 14.6345L93.4732 14.1999L93.3354 13.8289L93.0754 13.5357L92.7439 13.3255L92.3539 13.3035L91.9769 13.2153L91.5726 13.2918L91.1578 13.2788L90.7678 13.4202L90.3596 13.4695L89.9436 13.4475L89.5432 13.5603L89.1259 13.5188L88.7203 13.5928L88.3185 13.6966L87.9077 13.7147L87.4969 13.7355L87.0861 13.7485L86.6766 13.7835L86.2736 13.8704L85.8706 13.9729L85.452 13.9067L85.0528 14.0442L84.6368 14.004L84.2468 14.0507L83.8568 14.1286L83.4668 14.0883L83.0768 14.135L82.6984 14.2881L82.2993 14.2246L81.9093 14.2427L81.5271 14.3335L81.1371 14.3789L80.7471 14.4464L80.3571 14.5061L79.967 14.4905L80.049 14.0027L80.2323 13.6213L80.2687 13.1958L80.4637 12.817L80.5937 12.4213L80.6249 11.9958L80.8004 11.6066L80.881 11.1954L80.9499 10.7802L81.0656 10.3781L81.2593 10.0369L81.3503 9.66716L81.4179 9.29354L81.4283 8.90436L81.6233 8.55668L81.6311 8.14803L81.7065 7.75884L81.7871 7.36965L81.8898 6.98047L81.9379 6.58349L82.0575 6.25398L82.0484 5.95171L81.9509 5.79733L81.8612 5.53788L81.622 5.29139L81.349 5.04361L81.0604 4.80361L80.6314 4.79063L80.2518 5.00728L79.8761 5.16166L79.7318 5.45096L79.6173 5.53528L79.6355 5.68706L79.4964 5.82328L79.4171 6.08274L79.3547 6.57312L79.213 7.03885L79.044 7.38133L78.9725 7.75236L78.8997 8.12468L78.8347 8.4996L78.7255 8.86284L78.5188 9.23776L78.4083 9.63862L78.3641 10.0563L78.2653 10.4585L78.1457 10.8568L78.1249 11.281L77.9949 11.6767L77.9234 12.0905L77.7661 12.4797L77.7271 12.8689L77.5243 13.2166L77.4996 13.6057L77.3423 13.9651L77.3293 14.3543L77.2175 14.785L76.7845 14.8019L76.3672 14.7824L75.9564 14.8213L75.5469 14.8914L75.1348 14.9056L74.7292 15.0029L74.3067 14.916L73.8997 15.0146H73.4837L73.0807 15.1443H72.6634L72.2487 15.1703L71.8392 15.2468H71.4232L71.0045 15.2196L70.5924 15.2883L70.1816 15.3869L69.7617 15.3675L69.3483 15.3856L68.9401 15.4855L68.528 15.518L68.1145 15.5452L67.6959 15.4985L67.2838 15.5452L66.8691 15.5673L66.4635 15.7255L66.0371 15.6373L65.6276 15.767L65.205 15.7528L64.7851 15.7307L64.3691 15.8604H63.9479L63.5293 15.8034L63.1146 15.7307L62.6908 15.7385L62.2682 15.7035L61.8782 15.6217L61.4778 15.6542L61.1203 15.8189L60.7706 15.9863L60.4482 16.2081L60.1739 16.4987L59.9529 16.8399L59.9204 17.2473L59.7903 17.6364L59.9542 18.0256L59.9893 18.4278L60.2584 18.7327L60.4625 19.0725L60.7823 19.3086L61.1346 19.4916L61.5038 19.6654L61.9107 19.6991L62.3189 19.6563L62.6973 19.5071L63.0873 19.3631L63.4864 19.2399L63.8673 19.0466L64.2755 18.9454L64.6889 18.8715H65.114L65.521 18.7651L65.9422 18.7495L66.3465 18.6094L66.7547 18.5381L67.1642 18.4745L67.575 18.4213L67.9962 18.4628L68.4058 18.407L68.814 18.3266L69.2235 18.2552L69.6382 18.2124L70.0529 18.1735L70.4546 18.1048L70.8589 18.0464L71.2658 18.0269L71.6676 17.975L72.0797 17.988L72.4697 17.8453L72.8714 17.7778L73.2874 17.8168L73.6969 17.7973L74.0961 17.7L74.4939 17.5923H74.9047L75.3142 17.5625L75.725 17.5495L76.1215 17.4068L76.5401 17.3614L76.4517 17.7791L76.2463 18.1294L76.0981 18.4978L76.0487 18.8987L75.9304 19.2775L75.8342 19.6667L75.6886 20.0364L75.5001 20.3919L75.4351 20.8057L75.2739 21.1858L75.2024 21.5971L75.0373 21.9759L74.8709 22.3547L74.7877 22.7633L74.5407 23.1123L74.4432 23.5145L74.2859 23.8959L74.1819 24.2513L74.1143 24.6211L73.9023 24.9389L73.8256 25.3073L73.7073 25.6602L73.5318 26.0844L73.3329 26.4983L73.1899 26.9121L72.9949 27.3013L72.8311 27.6593L72.6868 28.0278L72.4918 28.3702L72.2877 28.7088L72.0862 29.0461L71.9783 29.4353L71.6949 29.7259L71.4687 30.0541L71.3139 30.4239L71.0305 30.708L70.8186 31.0375L70.5898 31.3579L70.3571 31.6758L70.1569 32.0182L69.9203 32.3348L69.6317 32.6098L69.4588 32.9782L69.1767 33.2584L68.8751 33.5179L68.5865 33.7916L68.3759 34.1367L68.1015 34.4247L67.77 34.6569L67.5308 34.9787L67.224 35.2316L66.9887 35.5624L66.6988 35.8336L66.3426 36.0334L66.0826 36.3317L65.7277 36.5276L65.4313 36.7871L65.1374 37.0556L64.8033 37.2723L64.4874 37.511L64.2274 37.8236L63.8374 37.9534L63.5891 38.2725L63.2329 38.4308L62.9495 38.7045L62.5725 38.8238L62.2682 39.069L61.9133 39.2208L61.561 39.3791L61.1957 39.5088L60.8889 39.7618L60.4846 39.8539L60.1154 40.0342L59.7253 40.0187L59.3769 40.1795L58.8907 40.1588L58.4136 40.0705L58.3694 40.0355L58.333 40.0264L58.2563 39.8967L58.1822 39.6891L58.151 39.4063L58.0587 39.0612L58.1692 38.7227L58.1211 38.3023L58.3213 37.9196L58.346 37.511L58.4266 37.1127L58.5709 36.7313L58.6736 36.3421L58.7438 35.9348L59.0038 35.6014L59.1338 35.2122L59.2755 34.823L59.4549 35.1668L59.6915 35.46L59.9984 35.6766L60.3741 35.8232L60.7368 36.0139L61.1437 36.0917L61.5493 36.0074L61.9497 35.9153L62.3033 35.7077L62.6713 35.5028L62.904 35.1538L62.9131 35.0876L63.0964 34.727L63.3278 34.3975L63.5878 34.0848L63.918 33.8319L64.0753 33.4427L64.347 33.1456L64.5693 32.8096L64.8449 32.5177L65.1309 32.2362L65.4325 31.9702L65.6926 31.6745L65.8603 31.3086L66.0839 30.9908L66.418 30.7638L66.574 30.3914L66.9068 30.1631L67.1226 29.8401L67.4099 29.5806L67.6543 29.2797L67.8285 28.9216L68.0963 28.6323L68.3394 28.3235L68.5683 28.0018L68.8673 27.7424L69.1429 27.4583L69.36 27.0833L69.6863 26.8096L69.9957 26.5177L70.1985 26.1376L70.4585 25.8016L70.6496 25.4604L70.8368 25.1192L71.1137 24.8092L71.1956 24.4304L71.2788 24.058L71.3048 23.6766L71.2554 23.2965L71.2814 22.8658L71.1111 22.4766L70.9135 22.1017L70.6821 21.7411L70.5339 21.5698L70.1686 21.2676L69.7552 21.1716L69.3444 21.1547L68.9375 21.0366L68.6008 21.1054L68.2615 21.169L67.9806 21.3765L67.6335 21.4168L67.3878 21.6568L67.0277 21.8877L66.6663 22.1173L66.3361 22.3897L66.0163 22.6738L65.6263 22.8801L65.378 23.2005L65.1608 23.543L64.8267 23.7791L64.6304 24.1372L64.3509 24.4226L64.0766 24.6989L63.7789 24.9584L63.5189 25.2542L63.3356 25.6096L63.06 25.8833L62.8117 26.1817L62.5269 26.4412L62.2981 26.7564L61.9601 26.9718L61.7001 27.2598L61.4895 27.588L61.3036 27.9344L61.0436 28.2172L60.7186 28.4494L60.5405 28.801L60.3104 29.1097L59.9971 29.3562L59.7852 29.6792L59.5901 30.0152L59.3132 30.2915L59.1949 30.6807L58.9102 30.9571L58.7139 31.2956L58.4539 31.5888L58.2264 31.908L58.0483 32.2582L57.8182 32.589L57.722 32.9782L57.462 33.2792L57.3684 33.6684L57.1409 34.0083L56.9849 34.3832L56.7781 34.7464L56.5701 35.1032L56.4648 35.5118L56.4921 35.0915L56.5701 34.6881L56.6442 34.2833L56.6598 33.8734V33.4621L56.7378 33.0587L56.8262 32.6552L56.7886 32.2401L56.8015 31.8288L56.8692 31.4241V31.0102L56.9081 30.6029L57.0382 30.2033L57.1201 29.7999L57.0772 29.3834L57.163 28.98V28.5674L57.1864 28.1588L57.2462 27.7527L57.3034 27.3454L57.3567 26.9393L57.3502 26.5255L57.4139 26.1207L57.4633 25.7134L57.5777 25.3138L57.6089 24.9039L57.6869 24.5004L57.6115 24.0801L57.6583 23.6779L57.8 23.2887L57.7376 22.8749L57.8754 22.4857L57.9586 22.0887L57.9846 21.684L57.9755 21.2766L57.9612 20.868L58.0691 20.4788L58.0873 20.0741L58.1094 19.6693L58.2836 19.2801V18.8741L58.3096 18.4706L58.3694 18.0697L58.4396 17.6715L58.4513 17.2654L58.4383 16.8568L58.5566 16.4676L58.5787 16.0628L58.5605 15.6542L58.6905 15.265L58.7646 14.8667L58.7958 14.4633L58.8049 14.0572L58.8114 13.6499L58.9414 13.2607V12.8546L58.931 12.446L59.0792 12.0568L59.0623 11.6481L59.1143 11.2473V10.8399L59.1533 10.4378L59.2586 10.0421L59.334 9.64381L59.2937 9.23257L59.3522 8.83171L59.4822 8.44252L59.4913 8.03646L59.5953 7.64728L59.5355 7.23344L59.65 6.84425L59.6187 6.43301L59.7072 6.03733L59.7696 5.63647L59.754 5.22782L59.8372 4.83085L59.9386 4.43518L59.9516 4.02912L59.9425 3.62177L60.0582 3.23258L60.0972 2.82912L60.118 2.42437L60.2402 2.03518L60.209 1.62394L60.1102 1.34243L59.9074 1.02978L59.4666 1.0181L59.0922 0.77032L58.6632 0.719726L58.2732 0.548482L57.8286 0.538105L57.4217 0.396699L57.0317 0.19043L56.6416 0.261781L56.4635 0.577023L56.2906 0.942861L56.1541 1.31907L56.0332 1.70048L55.9032 2.07929L55.8525 2.48275L55.7797 2.87842L55.5886 3.23518L55.5236 3.63215L55.4261 4.02134L55.2896 4.40274L55.1986 4.79193L55.0439 5.16296L55.001 5.56642L54.8957 5.9556L54.7865 6.34479L54.5408 6.68987L54.5187 7.09982L54.3406 7.46565L54.3172 7.8769L54.1469 8.24533L54.0169 8.62543L53.8946 9.01462L53.8777 9.42716L53.7633 9.81635L53.6151 10.1926L53.541 10.5921L53.3642 10.9606L53.2901 11.3614L53.1874 11.7506L53.0574 12.1398L52.9469 12.529L52.8013 12.9104L52.7467 13.3164L52.6362 13.7056L52.5062 14.0948L52.4113 14.4905L52.228 14.8421L52.098 15.2313L52.02 15.6308L51.9628 16.0369L51.7158 16.3884L51.6443 16.7906L51.5065 17.172L51.3765 17.5612L51.3453 17.975L51.149 18.3409L51.0905 18.7456L50.9474 19.127L50.8538 19.5227L50.6978 19.9002L50.7173 20.327L50.4846 20.6838L50.4612 21.0976L50.3312 21.4868L50.2259 21.876L50.0764 22.2561L50.0088 22.6583L49.8567 23.0319L49.8086 23.434L49.6786 23.8142L49.5915 24.2033L49.4693 24.5847L49.4433 24.9934L49.2691 25.3605L49.156 25.7497L49.0702 26.1389L49.0026 26.5359L48.8726 26.916L48.7712 27.3052L48.6685 27.6944L48.5541 28.0835L48.4527 28.4727L48.3227 28.9268L48.3981 28.4533L48.3123 28.0446L48.3825 27.6412L48.3279 27.2338L48.3578 26.8291L48.3955 26.4243V26.0183L48.4761 25.6148L48.3994 25.2074L48.4085 24.8014L48.4943 24.3979L48.4852 23.9919L48.5437 23.5884L48.4904 23.1811L48.5255 22.7763L48.5827 22.3729L48.6113 21.9681L48.5671 21.5608L48.6373 21.1573L48.5957 20.7499L48.6503 20.3465L48.701 19.943L48.727 19.5383L48.6568 19.1283L48.7465 18.7275L48.6841 18.3188L48.6932 17.9128L48.6815 17.5067L48.7491 17.1033V16.6972L48.8024 16.2937V15.8877L48.8401 15.4842L48.9571 15.0847L48.8804 14.6747L48.9909 14.2752L48.9766 14.2609L48.8089 13.6784L48.8973 13.5902L48.4813 13.4994L48.0912 13.3502L47.7012 13.1971L47.2774 13.1322L46.8874 12.9714L46.4974 12.8066L46.0866 12.6925L45.5952 12.9273L45.4028 13.1776L45.2064 13.4371L45.0101 13.799L44.9048 14.1973L44.7748 14.5865L44.6682 14.9835L44.4277 15.313L44.2431 15.6788L44.2015 16.1004L44.0377 16.4754L43.9012 16.8645L43.6607 17.2096L43.5619 17.6079L43.4592 18.0049L43.246 18.3603L43.2018 18.7781L43.0718 19.1672L42.83 19.5123L42.7442 19.9145L42.5297 20.2699L42.4776 20.6851L42.3411 21.0743L42.1227 21.4284L41.9745 21.8085L41.9264 22.2263L41.6976 22.5649L41.5676 22.954L41.4545 23.3432L41.2686 23.7104L41.2166 24.1255L41.0749 24.5108L40.9449 24.9L40.7746 25.2723L40.6446 25.6174L40.6849 25.2386L40.7317 24.8209L40.707 24.3979L40.7785 23.9828L40.746 23.5599L40.7876 23.1422L40.8656 22.7257L40.8448 22.3041L40.8721 21.8851L40.8409 21.4635L40.941 21.0418L40.681 20.8382L40.551 20.5216L40.1402 20.4516L39.7437 20.34L39.3276 20.3141L38.9675 20.1065L38.5437 20.1L38.1342 20.0299L37.7299 19.9378L37.4335 19.9768L37.1735 20.1778L37.0175 20.5515L36.9096 21.0003L36.7054 21.2805L36.5923 21.601L36.5559 21.9577L36.2608 22.2937L36.058 22.6712L35.9839 23.1149L35.7512 23.4795L35.5042 23.8375L35.3898 24.2487L35.148 24.5912L34.9725 24.9713L34.706 25.3034L34.5149 25.6784L34.2939 26.0377L34.1379 26.4269L33.9728 26.8161L33.6919 27.1404L33.5619 27.5426L33.3097 27.8838L33.246 28.273L33.506 28.5882L33.874 28.7906L34.2549 28.9709L34.6319 29.159L35.0102 29.3458L35.3391 29.3653L35.6121 29.2044L35.8656 28.932L36.045 28.5986L36.2972 28.3235L36.5494 28.0459L36.4389 28.452L36.4519 28.8671V29.2809L36.4207 29.6922L36.3492 30.0982L36.2504 30.503L36.3076 30.922L36.1776 31.3229L36.1568 31.7354L36.0996 32.1428L36.1165 32.5592L35.9865 32.9588L36.0242 33.3791L35.9852 33.7761L35.8487 34.1653L35.9254 34.5765L35.8162 34.9657L35.7863 35.364L35.7616 35.7622L35.6316 36.1514L35.6147 36.551L35.512 36.9402L35.4847 37.3397L35.4769 37.7406L35.4236 38.1363L35.3963 38.5345L35.291 38.9237L35.2104 39.3129L35.0804 39.7021L35.122 40.1121L34.966 40.4909L34.9829 40.8969L34.8919 41.2861L34.8555 41.6844L34.7658 42.0736L34.7346 42.4731L34.6878 42.8701L34.576 43.2593L34.5344 43.6563L34.4824 44.0519L34.316 44.4269L34.3251 44.8368L34.1444 45.2117L34.1912 45.6385L34.0482 45.8435L34.1106 45.9914L34.0469 46.0965L34.0339 46.2522L34.108 46.2989L34.0196 46.7555L34.2237 47.1693L34.0625 47.4067L34.4005 47.6377L34.7905 47.7674L35.1376 47.9996L35.5562 48.0126L35.9462 48.154L36.3557 48.1215H36.7575L37.1774 48.1008L37.4465 47.783L37.6493 47.4418L37.7793 47.168L37.9366 46.8982L37.9509 46.4753L38.0289 46.0796L38.22 45.7151L38.3331 45.3259L38.4033 44.9263L38.5606 44.5527L38.7205 44.1804L38.8076 43.7912L38.8245 43.376L39.0728 43.0297L39.0975 42.6171L39.2158 42.2279L39.2977 41.8323L39.4394 41.4548L39.5292 41.0656L39.7112 40.701L39.8893 40.3352L40.0063 39.946L40.0336 39.5322L40.2468 39.1767L40.3417 38.7875L40.4717 38.4048L40.5562 38.0078L40.7499 37.6472L40.8071 37.2424L40.9293 36.8533L41.097 36.4835L41.1776 36.0853L41.3076 35.7026L41.5 35.3419L41.63 34.9618L41.7197 34.5726L41.8497 34.1912L41.89 33.78L42.1383 33.4375L42.1461 33.0146L42.3125 32.6448L42.4516 32.2673L42.6285 31.9015L42.6571 31.4851L42.9106 31.1465L42.9431 30.7313L43.1433 30.3824L43.2122 29.9932L43.4085 29.6429L43.5463 29.2719L43.6854 28.9021L43.8154 28.5259L43.8336 28.1134L44.0377 27.767L44.104 27.3713L44.3172 27.0275L44.3744 26.6293L44.5174 26.3296L44.4992 26.6747L44.4537 27.0807L44.5577 27.4946L44.4589 27.8993L44.4446 28.3067L44.4225 28.7153L44.5278 29.1253L44.3978 29.5313L44.5005 29.9413L44.4095 30.3473L44.3614 30.7547L44.3978 31.1633L44.4355 31.572L44.4576 31.9793L44.338 32.3854L44.4225 32.794V33.2027L44.3757 33.6087L44.3406 34.0161L44.2977 34.4234L44.2873 34.8308L44.3549 35.2394L44.2756 35.6455L44.2457 36.0528L44.2587 36.4602L44.2522 36.8688L44.3211 37.2775L44.2587 37.6835L44.247 38.0909L44.2938 38.4995V38.9069L44.312 39.3142L44.3029 39.7216L44.2197 40.1289L44.1846 40.5363L44.2353 40.9436L44.1703 41.351L44.2431 41.7596L44.1911 42.1657V42.573L44.2561 42.9817L44.2197 43.389L44.1482 43.7964L44.1729 44.2037L44.1326 44.6124L44.1768 45.0197V45.4284L44.1625 45.8357L44.2054 45.9278L44.2574 46.317L44.3003 46.7192L44.5343 47.0461L44.7696 47.3704L45.1258 47.5585L45.4782 47.722L45.8448 47.9049L46.2868 47.853L46.7223 47.8011L47.0954 47.5702L47.4282 47.3107L47.7519 47.0188L47.8949 46.6076L47.9976 46.1964L48.0678 45.7864L48.2186 45.3972V44.9912L48.2096 44.5838L48.3396 44.1946L48.4319 43.8055L48.4423 43.4007L48.5619 43.0115L48.5931 42.6106V42.2046L48.7231 41.8154L48.7465 41.4119L48.8102 41.0228L48.9402 40.6336L48.9571 40.2288L49.0702 39.8396L49.0286 39.4245L49.1053 39.0353L49.2431 38.6526L49.3198 38.2634L49.351 37.86L49.455 37.4708L49.4745 37.0647L49.663 36.6924L49.7072 36.2915L49.7982 35.9023V35.4924L49.9425 35.1123L50.0348 34.7231L50.0842 34.3235L50.2142 33.9343L50.2519 33.5322L50.3247 33.1365L50.4352 32.7473L50.4781 32.3465L50.573 31.9573L50.6497 31.5681L50.7004 31.1672L50.8746 30.7949L50.9708 30.4057L51.0775 30.0165L51.1294 29.6157L51.24 29.2265L51.2985 28.8269L51.3336 28.4221L51.5312 28.0563L51.5832 27.6554L51.6573 27.2598L51.747 26.8706L51.8237 26.4749L51.9537 26.0948L52.0837 25.7121L52.2436 25.3385L52.2774 24.9324L52.3346 24.5316L52.4867 24.1553L52.592 23.7662L52.6999 23.377L52.7389 22.967L52.9196 22.5934L52.9924 22.1925L53.0964 21.8033L53.1965 21.4142L53.3018 21.025L53.424 20.6358L53.5215 20.2466L53.6749 19.8665L53.8205 19.4851L53.8648 19.0751L53.9713 18.686L54.1352 18.3097L54.1885 17.9011L54.2925 17.5119L54.3848 17.1136L54.5785 16.7011V17.1577L54.5122 17.5638L54.4381 17.9698L54.4043 18.3785L54.3198 18.7832L54.3432 19.1984L54.1924 19.5954L54.1742 20.0066L54.2158 20.4243L54.1521 20.8304L54.0325 21.2312L53.9973 21.6399L53.9818 22.0524L53.9492 22.4611L53.8088 22.8593L53.8335 23.2758L53.7815 23.6831L53.7282 24.0827L53.7711 24.4939L53.6411 24.8831L53.5475 25.2788L53.593 25.6887V26.0948L53.4084 26.484L53.4942 26.8991L53.4253 27.2974L53.3252 27.6866L53.2628 28.0861L53.2433 28.4896L53.1536 28.8866L53.1991 29.2965L53.0691 29.6857L53.1393 30.0982L53.0626 30.4965L53.0795 30.9039L52.9599 31.2931L52.9417 31.6965L52.8533 32.0935L52.8442 32.4982V32.903L52.7415 33.2922L52.67 33.6904L52.631 34.0926L52.6544 34.5L52.6453 34.9047L52.5868 35.3043V35.7142L52.4685 36.1112V36.5198L52.4061 36.922L52.3489 37.3242L52.3827 37.7367L52.371 38.1324L52.2137 38.5216L52.1747 38.9263L52.2332 39.3389L52.1357 39.7384L52.1227 40.1445L52.0434 40.5454L52.1188 40.9592L52.0252 41.3588L51.9121 41.757L51.9329 42.167V42.5743L51.8666 42.9765L51.8861 43.3851L51.8146 43.7873L51.8016 44.1933L51.6963 44.5929L51.6885 45.0003L51.6794 45.4076L51.6872 45.815V46.2236L51.6326 46.6297L51.6833 47.0396V47.1304L51.6287 47.5559L51.838 47.927L52.0759 48.2604L52.2696 48.6495L52.6219 48.909L53.0522 48.9791L53.4656 49.0128L53.8387 49.0206L54.2197 48.9778L54.5239 48.7391L54.819 48.5198L55.0972 48.2707L55.3481 47.9918L55.4235 47.6143L55.547 47.2459L55.5704 47.2134L55.5002 46.8113L55.5158 46.4156L55.5795 46.0264L55.5925 45.6294L55.6419 45.2403L55.7069 44.8511L55.6224 44.4476L55.7212 44.0584L55.7316 43.6615V43.2619L55.8304 42.8727V42.4731L55.8187 42.0723L55.8265 41.6727L55.8915 41.2835V40.8723L55.9877 40.9657L56.197 41.3056L56.4388 41.6104L56.7495 41.9296L56.9797 42.1164L57.3866 42.3758L57.761 42.4679L58.0925 42.5782L58.4422 42.647L58.7607 42.7326L59.087 42.6405L59.6915 42.6846L60.1284 42.6288L60.547 42.4913L60.9851 42.4225L61.3751 42.1942L61.8132 42.1138L62.1876 41.962L62.5373 41.7609L62.8676 41.5248L63.2147 41.3224L63.5696 41.1369L63.9206 40.9462L64.256 40.7257L64.5966 40.5168L64.9242 40.2872L65.3012 40.1302L65.6185 39.8708L65.9344 39.6113L66.3322 39.4569L66.6429 39.1871L66.9107 38.8654L67.2877 38.6772L67.5347 38.3348L67.9169 38.1493L68.1522 37.7964L68.4929 37.5629L68.7906 37.2801L69.061 36.97L69.3457 36.6755L69.6473 36.3979L69.9398 36.1125L70.179 35.7752L70.5144 35.5261L70.7926 35.2252L71.0097 34.871L71.2607 34.5947L71.5753 34.3702L71.7287 33.981L72.0095 33.7216L72.1954 33.4323L72.1213 33.898L72.2071 34.3767L72.0771 34.7529L71.9679 35.1421L71.8782 35.5391L71.7937 35.9374L71.6767 36.3265L71.5883 36.7235L71.4934 37.1192L71.3022 37.4876L71.3296 37.917L71.1059 38.2764L71.0227 38.6747L70.985 39.0872L70.8693 39.4764L70.6548 39.837L70.6145 40.2496L70.4598 40.6271L70.3935 41.0318L70.205 41.4003L70.2713 41.421L70.2167 41.7946L70.2531 42.1735L70.2739 42.5626L70.4364 42.9259L70.7536 43.1918L71.0136 43.4941L71.4427 43.6031L71.8327 43.834L72.276 43.8041L72.6959 43.6991L73.0859 43.5175L73.4941 43.3332L73.6852 42.9233L73.7944 42.983L74.0077 42.6444L74.1376 42.2552L74.4484 41.9854L74.5914 41.5962L74.9021 41.3276L75.0529 40.9384L75.2817 40.6102L75.582 40.3339L75.8264 40.0174L76.0331 39.6736L76.245 39.3324L76.518 39.0353L76.726 38.6915L77.0055 38.3996L77.2084 38.052L77.4385 37.7224L77.6985 37.415L77.9052 37.0647L78.1652 36.7508L78.4733 36.4757L78.7138 36.1514L78.927 35.8063L79.1662 35.4807L79.4262 35.1707L79.7084 34.8775L79.9346 34.5415L80.218 34.2496L80.3584 33.8461L80.4143 33.898L80.8043 33.8228L81.1943 33.876L81.5765 33.7696L81.9665 33.7813L82.3565 33.7644L82.7465 33.6943L83.1366 33.7813L83.5266 33.7579L83.9166 33.6658L84.3066 33.7423L84.6966 33.6723L84.5666 34.0161L84.59 34.3858L84.5068 34.7309L84.3508 35.0604V35.4768L84.1532 35.8517L84.1883 36.276L83.9959 36.6522L83.9868 37.0686L83.8204 37.45L83.7164 37.8392L83.6878 38.2504L83.6007 38.65L83.55 39.0561L83.4343 39.4452L83.3043 39.8344L83.3485 40.2599L83.1626 40.6388L83.1561 41.0539L83.0404 41.4431L82.9806 41.8478L82.8596 42.237L82.7297 42.6262V43.0414L82.6348 43.4409L82.5177 43.8301L82.5294 44.2504L82.3682 44.6396L82.4059 45.0638L82.2187 45.453L82.1823 45.8643L82.0666 46.2612L81.999 46.6945V47.1123L81.882 47.517L81.9093 47.9451L81.8456 48.359L81.6649 48.7481L81.6324 49.1698L81.557 49.5291L81.5323 49.8975L81.453 50.2608L81.479 50.5799L81.4699 50.8952L81.5258 51.0898L81.5531 51.1884L81.5271 51.3285L81.4296 51.4712L81.544 51.5633L81.4686 51.7112L81.6298 51.8111L81.5934 51.8837L81.5726 52.0134L81.7897 52.3416L81.9301 52.7127L82.2811 52.9825L82.6308 53.2498L83.0729 53.2874L83.4889 53.3652H83.9244L84.3144 53.181L84.6706 52.9449L85.0034 52.6763L85.2634 52.3248L85.3284 51.8954L85.3492 51.4802V51.0586L85.4012 51.0327L85.3297 50.6357L85.4714 50.1842L85.4623 49.7107L85.5858 49.3345L85.7068 48.957L85.6431 48.5471L85.8277 48.1786V47.7752L85.9265 47.386V46.9786L86.1033 46.6037V46.1938L86.18 45.8046L86.2671 45.4154L86.4283 45.0366L86.4621 44.6331L86.5817 44.2439L86.6116 43.8392L86.6597 43.4357L86.8209 43.0556L86.9145 42.6664L86.895 42.25L86.9873 41.8608L87.1433 41.4794L87.2525 41.0902L87.285 40.6842L87.3344 40.2807L87.3851 39.8772L87.571 39.5023V39.0898L87.714 38.7006L87.7036 38.2842L87.896 37.9105V37.4954L88.0598 37.1166L88.1157 36.7144L88.1599 36.3097L88.3159 35.9283L88.3029 35.4729L88.455 35.05L88.5383 34.6115L88.5902 34.1666L88.6826 33.7073L89.1662 33.7683L89.5848 33.8046L90.0008 33.8708L90.4246 33.7787L90.8367 33.8928L91.2618 33.8293L91.6649 34.007L92.1342 33.9797L91.9678 34.3689L91.7611 34.7348L91.6389 35.124L91.5752 35.5391L91.3451 35.8946L91.3307 36.3279L91.085 36.682L91.0525 37.1101L90.8198 37.4695L90.7249 37.8587L90.6066 38.2478L90.5442 38.6565L90.3765 39.0275L90.1776 39.3882L90.1048 39.7929L89.9644 40.1756L89.8721 40.5765L89.72 40.9566L89.6121 41.3056L89.4366 41.6351L89.3469 41.9944L89.291 42.3642L89.1337 42.7015L89.0037 43.1503L88.8256 43.5823L88.68 44.0416L88.6449 44.1946L88.4784 44.4541L88.4589 45.0444L88.4706 45.4426L88.5669 45.8253L88.7697 46.1613L88.9465 46.522L89.2546 46.8152L89.6524 46.9631L90.0632 47.0163L90.4753 47.1226L90.8744 46.9786L91.2761 46.858L91.5674 46.5531L91.7598 46.5207L91.9769 46.1561L92.2551 45.8513L92.5632 45.5763L92.8661 45.2973L93.1742 45.0223L93.4342 44.698L93.6851 44.3711L94.0504 44.157L94.2923 43.8223L94.5978 43.5512L94.9163 43.2917L95.2023 43.0232L95.4311 42.695L95.7522 42.4627L96.0473 42.2033L96.3229 41.9257L96.5985 41.6442L96.8676 41.3575L97.203 41.1473L97.5203 40.9164L97.8375 40.6881L98.0728 40.3534L98.4706 40.199L98.7813 39.9252L99.144 39.7294L99.4326 39.418L99.8136 39.2494L100.193 39.0859L100.568 38.9185L100.904 38.6695L101.279 38.4995L101.654 38.3231L102.059 38.3088L102.397 38.0831L102.798 38.0909L103.188 38.0468L103.556 37.8872L103.946 37.9235L104.336 37.8664L104.719 37.9676L105.109 37.943L105.499 37.9936V38.0545L105.919 38.0027L106.271 37.8107L106.569 37.5577L106.851 37.2411L106.875 36.7871L106.771 36.3395L106.423 36.0463L106.026 35.8608ZM63.3616 28.7335L63.7035 28.5039L63.9921 28.2237L64.243 27.9071L64.5199 27.6152L64.828 27.3558L65.1816 27.1534L65.4677 26.868L65.7589 26.5839L66.1294 26.4113L66.4765 26.1311L66.8366 25.8717L67.2773 25.7419L67.7778 25.3813L67.731 25.716L67.692 26.0896L67.5854 26.4477L67.3254 26.8278L67.107 27.217L66.847 27.5828L66.6299 27.9798L66.3712 28.273L66.1255 28.5947L65.781 28.8204L65.5495 29.1564L65.2622 29.4405L64.8839 29.6157L64.6057 29.9101L64.3171 30.1955L63.9557 30.3836L63.5943 30.5912L63.2511 30.8273L62.9248 31.0985L62.5542 31.2956L62.1291 31.3748L61.7599 31.5681L61.3452 31.6485L61.0215 31.8003L61.1515 31.4902L61.4414 31.2152L61.6494 30.8831L61.8483 30.5432L62.0862 30.2306L62.3605 29.9478L62.6375 29.6675L62.8975 29.3757L63.0912 29.0241L63.3616 28.7335ZM86.1124 27.1093L86.0136 27.4985L86.0526 27.911L85.8433 28.2691L85.777 28.6582L85.6898 29.0474L85.6145 29.4366L85.4987 29.8154L85.4676 30.2124L85.3934 30.6016L85.2634 30.9765L85.2478 31.3774L85.1087 31.7497L84.8903 31.7575L84.5003 31.7666L84.1103 31.8249L83.7294 31.9183L83.3394 31.8859L82.9572 31.956L82.5671 31.9391L82.1914 32.0883L81.8014 32.1168V31.9482L82.1381 31.6887L82.3201 31.3138L82.571 30.9908L82.8636 30.7002L83.1418 30.3992L83.3056 30.01L83.5786 29.7052L83.914 29.4457L84.1337 29.0993L84.3547 28.753L84.6264 28.4481L84.8305 28.0887L85.1256 27.7994L85.3427 27.4518L85.6157 27.1456L85.8576 26.8174L86.0773 26.4697L86.3269 26.183L86.2515 26.6539L86.1124 27.1093Z" fill="black"></path><path d="M28.7655 38.87L28.7876 38.4055L28.7122 37.9463L28.6667 37.4209L28.5718 37.1147L28.5211 36.9059L28.5458 36.7372L28.5159 36.6257L28.3859 36.4337L28.3456 36.348L28.135 35.9939L27.9075 35.6955L27.6904 35.3712L27.3407 35.2025L26.9741 35.1052L26.6049 35.043L26.2331 35.0819L25.843 35.1714L25.4894 35.3725L25.1358 35.5956L24.8888 35.9342L24.7588 36.3312L24.6626 36.7346V37.1549L24.8134 37.5441L24.7861 37.9619L24.7757 37.9424L24.8147 37.8724H24.7926L24.7601 37.9528L24.8615 38.2239L24.8134 38.569L24.8498 38.9141V39.289L24.8108 39.6613L24.8017 40.0349L24.6925 40.4047L24.7614 40.7939L24.6431 41.1727L24.6522 41.5619V41.951L24.5794 42.3299L24.5339 42.5426L24.5053 42.8734L24.3753 43.1796L24.2375 43.5337L24.1816 43.9126L24.0217 44.2693L23.9255 44.6377L23.8397 45.0114L23.6525 45.3538L23.5459 45.7223L23.4835 46.1115L23.3418 46.4786L23.2014 46.8457L23.0012 47.1921L22.9348 47.5878L22.7424 47.9355L22.6826 48.3337L22.5162 48.6931L22.3862 49.0654L22.1587 49.4196L22.0534 49.8178L21.9234 50.207L21.8064 50.5962L21.6257 50.9763L21.4502 51.3473L21.3202 51.7365L21.1421 52.1076L20.9978 52.4903L20.8899 52.8898L20.6637 53.2414L20.5532 53.6384L20.3894 54.0146L20.2347 54.3947L20.1306 54.7956L19.9642 55.1705L19.7744 55.5363L19.6444 55.9255L19.478 56.2952L19.3103 56.6701L19.1309 57.0399L19.0243 57.4407L18.7825 57.7845L18.6525 58.1737L18.503 58.5629L18.3106 58.9274L18.1702 59.3166L18.0324 59.7058L17.8374 60.0574L17.6684 60.431L17.4695 60.7916L17.3394 61.1808L17.1314 61.5415L16.9845 61.9242L16.861 62.3134L16.7089 62.6948L16.5061 63.0515L16.2968 63.4057L16.1668 63.7949L16.0225 64.1776L15.7924 64.5227L15.6975 64.9287L15.4505 65.266L15.3452 65.6669L15.0852 65.999L14.9981 66.4102L14.7693 66.754L14.6614 67.1536L14.4013 67.4805L14.2323 67.8528L14.1101 68.242L13.7045 68.9555L13.5654 69.3447L13.4055 69.7222L13.1728 70.0621L13.0025 70.4357L12.8413 70.8171L12.6333 71.1687L12.4864 71.5579L12.242 71.8913L12.0951 72.2805L11.8923 72.6411L11.657 72.9862L11.4749 73.3585L11.2812 73.714L11.0797 74.0772L10.912 74.4573L10.6897 74.8076L10.4596 75.1527L10.2386 75.503L10.0293 75.8597L9.85119 76.2333L9.61588 76.5745L9.42348 76.9417L9.20117 77.288L9.00096 77.6474L8.79295 78.0042L8.51734 78.3142L8.27944 78.6502L8.12213 79.0394L7.80622 79.3196L7.57351 79.6569L7.3512 79.9747V79.5051L7.38631 79.0186L7.36681 78.6139L7.38111 78.2195L7.44481 77.8199L7.42791 77.4126L7.50721 77.0143L7.56181 76.6147L7.63201 76.2165L7.66712 75.813L7.68011 75.407L7.78672 75.0178L7.82052 74.613L7.92062 74.2238L7.90112 73.81L7.97003 73.4091L8.02333 73.0057L8.17153 72.6165L8.18063 72.2039L8.25344 71.8018L8.36524 71.4126L8.46534 71.0156V70.5992L8.56285 70.2022L8.71755 69.813L8.76826 69.407L8.82026 69.0009L8.92036 68.604L8.95936 68.1953L9.08156 67.8061L9.13357 67.4001L9.23627 67.0031L9.31297 66.6022L9.36888 66.1962L9.53788 65.8135L9.59898 65.4087L9.62758 64.9962L9.78489 64.607L9.88369 64.2113L9.93959 63.804L10.0137 63.4005L10.1125 63.0035L10.2555 62.6143L10.314 62.2083L10.3673 61.7996L10.5103 61.4105L10.5727 61.0044L10.6455 60.6009L10.8236 60.2312L10.8847 59.8342L11.0043 59.4451L11.0706 59.0481L11.12 58.6485L11.2006 58.2593L11.3553 57.8844L11.4567 57.4952L11.5647 57.106L11.6128 56.7052L11.7181 56.316L11.7896 55.9268L11.9482 55.5532L11.9859 55.1497L12.0704 54.7605L12.2446 54.3908L12.3005 53.9925L12.359 53.5943L12.489 53.2155L12.6034 52.8263L12.6853 52.4371L12.7282 52.0349L12.8218 51.6457L12.996 51.276L13.0688 50.8868L13.2157 50.5093L13.3106 50.1201L13.3223 49.7102L13.4744 49.334L13.5524 48.9448L13.6187 48.5478L13.7136 48.1586L13.8371 47.7772L13.9671 47.388L14.0711 46.9988L14.1062 46.5941L14.2882 46.2269L14.3871 45.8377L14.439 45.4356L14.5691 45.0464L14.6718 44.6572L14.7849 44.268L14.8005 43.8568L14.9006 43.4676L15.0072 43.0784L15.1281 42.6892L15.2204 42.3L15.2997 41.9018L15.4986 41.5346L15.5506 41.1325L15.6624 40.7433L15.6949 40.3372L15.886 39.9675L15.9185 39.5588L16.0355 39.1697L16.1291 38.7805L16.2058 38.3913L16.3488 38.0164L16.4411 37.6272L16.4554 37.2185L16.6153 36.8838L16.7596 36.5465L16.9143 36.2131L16.8844 35.833L16.6244 35.5022L16.2149 35.4529L15.8158 35.3634L15.4258 35.2337L15.0358 35.1195L14.6276 35.065L14.2492 34.8912L13.8384 34.8471L13.4484 34.7303L13.035 34.6849L12.255 34.4254L11.696 34.5863L11.4138 35.0027L11.1798 35.3037L10.9705 35.628L10.6715 35.8732L10.4739 36.2105L10.1788 36.47L9.9188 36.7839L9.60288 37.0434L9.32858 37.3431L9.07766 37.6674L8.78386 37.9489L8.42114 38.1798L8.16113 38.4925L7.86342 38.7714L7.54881 39.0308L7.2589 39.3175L6.95469 39.5991L6.63228 39.8585L6.37227 40.1932L6.04206 40.4449L5.74305 40.7303L5.40244 40.9703L5.10863 41.2622L4.78102 41.5061L4.4911 41.8045L4.1648 42.0639L3.88399 42.3727L3.50827 42.5686L3.21446 42.863L2.88815 43.1225L2.57094 43.382L2.24593 43.6414L1.92092 43.9035L1.60501 44.172L1.25269 44.3939L0.940682 44.665L0.880881 44.6261L0.576671 44.8855L0.394665 45.2358L0.272461 45.6081L0.299761 45.9973L0.333563 46.3865L0.51687 46.7355L0.762576 47.0338L1.10839 47.2038L1.4594 47.3491H1.84031L2.20173 47.2609L2.57094 47.1804L2.95055 47.0183L3.26646 46.7381L3.64998 46.5655L3.99579 46.3385L4.3481 46.127L4.72512 45.9584L5.06313 45.7236L5.44144 45.5549L5.77295 45.3071L6.13566 45.1126L6.48147 44.892L6.81949 44.6559L7.1731 44.447L7.55271 44.2797L7.86342 44.0034L8.24043 43.8308L8.57585 43.5921L8.89436 43.3327L9.24407 43.1186L9.62498 42.9461L9.976 42.7294L10.2776 42.479L10.1541 42.841L10.1203 43.2691L10.0059 43.6764L9.83819 44.0656L9.81089 44.4963L9.69518 44.9037L9.54958 45.302L9.41958 45.7041L9.30907 46.1128L9.21937 46.5279L9.10367 46.9352L9.02956 47.3244L8.94506 47.7136L8.77085 48.0821L8.73705 48.4907L8.54335 48.854L8.51085 49.2626L8.38084 49.6427L8.22614 50.0176L8.14943 50.4146L8.03373 50.8038L7.99733 51.2111L7.84912 51.5873L7.75032 51.9765L7.63852 52.3657L7.57351 52.7653L7.45781 53.1545L7.36161 53.5437L7.2147 53.9212L7.06649 54.2974L7.01969 54.7021L6.90269 55.0913L6.80389 55.4805L6.71288 55.8697L6.61148 56.2589L6.50358 56.6481L6.37357 57.0373L6.26307 57.4265L6.18246 57.8157L6.11746 58.2165L5.98746 58.6057L5.89645 58.9949L5.71445 59.3646L5.64425 59.7668L5.55454 60.1638L5.41674 60.5529L5.40504 60.9694L5.20743 61.3404L5.13853 61.7413L5.07873 62.146L5.00722 62.5482L4.88502 62.9374L4.73812 63.3201L4.66401 63.7209L4.59641 64.1231L4.52101 64.524L4.4248 64.9131L4.2454 65.2894L4.2337 65.7058L4.13619 66.095L3.98539 66.4842L3.87098 66.8734L3.79038 67.2729L3.69028 67.6686L3.66818 68.0811L3.53817 68.4703L3.50437 68.879L3.35097 69.2682V69.6846L3.20926 70.0738L3.17416 70.4824L3.01556 70.8716L3.03376 71.2906L2.94145 71.6889L2.82445 72.0781L2.76725 72.4673L2.74774 72.8669L2.61774 73.2483L2.59434 73.6478L2.47344 74.037L2.49814 74.4431L2.43573 74.8323L2.37593 75.2215L2.32263 75.6106L2.28363 75.9998L2.16792 76.389L2.19522 76.7925L2.13932 77.1817L2.11852 77.5799L2.09382 77.9795L2.01582 78.3687V78.7721L1.96642 79.138L2.01842 79.5051L2.00932 79.8722L2.02882 80.2407L2.00282 80.6104L2.03662 81.0242L2.00672 81.4472L2.08732 81.8571L2.18483 82.2658L2.29533 82.6692L2.33433 82.9741L2.46433 83.253L2.55924 83.5644L2.70094 83.9276L2.81795 84.3168L2.99735 84.6774L3.34447 85.0303L3.63568 85.4195L3.94379 85.6361L4.19469 85.928L4.53401 86.0967L5.07093 86.3795L5.41934 86.4482L5.75085 86.578L6.14086 86.6091L6.53088 86.5844H6.92089L7.3109 86.5222L7.68662 86.4171L8.05063 86.2874L8.38084 86.1161L8.71365 85.9488L9.03086 85.7581L9.30257 85.4986L9.75889 85.125L10.1944 84.7916L10.4323 84.4776L10.9211 83.8731L11.2331 83.6292L11.4827 83.3295L11.709 83.0117L11.8767 82.6524L12.1367 82.3553L12.3824 82.0517L12.5813 81.7222L12.8413 81.4238L13.0181 81.0748L13.256 80.7661L13.4406 80.4236L13.6759 80.0798L13.8579 79.7036L14.1088 79.3676L14.2388 78.9603L14.4755 78.6165L14.7043 78.2675L14.937 77.9211L15.1164 77.5449L15.3114 77.1817L15.4778 76.7925L15.6897 76.4357L15.9042 76.079L16.0719 75.6989L16.2773 75.3369L16.4502 74.9594L16.6569 74.6L16.7869 74.2109L16.9949 73.8593L17.2016 73.5064L17.3173 73.1095L17.5371 72.7631L17.7555 72.4154L17.8452 72.0068L18.0584 71.6565L18.2664 71.3036L18.3613 70.8989L18.5667 70.5447L18.7968 70.2022L18.9606 69.8286L19.0607 69.4251L19.2674 69.0723L19.4247 68.6961L19.5703 68.3147L19.7952 67.9696L19.9369 67.5869L20.0526 67.1977L20.2828 66.8539L20.4414 66.479L20.6078 66.1067L20.7521 65.7253L20.8925 65.3426L21.0862 64.9819L21.2448 64.607L21.3748 64.2178L21.5724 63.8584L21.7323 63.4848L21.7973 63.071L21.9624 62.7L22.0924 62.3328L22.29 61.9929L22.4798 61.6492L22.5344 61.26L22.6891 60.9032L22.8711 60.5581L23.0493 60.2105L23.139 59.8524L23.0674 60.2273V60.6321L22.9374 61.0213L22.8971 61.4221V61.8295L22.7866 62.2264L22.7372 62.6312L22.6696 63.0347L22.6215 63.4394L22.5617 63.8429L22.5682 64.2567L22.4486 64.6459L22.4083 65.052L22.3004 65.4489V65.8641L22.2393 66.2675L22.1249 66.6567L22.1067 67.0693L21.9767 67.4584L21.9286 67.8658L21.9013 68.2757L21.8103 68.674L21.7206 69.0736L21.6231 69.4705L21.5516 69.8779L21.5048 70.2852L21.4671 70.6939L21.3059 71.0831L21.289 71.4969L21.1421 71.8861L21.0589 72.2857L20.9952 72.6891L20.8457 73.0783L20.7547 73.474L20.7391 73.8891L20.574 74.2446L20.4622 74.6117L20.3972 74.9931L20.297 75.3642L20.2113 75.7404L20.1215 76.1049L19.9772 76.4655L19.9122 76.847L19.7601 77.2089L19.7146 77.5981L19.5469 77.96L19.426 78.3298L19.3818 78.719L19.2323 79.0835L19.1491 79.4727L19.0737 79.8619L18.9619 80.2368L18.7864 80.5948L18.685 80.9749L18.6018 81.3576L18.5576 81.7468L18.3808 82.1114L18.3418 82.5084L18.2508 82.8975L18.1546 83.2867L18.035 83.6655L17.9453 84.0547L17.7815 84.4128L17.6918 84.8123L17.6515 85.2249L17.5657 85.6517L17.5787 85.8865L17.528 86.2355L17.4786 86.6143L17.5501 86.997L17.7997 87.2993L17.9778 87.6391L18.2924 87.8584L18.5979 88.0867L18.9723 88.1594L19.3402 88.2722L19.7705 88.2359L20.1605 88.0569L20.5272 87.8558L20.8808 87.6119L21.1135 87.2513L21.2591 86.853L21.3085 86.4366L21.3163 86.4301L21.3956 86.3652L21.4151 86.2173V85.8683L21.4619 85.5051L21.5256 85.1444V84.763L21.6101 84.3933L21.6491 84.0171L21.7557 83.65L21.7843 83.2608L21.9351 82.9001L21.9572 82.5109L22.0768 82.1438L22.0924 81.7546L22.1496 81.3745L22.2419 81.0022L22.3602 80.6338L22.4395 80.2562L22.4954 79.8748L22.5916 79.5168L22.6293 79.1276L22.7996 78.7695L22.8373 78.3804L22.9478 78.008L22.9608 77.6188L23.07 77.2491L23.1754 76.8781L23.23 76.4889L23.3444 76.1192L23.4744 75.7443L23.5355 75.3551L23.5732 74.9659L23.6928 74.5845L23.7838 74.1888L23.815 73.7814L23.893 73.3819L23.9723 72.9836L24.1023 72.5944L24.1647 72.1936L24.2427 71.7953L24.2193 71.3802L24.3753 70.991V70.5797L24.4715 70.1905L24.5638 69.7936L24.5378 69.3797L24.5911 68.9789L24.6782 68.5806L24.7627 68.1836L24.7731 67.7763L24.7991 67.3702L24.8836 66.9733L24.9408 66.5724L24.9538 66.165L25.0188 65.7655L25.1644 64.9676L25.2411 64.5694L25.2281 64.1594L25.3425 63.7702L25.3009 63.3577L25.4101 62.9685L25.3919 62.5586L25.4829 62.1616L25.5193 61.7581L25.5661 61.3547L25.6584 60.9577L25.7026 60.5555L25.7494 60.1521L25.7728 59.7473L25.8248 59.3452L25.8781 58.943L25.8638 58.5344L25.908 58.1322L25.9613 57.73L26.0602 57.3331L26.0719 56.927L26.1421 56.5274L26.1161 56.1175L26.1408 55.7127L26.1707 55.308L26.2097 54.9045L26.3163 54.5153L26.3514 54.1106L26.3683 53.7058L26.3917 53.3011L26.4372 52.8989L26.4853 52.4967L26.51 52.092L26.5425 51.6885L26.6036 51.2877L26.6413 50.8842L26.7258 50.4859L26.6959 50.0734L26.8064 49.692L26.991 49.3391L27.1327 48.972L27.2185 48.5828L27.2965 48.1936L27.4525 47.8291L27.5825 47.4568L27.7294 47.0598L27.7814 46.6369L27.901 46.2321L28.005 45.8235L28.1779 45.4343L28.3079 45.0308L28.356 44.6053L28.4496 44.1915L28.5237 43.7244L28.6212 43.2626L28.7356 42.6814L28.7018 42.2455L28.7434 41.8317L28.7122 41.414L28.7486 41.0001L28.7824 40.5824L28.7447 40.1556L28.8305 39.7275L28.7915 39.2994L28.7655 38.87ZM6.02646 81.3654L5.98876 81.3525H6.02256L6.02646 81.3654Z" fill="black"></path><path d="M38.5178 51.9569L38.3397 52.1593L38.0979 52.5485L37.8379 52.9221L37.6389 53.3294L37.4075 53.7186L37.2606 54.0896L37.0669 54.4451L36.8849 54.8044L36.7731 55.1936L36.5872 55.553L36.4338 55.9253L36.3155 56.3145L36.1725 56.6842L36.0191 57.041L35.867 57.3964L35.737 57.7623L35.607 58.1255L35.4965 58.4965L35.3665 58.8572L35.1962 59.2062L35.0779 59.5733L34.9661 59.9378L34.8022 60.2842L34.6943 60.6488L34.5643 61.0081L34.4499 61.3726L34.3394 61.7385L34.1782 62.0887L34.0599 62.4533L33.8948 62.8308L33.7765 63.22L33.3865 64.3876L33.2383 64.7767L33.068 65.1569L33.0849 64.7534L33.0472 64.3512L33.0979 63.9491L33.0537 63.5469L33.0719 63.1434L33.0823 62.7426L33.0329 62.3391L33.0719 61.9383L33.0355 61.5374L33.0498 61.1352L33.0303 60.7318L33.0758 60.3296L33.0537 59.9262V59.5227L33.0732 59.1192L33.0446 58.7158V58.3136L33.0654 57.9102V57.5041L33.0251 57.0981L33.0446 56.692L33.0563 56.382V56.1653L32.8925 55.7463L32.7248 55.4258L32.4414 55.1664L32.0995 54.9848L31.7263 54.9108L31.3701 54.8965L31.0126 54.9744L30.698 55.1521L30.438 55.3584L30.3236 55.5309L30.269 55.6114L30.2027 55.6503L30.0727 55.8877L29.97 56.19L29.8504 56.4831L29.7308 56.8412L29.6125 57.2005L29.4409 57.5404L29.3174 57.9634L29.1874 58.3876L29.0365 58.8053L28.9 59.2282L28.7427 59.6433L28.6127 60.0248L28.4515 60.3919L28.3215 60.7707L28.2136 61.1599L28.0732 61.5348L27.9354 61.911L27.8535 62.3002L27.6832 62.6673L27.5987 63.0565L27.4557 63.4301L27.3348 63.8193L27.1892 64.193L27.1125 64.5821L26.9617 64.9532L26.859 65.3424L26.7407 65.7238L26.6107 66.1013L26.4937 66.4827L26.326 66.8511L26.2545 67.2494L26.0841 67.6191L25.8787 68.3975L25.737 68.7776L25.6148 69.1668L25.5173 69.556L25.3717 69.9335L25.2326 70.3136L25.1442 70.7028L25.0142 71.092L24.9115 71.4812L24.8205 71.8768L24.6775 72.266L24.6567 72.6695L24.8114 73.0327L25.0545 73.3363L25.3938 73.5283L25.7968 73.6139L26.1869 73.4621L26.5275 73.2351L26.6874 72.8589L26.7121 72.8355L26.8317 72.4606L26.9968 72.1039L27.1021 71.725L27.223 71.3501L27.3374 70.9739L27.4908 70.6107L27.6416 70.2448L27.7716 69.8673L27.9224 69.5015L28.0524 69.1305L28.1642 68.753L28.3423 68.4066L28.4567 68.0368L28.5997 67.6788L28.7375 67.3168L28.8467 66.9445L28.9897 66.5865L29.1457 66.2336L29.268 65.8652L29.4149 65.5058L29.5579 65.1439L29.6996 64.7884L29.7087 65.1932L29.6424 65.6018V66.0118L29.6307 66.4217L29.5956 66.8316V67.6541L29.554 68.0615L29.5332 68.4727L29.4955 68.8801L29.5033 69.29L29.4591 69.6987L29.4526 70.1099L29.4617 70.5225L29.4526 70.9324L29.4136 71.3436L29.372 71.7536V72.5761L29.3174 72.986L29.3447 73.4011L29.281 73.8137L29.3031 74.2288L29.2745 74.6271L29.4292 74.9955L29.5774 75.3614L29.853 75.6455L30.1234 75.9374L30.4809 76.1203L30.9073 76.2033L31.3376 76.237L31.7666 76.1735L32.1567 75.9815L32.4973 75.722L32.8041 75.4184L32.9991 75.0292L33.0186 74.9436L33.1148 74.5467L33.1772 74.1419L33.3072 73.7527L33.3735 73.348L33.4736 72.951L33.5945 72.5618L33.6855 72.1635L33.783 71.7666L33.887 71.3774L33.9728 70.9791L34.0911 70.5899L34.2211 70.2007L34.3381 69.8115L34.4499 69.4223L34.5409 69.0254L34.6709 68.6453L34.7736 68.2561L34.9037 67.8734L35.0116 67.4842L35.1221 67.095L35.2742 66.7214L35.4042 66.34L35.4796 65.9417L35.6551 65.5772L35.776 65.188L36.036 64.4278L36.1842 64.0541L36.3025 63.665L36.4325 63.2875L36.5976 62.8918L36.7276 62.4818L36.9005 62.0926L37.063 61.697L37.2346 61.3078L37.3906 60.9108L37.5375 60.5086L37.713 60.1674L37.8522 59.812L38.029 59.4721L38.1473 59.105L38.3137 58.7599L38.4736 58.4135L38.6634 58.097V58.4862L38.6348 58.8935L38.5841 59.2983L38.5412 59.7043L38.5555 60.113L38.5126 60.519L38.4385 60.9212L38.4229 61.3285L38.406 61.7359L38.3618 62.1419L38.3514 62.5493L38.2955 62.954L38.2786 63.3601L38.2318 63.7649L38.1993 64.1709L38.1785 64.5782L38.055 64.9869L38.029 65.3942V65.8029L37.9523 66.1921L37.9081 66.5813L37.8873 66.9705L37.8561 67.3596L37.8106 67.7488L37.7391 68.138L37.7144 68.5272L37.6923 68.9164L37.6194 69.3056L37.5908 69.6948L37.5557 70.084L37.4595 70.4732L37.4283 70.8623L37.3633 71.2515L37.3269 71.6407L37.2996 72.0299L37.2528 72.4191L37.1631 72.8226L37.1007 73.2299L37.0344 73.6373L36.9993 74.0485L36.9304 74.4558L36.881 74.8658L36.7796 75.268L36.7445 75.6805L36.6808 76.0891L36.5664 76.4874L36.5131 76.8987L36.4585 77.3086L36.3571 77.7095L36.2648 78.1103L36.1868 78.5151L36.1283 78.9211L36.1205 78.9549L36.0295 79.3791L36.0932 79.8098L36.2128 80.2314L36.4494 80.6037L36.7913 80.8762L37.141 81.1356L37.557 81.2653L37.9341 81.2952L38.3098 81.2666L38.6777 81.1797L39.0222 81.0214L39.3264 80.7905L39.5474 80.4818L39.7736 80.1743L39.8932 79.8111L39.9569 79.4037L40.0596 79.0055L40.1441 78.6046L40.2338 78.2037L40.265 77.7925L40.3404 77.389L40.4171 76.9856L40.5003 76.5847L40.564 76.18L40.6186 75.7739L40.7408 75.3782L40.7773 74.9709L40.8475 74.5687L40.8722 74.1588L40.9827 73.7618L41.0061 73.3531L41.0737 72.9497L41.1257 72.5488L41.1699 72.148L41.2492 71.7588L41.2999 71.3579V70.9519L41.3597 70.5536L41.4611 69.7532L41.4897 69.351L41.5898 68.9618L41.6067 68.5571L41.6431 68.1562L41.7016 67.7566L41.751 67.3558L41.7666 66.9523L41.8485 66.5631L41.8576 66.1584L41.9057 65.7523L41.9135 65.3411L41.9655 64.935L42.0162 64.5277L42.0812 64.1229L42.1111 63.7143L42.1449 63.3056L42.1527 62.8957L42.2216 62.4909L42.2125 62.0784L42.271 61.6723L42.2892 61.2637L42.3464 60.8576L42.3698 60.449V60.0377L42.4036 59.6304L42.4673 59.2243L42.4738 58.8144L42.5024 58.4057L42.5453 57.9984L42.5661 57.5897L42.5908 57.1811L42.6324 56.7724L42.6142 56.3612L42.6571 55.9538L42.6727 55.5452L42.7208 55.1379L42.7286 54.7279L42.7689 54.3206V53.9106L42.7988 53.502V53.1128L42.4283 52.9662L42.0383 52.8845L41.6483 52.7768L41.2583 52.6782L40.8683 52.5744L40.4782 52.4784L40.0882 52.385L39.6982 52.263L39.3082 52.1748L38.9247 52.0334L38.5178 51.9569ZM41.2336 54.3867L41.192 54.3504H41.2232L41.3532 54.2803L41.2336 54.3867Z" fill="black"></path><path d="M135.106 67.1031L134.683 67.0422L134.255 67.0629L133.828 67.0512L133.401 67.1174L132.976 67.0928L132.551 66.963L132.121 67.0019L131.691 67.0448L131.263 66.915L130.858 66.9851L130.455 66.9942L130.053 67.0473L129.651 67.1122L129.244 67.011L128.843 67.0551L128.501 67.0058L128.476 66.6815L128.44 66.2923L128.393 65.9031L128.357 65.5139L128.38 65.1248L128.431 64.7356L128.49 64.3464L128.377 63.9572L128.542 63.5511L128.412 63.1464L128.472 62.7416L128.511 62.3356L128.357 61.9308L128.487 61.5248L128.372 61.1213L128.415 60.7049L128.35 60.2988L128.494 59.8811L128.425 59.4673L128.399 59.0534L128.461 58.6383L128.367 58.2257L128.349 57.8119L128.406 57.3955L128.381 56.9816L128.242 56.573L128.285 56.1643L128.298 55.7479L128.324 55.3302L128.175 54.9241L128.266 54.5012L128.225 54.0874L128.095 53.6813L128.022 53.2701L127.996 52.8524L127.983 52.4424L127.749 52.1064L127.532 51.7704L127.19 51.559L126.855 51.3644L126.478 51.127L126.037 51.0906L125.621 51.2398L125.223 51.3929L124.905 51.6627L124.653 51.9948L124.321 52.2997L124.202 52.7771L124.271 53.0262V53.1559L124.278 53.3363L124.187 53.6722L124.144 54.016L123.953 54.3442L123.874 54.6958L123.856 55.0616L123.726 55.3989L123.585 55.7881L123.62 56.2292L123.368 56.5886L123.383 57.0283L123.162 57.3942L123.054 57.7963L122.848 58.1661V58.6085L122.619 58.9691L122.539 59.3829L122.401 59.7721L122.213 60.1457L122.075 60.5349L121.777 60.8606V61.3107L121.47 61.6311L121.368 62.0411L121.252 62.4458L121.017 62.7961L120.838 63.1723L120.73 63.5823L120.483 63.8988L120.252 64.2231L120.165 64.6123L119.927 64.9328L119.781 65.2986L119.651 65.6761L119.365 65.9693L119.209 66.3312L119.128 66.7334L118.722 67.408L118.423 67.6908L118.341 68.0956L118.068 68.3654L117.733 68.6028L117.328 68.6664L116.938 68.7961H116.511L116.148 68.9972L115.775 69.1632L115.413 69.3578L115.01 69.4434L114.62 69.5498L114.264 69.7535L113.874 69.8741L113.51 70.0571L113.181 70.3165L112.756 70.384L112.436 70.6434L112.071 70.829L111.73 71.0326L111.444 71.3245L111.102 71.5269L110.74 71.6981L110.445 71.9693L110.105 72.1794L109.776 72.4039L109.463 72.614L109.447 72.2248L109.674 71.8616V71.488L109.722 71.1234L109.852 70.7732L109.884 70.4047L109.915 70.0337L110.073 69.6445L110.168 69.245L110.318 68.8558L110.329 68.4367L110.503 68.0553L110.558 67.6467L110.572 67.2277L110.637 66.8203L110.798 66.4311L110.97 66.0497L111.006 65.6359L111.061 65.2259L111.271 64.8549L111.234 64.4203L111.477 64.0597L111.459 63.629L111.719 63.2735L111.664 62.8324L111.875 62.4627V62.0333L112.148 61.6817L112.242 61.2796L112.25 60.8541L112.405 60.4649L112.562 60.0757L112.597 59.6567L112.673 59.2493L112.882 58.8809L112.961 58.4748L113.037 58.0662L113.198 57.6848L113.244 57.267L113.471 56.9064L113.518 56.4887L113.662 56.0995L113.865 55.7323L113.965 55.3315L114.083 54.9345L114.213 54.5453L114.287 54.1341L114.456 53.7566L114.641 53.3842L114.804 53.0041L114.943 52.615L115.021 52.205L115.203 51.8379L115.296 51.437L115.454 51.0595L115.56 50.6625L115.676 50.2733L115.922 49.927L116.087 49.5533V49.1136L116.394 48.8009V48.7516L116.507 48.3949L116.535 48.0057V47.6165L116.361 47.2649L116.174 46.9367L115.981 46.602L115.633 46.4269L115.338 46.1843L114.978 46.0545L114.596 45.9702L114.206 46.026L113.857 46.1972L113.475 46.2932L113.198 46.567L112.894 46.8199L112.834 47.2234L112.713 47.5711L112.649 47.9888L112.422 48.378L112.434 48.8139L112.337 49.2238L112.176 49.613L112.036 50.01L112.073 50.4498L111.937 50.848L111.703 51.2255L111.652 51.6407L111.599 52.0558L111.469 52.445L111.44 52.8666L111.27 53.2558L111.219 53.671L111.082 54.0601L110.991 54.4662L110.936 54.8813L110.689 55.2446L110.624 55.6571V56.0852L110.395 56.4536L110.265 56.8428L110.214 57.2593L110.131 57.6666L110.001 58.0623L109.801 58.4372L109.745 58.8523L109.7 59.2714L109.502 59.6463L109.442 60.0601L109.365 60.4701L109.105 60.8281L109.047 61.242L108.888 61.6311L108.822 62.045L108.79 62.4471L108.704 62.8363L108.493 63.1879L108.372 63.5654L108.242 63.9403L108.215 64.3438L108.085 64.72L108.02 65.1092L107.803 65.4595L107.795 65.8681L107.709 66.2573L107.467 66.6011L107.43 67.0019L107.391 67.4028L107.218 67.7673L107.101 68.1163L106.726 68.0398L106.323 68.1189L105.942 68.189L105.52 68.2097L105.203 68.4692L104.769 68.643L104.362 68.8584L104.065 69.171L103.657 69.2463L103.301 69.4357L102.93 69.6419L102.54 69.7989L102.129 69.9027L101.719 70.0039L101.317 70.1336L100.953 70.3762L100.503 70.3684L100.099 70.4981L99.7179 70.7031L99.2967 70.7797L98.8858 70.8912L98.4711 70.9794L97.9121 71.2506L97.9888 70.7563L98.1188 70.3671L98.2735 69.9883L98.3788 69.5991L98.4646 69.197L98.7584 68.8649L98.8026 68.4549L98.9495 68.0774L98.9625 67.6571L99.242 67.3224L99.2563 66.9021L99.4111 66.5271L99.5281 66.1379L99.6243 65.7488L99.8349 65.392L99.9571 65.0028L99.9467 64.5747L100.103 64.1985L100.24 63.8184L100.383 63.4396L100.46 63.0374L100.757 62.7092L100.799 62.2967L100.91 61.9075L101.086 61.539L101.236 61.1628L101.288 60.7516L101.548 60.4117L101.581 59.9953L101.741 59.6203L101.773 59.2052L101.947 58.8368L102.119 58.4683L102.336 58.1129L102.447 57.7237L102.577 57.3345L102.627 56.922L102.864 56.573V56.1449L103.072 55.7868L103.159 55.386L103.368 55.0266L103.478 54.6309L103.527 54.2158L103.671 53.8383L103.907 53.4919L103.972 53.0859L104.102 52.7045L104.277 52.336L104.39 51.9468L104.52 51.5577L104.697 51.1892V50.7624L104.882 50.3953L104.991 50.0061L105.195 49.6441L105.282 49.242L105.46 48.9047L105.525 48.5259L105.68 48.1795L105.719 47.7903L105.998 47.4945L106.071 47.1157L106.23 46.7719L106.388 46.3581L106.572 45.9559L106.732 45.5395L106.908 45.1075L107.168 44.7183L107.336 44.2785L107.503 44.2228L107.705 43.8258L107.726 43.3795V42.9799L107.556 42.618L107.469 42.2288L107.222 41.9123L106.938 41.6243L106.556 41.4945L106.199 41.3233H105.809L105.43 41.405L105.031 41.3947L104.641 41.5075L104.425 41.8734L104.117 42.1082L103.964 42.4623L103.853 42.8217L103.723 43.1888L103.732 43.6195L103.578 44.0269L103.567 44.4602L103.437 44.8831L103.345 45.3151L103.273 45.7523L103.159 46.1129L102.954 46.4463V46.8355L102.743 47.165L102.656 47.5335L102.612 47.9226L102.465 48.2716L102.218 48.6128L102.051 48.9838L101.791 49.7622L101.764 50.1968L101.617 50.5756L101.382 50.9233V51.3553L101.235 51.7328L101.036 52.0947L100.855 52.4632L100.715 52.8524L100.611 53.2506L100.465 53.6281L100.386 54.0303L100.287 54.4195L100.036 54.7633L100.026 55.1888L99.7426 55.5196L99.7335 55.9464L99.5528 56.3135L99.3356 56.669L99.2524 57.0673L99.1029 57.4448L99.0847 57.8703L98.8793 58.2271L98.7584 58.6162L98.6154 58.995L98.5478 59.4037L98.3983 59.7812L98.2774 60.1704L98.0733 60.531L97.8653 60.8904L97.8289 61.3081L97.6742 61.6843L97.5507 62.0735L97.4363 62.4627L97.3063 62.8519L97.162 63.2411L96.9826 63.6186L96.8344 64.0078L96.733 64.4125L96.6601 64.8277L96.4833 65.2052L96.3624 65.6048L96.0894 65.9524L96.0036 66.3663L95.8853 66.7671L95.7254 66.4713L95.3679 66.3922L95.1079 66.0627L94.7179 66.0069L94.3279 66.0471L93.9665 66.1379L93.6024 66.2106L93.2267 66.3183L92.9602 66.6011L92.7678 66.928L92.6092 67.2199L92.4103 67.4793L92.0684 67.6687L91.9475 68.0372L91.7057 68.2966L91.3859 68.4873L91.1077 68.7092L90.862 68.9686L90.5681 69.2099L90.3497 69.5446L90.0013 69.7224L89.7413 70.0181L89.3513 70.1232L89.0913 70.4424L88.7013 70.5163L88.3776 70.7407L87.972 70.7265L87.6378 70.9781L87.2478 71.0015L86.8578 70.9392L86.4756 70.9276H86.0635L85.7138 70.6953L85.3238 70.6019L85.0208 70.3243L84.6009 70.2322L84.2824 69.9727L84.0289 69.7574L83.8313 69.5745L83.5102 69.1853L83.4036 68.6793L83.1761 68.2162V67.3418L83.2229 66.9072L83.3971 66.5012L83.4673 66.0731L83.6558 65.6839L83.6779 65.3038L83.8755 64.9302L84.0731 65.2895L84.1862 65.6307L84.4215 65.9005L84.6152 66.2326L84.9936 66.413L85.3758 66.5103L85.758 66.5453L86.1389 66.6141L86.5055 66.4843L86.8669 66.3805L87.1958 66.1976L87.5611 66.0406L87.8549 65.7721V65.5529L88.1631 65.2765L88.3477 64.9042L88.7169 64.6863L88.934 64.336L89.2486 64.0765L89.48 63.738L89.8336 63.5187L90.1014 63.2151L90.3536 62.896L90.667 62.6677L90.9556 62.4082L91.2364 62.1488L91.5263 61.8971L91.7863 61.6143L92.0853 61.3717L92.3804 61.1239L92.5988 60.7983L92.877 60.531L93.2241 60.3209L93.4464 59.9836L93.6922 59.6735L93.9522 59.3713L94.3279 59.1806L94.6022 58.8926L94.8466 58.5786L94.9909 58.1894L95.2834 57.9157L95.5434 57.6407L95.7384 57.3163L96.0114 57.0413L96.1414 56.6768L96.3728 56.3706L96.5172 55.9646L96.7135 55.5754L96.7876 55.1486L96.9696 54.7503L96.8838 54.3014L96.9748 53.9512L97.0333 53.5931L97.0697 53.2221L96.9657 52.864L96.811 52.4022L96.5029 51.9183L96.3338 51.6329L96.1414 51.354L95.832 51.162L95.429 50.8896L95.0793 50.7858L94.8284 50.6963L94.3799 50.7546L94.0432 50.7222L93.7831 50.7144L93.4139 50.9518L93.0759 50.9959L92.7119 51.079L92.474 51.3955L92.1308 51.5187L91.7629 51.6926L91.5315 52.0519L91.1805 52.2491L90.8034 52.4242L90.5135 52.7019L90.3159 53.0742L89.9805 53.3025L89.7205 53.6035L89.4748 53.9187L89.1017 54.1561L88.8417 54.5025L88.6272 54.8826L88.2476 55.1174L87.9707 55.4431L87.6821 55.757L87.422 56.0956L87.1698 56.4381L86.8396 56.7079L86.5575 57.0219L86.3209 57.3747L85.9829 57.6342L85.6969 57.9455L85.5461 58.371L85.2536 58.6759L85.0065 59.0184L84.6581 59.2779L84.3227 59.5542L84.1836 59.9888L83.9015 60.3066L83.5817 60.5972L83.2684 60.8956L83.0448 61.2614L82.7848 61.6026L82.6262 61.9697L82.3012 62.2292L82.101 62.5704L81.9709 62.9596L81.6888 63.2502L81.5068 63.6004L81.3079 63.9416L81.148 64.3036L80.9829 64.6616L80.9374 65.0716L80.6995 65.4037L80.6072 65.7929L80.4213 66.1535L80.4473 66.5673L80.3784 66.9565L80.2484 67.3379L80.3069 67.7375L80.1899 68.1267L80.2445 68.5224V68.6521L79.9091 68.4264L79.5724 68.2032L79.2395 67.9723L78.895 67.7635L78.5154 67.6156L78.1254 67.4858L77.8433 67.1524L77.4338 67.0577L77.1335 66.7697L76.776 66.5803L76.3977 66.4247L76.0934 66.1392L75.7333 65.9485L75.3069 65.8772L75.0183 65.5619L74.6777 65.3388L74.2877 65.1948L73.9432 64.9989L73.5714 64.8303L73.2047 64.6499L72.8862 64.3905L72.4637 64.1894L72.9174 64.0376L73.2515 63.7678L73.6754 63.6926L74.0654 63.5524L74.4034 63.293L74.8181 63.2035L75.1847 63.005L75.5474 62.7935L75.9374 62.643L76.3716 62.6002L76.7435 62.442L77.1036 62.2551L77.4338 61.9957L77.8602 61.9607L78.1839 61.7012L78.5453 61.5196L78.908 61.3457L79.2876 61.203L79.6413 61.0071L80.0534 60.9163L80.4356 60.7049L80.7645 60.4065L81.1285 60.1691L81.4314 59.8474L81.7798 59.5879L82.1972 59.379L82.543 59.0716L82.673 58.6136L82.9655 58.2348L82.9941 57.6718L83.0435 57.2022L82.8329 56.7767L82.777 56.3953L82.5703 56.0761L82.2608 55.8491L82.0164 55.5754L81.7798 55.2355L81.4366 55.0175L81.0856 54.8165L80.6956 54.6271L80.3251 54.4026L80.0027 54.0796L79.6127 53.8798L79.1837 53.7695L78.7936 53.6178L78.4179 53.4452L77.9954 53.4024L77.6197 53.226L77.2167 53.1339L76.8462 52.9406L76.4314 52.8887L76.0765 52.6292L75.6553 52.6007L75.2809 52.4074H74.8584L74.4528 52.3399L74.0628 52.2167L73.6806 52.0545L73.2788 51.9689L72.8693 51.9261L72.4793 51.8158H72.062L71.6889 51.5849H71.2716L70.8816 51.463L70.4577 51.5187L70.0599 51.4111L69.6595 51.3151H69.2474L68.8483 51.21L68.4505 51.0803L68.0371 51.0738L67.6197 51.1088L67.2167 50.9985L67.2037 50.9765L66.8384 51.0595L66.4692 51.1283L66.1156 51.258L65.7334 51.3877L65.4617 51.6796L65.2134 52.013V52.4281L64.982 52.7745L65.099 53.1637L65.1159 53.5529L65.2147 53.9421L65.5514 54.1795L65.8192 54.439L66.1013 54.6893L66.4367 54.8826H66.8267L67.1985 54.8346L67.4819 54.8826L67.5235 55.3107L67.6327 55.7155L67.6483 56.1293V56.9427L67.6392 57.3592L67.7822 57.76L67.7016 58.1829L67.8928 58.5812L67.8187 59.0028L67.963 59.4076L67.9175 59.8266L67.9682 60.2379L68.0007 60.6491L67.9487 61.0681L67.9812 61.4794L68.0072 61.8919L68.0735 62.2928L68.0085 62.2538L67.9812 62.2409L68.002 62.3382L67.6497 62.4822L67.3233 62.6832L67.0633 62.8636L66.9255 62.5354L66.7955 62.1163L66.4926 61.7829L66.2534 61.4262L66.0129 61.0746L65.7529 60.736L65.5761 60.3572L65.2875 60.0744L64.9625 59.8318L64.6335 59.5996L64.315 59.3544L63.9874 59.1209L63.6286 58.938L63.2659 58.7589L62.9175 58.5566L62.56 58.41L62.2246 58.1972L61.8189 58.1894L61.4432 58.1012L61.1 57.891L60.7854 57.8093L60.9986 57.6705L61.2131 57.411L61.5381 57.2035L61.7981 56.9207L62.0413 56.6002L62.0634 56.1903L62.1245 55.8115L62.0751 55.4002L62.0542 54.9618L61.8657 54.5635L61.5173 54.304L61.2014 54.0446L60.8621 53.8668L60.5527 53.6774L60.2394 53.4439L59.8494 53.3881L59.5127 53.2273L59.1227 53.1922L58.7768 53.0508L58.4232 52.9211L58.0332 52.8991L57.6809 52.6617L57.2909 52.6344L56.9126 52.5319L56.5226 52.4878L56.1234 52.4943L55.762 52.3114H55.372L54.982 52.253L54.5842 52.157L54.1942 52.0377L53.7873 51.9961L53.3973 51.8833L52.9968 51.8093L52.5886 51.7717L52.1986 51.6718L51.8086 51.5667L51.4186 51.472L50.9922 51.5161L50.6191 51.3164L50.229 51.1866H49.8117L49.4386 50.9959L49.0395 50.9116L48.6495 50.8117L48.2595 50.7066H47.8695L47.4898 50.7287L47.0998 50.7494L46.8008 51.0219L46.4706 51.2035L46.1573 51.437L45.9129 51.751L45.8661 52.1505L45.8024 52.5241L45.7179 52.9133L45.883 53.3025L46.026 53.6917L46.3575 53.9512L46.6669 54.2106L46.9607 54.4921L46.9763 54.8697L46.7865 55.2562L46.754 55.6519L46.7345 56.0502L46.6357 56.4394L46.5772 56.8286L46.637 57.2398L46.4199 57.6212L46.5044 58.0545L46.3523 58.4437L46.3783 58.8679L46.1859 59.2571V59.6774L46.0559 60.0666L45.9467 60.4649L45.805 60.8541L45.8505 61.2874L45.6854 61.6765L45.6581 62.093L45.4228 62.4588L45.4475 62.8882L45.285 63.2774L45.1992 63.6796L45.0783 64.0688L44.9951 64.4735L44.856 64.8627L44.7051 65.2519L44.5465 65.6411L44.4841 66.0705L44.2059 66.413L44.1552 66.8528L43.8237 67.1628L43.6937 67.5689L43.5039 67.9477L43.2439 68.2837L43.0307 68.6495L42.8513 69.0387L42.5003 69.2981L42.3924 69.7042L42.3716 70.1142L42.3586 70.5215L42.4444 70.925L42.6472 71.2843L42.9319 71.5723L43.1607 71.9174L43.4896 72.1768L43.8991 72.269L44.3008 72.3676L44.7142 72.3286H45.1264L45.4722 72.1211L45.7777 71.8616L45.9987 71.5386L46.2041 71.2207L46.3744 70.8809L46.5408 70.5877L46.8827 70.7433L47.1856 71.0378L47.5496 71.2532L47.8721 71.5256L48.1945 71.8019L48.5143 72.0925L48.8809 72.3079L49.319 72.3844L49.709 72.5297L50.0392 72.8307L50.4865 72.8475L50.8271 73.1239L51.2366 73.2069L51.6149 73.395L52.0166 73.5053L52.4404 73.5208L52.8382 73.6415L53.2503 73.6999L53.6664 73.7167L54.0707 73.8309L54.4828 73.8867L54.904 73.7972L55.3135 73.8867L55.7269 73.9502L56.1416 73.8452H56.5551L56.9685 73.7933L57.3832 73.7608L57.8148 73.8841L58.223 73.7751L58.6351 73.7064L59.0433 73.6117L59.4334 73.469L59.8637 73.4819L60.2537 73.3237L60.6528 73.2069L61.0623 73.12L61.4653 73.0019L61.8748 72.902L62.2285 72.662L62.5743 72.4143L63.0111 72.3585L63.3673 72.1353L63.7417 71.9472L64.0264 71.6177L64.445 71.488L64.6972 71.1325L65.0093 70.8601L65.3343 70.6006L65.6112 70.3049L65.8712 69.9974L66.2391 69.7678L66.4224 69.3954L66.5524 68.9972L66.8423 68.6923L66.9086 68.2746L67.0815 67.91L67.2401 67.5351L67.4182 67.1213L67.4936 66.6802L67.4156 66.2288L67.4624 65.7825H67.5924L67.9539 66.0419L68.3829 66.2404L68.2763 66.662L68.2958 67.0512L68.3855 67.4326L68.5155 67.8115L68.5051 68.2006L68.3907 68.5898L68.5103 68.9712L68.5389 69.3604L68.4336 69.7859L68.4882 70.2024L68.5636 70.6188L68.5038 71.0404L68.6871 71.4543L68.5922 71.8759L68.6156 72.2962L68.5077 72.7087L68.4336 73.1187L68.4011 73.5351L68.2711 73.9243L68.2828 74.3654L68.1749 74.3446L68.21 74.7429L68.1281 75.1113L68.2061 75.4811L68.2776 75.856L68.4245 76.2452L68.7534 76.5046L69.0745 76.7511L69.4164 76.9794L69.8064 77.1351H70.2263L70.628 77.0352L71.0324 76.9561L71.4224 76.8017L71.6733 76.4566L71.8943 76.1193L72.1049 75.7768L72.1556 75.3773L72.1842 74.9881L72.2466 74.5768L72.1673 74.1643L71.9073 73.8153L71.8293 73.3976L71.672 73.0084L71.5641 72.5972L71.5212 72.1768L71.4913 71.7552L71.4705 71.3349L71.3821 70.9185L71.3899 70.4968L71.3834 70.0765L71.4731 69.6562L71.438 69.2359L71.464 68.8233L71.2963 68.4173L71.3236 67.9347L71.6928 68.2396L72.1075 68.32L72.3961 68.6184L72.7185 68.8584L73.076 69.0348L73.4557 69.1645L73.8457 69.2943L74.1473 69.5537L74.5061 69.7185L74.8636 69.8858L75.1236 70.2244L75.4915 70.3736L75.8464 70.5474L76.1818 70.7576L76.5108 70.9794L76.8761 71.1364L77.2583 71.2661L77.5573 71.5425L77.9161 71.7124L78.3061 71.8421L78.5973 72.1288L78.9249 72.3572L79.2812 72.5362L79.6517 72.6906L80.0235 72.8437L80.3264 73.1368L80.7034 73.2886L81.0934 73.4287L81.3807 73.7479L81.7707 73.8776L82.1205 74.0904L82.5027 74.2486L82.8589 74.4497L83.1696 74.726L83.4998 74.9699L83.9054 75.0906L84.2434 75.3202L84.5294 75.6328L84.8987 75.8145L85.1964 76.1012L85.6098 76.2166L85.9036 76.5319L86.2819 76.6798L86.5679 76.9574L86.8682 77.2168L87.2257 77.4049L87.4961 77.6955L87.7405 78.0108L88.0552 78.2495L88.3737 78.4778L88.5843 78.8488L88.8443 79.1719L89.0978 79.504L89.2018 79.9139L89.441 80.2642L89.5827 80.6624L89.4631 80.8168L89.6243 80.8908L89.5996 81.302L89.8752 81.5887L90.0819 81.9208L90.4719 82.0298L90.7904 82.214L91.1311 82.419L91.5211 82.3982L91.8812 82.2685L92.2621 82.2179L92.6118 82.048L92.9095 81.7885L93.1617 81.4836L93.254 81.0944L93.2943 80.7195L93.4165 80.3459L93.2982 79.9762L93.1786 79.587L93.1058 79.19L92.9667 78.8138L92.8575 78.4246L92.6105 78.099L92.4324 77.7474L92.227 77.4322L92.1659 77.0157L91.8552 76.7563L91.6927 76.4216L91.369 76.2218L91.1909 75.8975L90.9309 75.5978L90.6604 75.315L90.2899 75.1399L90.0026 74.8804L89.7426 74.5924L89.4137 74.4043L89.1641 74.1046L89.6074 73.9204L90.0533 73.7466L90.4173 73.6168L90.7645 73.4521L91.1285 73.3224L91.4275 73.0629L91.7564 72.8631L92.0931 72.6776L92.396 72.4402L92.7574 72.2819L93.0772 72.0653L93.3476 71.7864L93.618 71.4556L94.0497 71.3012L94.3175 70.9678L94.6308 70.7005L94.4761 70.7485L94.441 71.2259L94.2005 71.6411L94.1407 72.1107L94.0029 72.4999L93.9756 72.7593L93.9028 72.8333L94.0679 72.8968L93.9015 72.9682L94.0055 73.1381L93.9704 73.2341L94.0419 73.6415L94.1485 74.054L94.3734 74.2914L94.5528 74.5587L94.8492 74.6884L94.9584 74.7896L95.0572 74.813L95.1508 74.8726L95.3939 74.8415L95.5733 74.9712L95.6786 74.9972H95.8944L96.4339 74.9388H96.824L97.2049 74.8843L97.5832 74.822L97.9628 74.7663L98.423 74.6754L98.8637 74.5029L99.3512 74.5535L99.7049 74.342L100.104 74.3213L100.463 74.1448L100.853 74.067L101.243 73.9969L101.613 73.8672L102.014 73.8439L102.361 73.622L102.737 73.5053L103.141 73.4767L103.507 73.3288L103.898 73.2601L104.243 73.0512L104.633 72.9448L104.987 72.8709L105.33 72.7619L105.64 72.5595L105.928 72.4597L105.859 72.9604L105.719 73.325L105.589 73.6908L105.489 74.067L105.515 74.4692L105.348 74.8363V75.3552L105.27 75.8521L105.26 76.2179L105.151 76.5708L105.13 76.9366L105.084 76.9587L105.139 77.366L105.235 77.7643L105.334 78.195L105.715 78.435L105.998 78.7762L106.412 78.9319L106.853 78.867L107.287 79.0227L107.696 78.8514L108.086 78.662L108.439 78.4467L108.713 78.1249L109.056 77.8966L109.395 77.6618L109.687 77.3712L109.891 76.9885L110.192 76.7135L110.542 76.4852L110.88 76.2491L111.14 75.926L111.416 75.6458L111.676 75.3396L112.033 75.1515L112.365 74.9362L112.574 74.5768L112.896 74.3498L113.199 74.1007L113.589 73.971L113.874 73.6973L114.16 73.4897L113.89 73.8517L113.921 74.2862V74.6858L113.865 75.1165L114.098 75.4733L114.26 75.8741L114.65 76.07L114.975 76.2594L115.303 76.4891L115.693 76.5591L116.072 76.4164L116.477 76.4372L116.826 76.2529L117.12 75.9935L117.432 75.7457L117.548 75.4006L117.755 75.1269L117.941 74.8402L118.201 74.4964L118.461 74.1487L118.632 73.7868L118.831 73.4417L118.944 73.0525L119.169 72.7217L119.271 72.3221L119.458 71.9654L119.687 71.6255L119.8 71.2363L119.966 70.8718L120.318 70.6889L120.698 70.6953L121.026 70.4917L121.416 70.5176L121.763 70.3879L122.124 70.3139L122.466 70.1414L122.856 70.2076L123.197 70.0207L123.553 69.9144L123.914 69.8339L124.371 69.7457H124.845L125.376 69.6899L125.421 70.0493L125.314 70.4385L125.343 70.8277L125.486 71.2169L125.329 71.606L125.305 71.9952L125.469 72.3922L125.409 72.7814L125.334 73.1706L125.442 73.5676L125.368 73.9567L125.39 74.3459L125.279 74.7351V75.1347L125.234 75.5329L125.279 75.9351L125.307 76.3373L125.164 76.7265L125.226 77.1312L125.113 77.5204L125.039 77.9161L125.009 78.3143L124.973 78.7113L124.965 79.1122L124.944 79.5117L124.924 79.9113V80.3135L124.876 80.7104L124.796 81.0996L124.828 81.507L124.735 81.8962L124.697 81.9053L124.586 82.2944L124.716 82.6733L124.898 83.0131L125.104 83.3297L125.333 83.6332L125.606 83.9225L126.007 83.9693L126.356 84.1703L126.746 84.1574L127.136 84.1119L127.47 83.9044L127.86 83.7928L128.069 83.4503L128.281 83.1403L128.541 82.8393L128.475 82.432L128.565 82.0622L128.515 81.6601L128.461 81.2566L128.546 80.848L128.481 80.4445L128.531 80.0372L128.481 79.635L128.409 79.2315L128.393 78.8268L128.346 78.4233L128.399 78.0186L128.42 77.6138L128.5 77.2078L128.362 76.8056L128.48 76.4008L128.373 75.9974L128.409 75.5939L128.372 75.1892L128.405 74.7844L128.363 74.3861L128.34 73.9892L128.398 73.5909L128.364 73.1913L128.344 72.7931L128.474 72.3948L128.371 71.9939L128.514 71.5957L128.364 71.1948L128.494 70.7978L128.393 70.3957L128.461 69.9948V69.6562L128.373 69.2294L128.869 69.2994L129.274 69.1697L129.692 69.1593L130.108 69.1256L130.517 69.0231L130.944 69.1087L131.348 68.9388L131.77 68.9933L132.184 68.8726L132.605 68.8947L133.028 68.9764L133.44 68.8337L133.864 68.9025L134.265 68.8778L134.689 68.8908L135.104 68.7364L135.14 68.691L135.555 68.6638L135.854 68.355L135.911 67.9399L135.86 67.5027L135.577 67.1252L135.106 67.1031ZM94.5957 54.5803L94.6126 54.6193L94.5879 54.4895L94.5957 54.5803ZM86.7148 60.4337L86.8864 60.0614L87.2361 59.8409L87.4311 59.4841L87.7249 59.2169L87.994 58.9263L88.3022 58.6759L88.5544 58.3671L88.8352 58.0856L89.2174 57.9248L89.5164 57.6653L89.8115 57.4059L90.0715 57.0906L90.4394 56.9246L90.7904 56.7378L91.0674 56.4381L91.4184 56.2565L91.7447 56.0891L92.0554 55.8945L92.3258 55.635L92.6586 55.4755L92.968 55.3458V55.7272L92.7964 56.0878L92.6053 56.4368L92.5624 56.883L92.2569 57.2242L92.2166 57.6822L92.0203 58.0714L91.7798 58.4359L91.5458 58.803L91.2 59.0897L91.0141 59.4309L90.7228 59.6904L90.52 60.0251L90.2496 60.3014L89.9987 60.5998L89.7296 60.8839L89.3799 61.0694L89.0276 61.2368L88.6922 61.443L88.3451 61.6298L88.0019 61.8309L87.63 61.9723L87.2244 61.984L86.8461 62.08L86.4561 62.1475L86.0661 62.1111L85.6683 62.2058L85.3394 62.2616L85.4889 61.971L85.7697 61.6869L85.9179 61.3107L86.2156 61.0422L86.4925 60.7607L86.7148 60.4337ZM50.5918 54.378L51.039 54.413L51.429 54.509L51.8268 54.4467L52.2168 54.4895L52.6068 54.5661L53.0111 54.4662L53.4011 54.5207L53.7847 54.666L54.1747 54.6893L54.5647 54.7218L54.9547 54.8411L55.3642 54.8554L55.7698 54.8943L56.1599 55.024L56.5655 55.0681L56.9776 55.0902L57.3819 55.1563L57.7498 55.3471L58.1736 55.5157L58.6078 55.565L58.9133 55.744L58.5506 55.8556L58.1411 56.0696L57.6939 56.1773L57.2909 56.2292L56.9009 56.3473L56.5226 56.4991L56.139 56.6392L55.7308 56.6664L55.3525 56.8325L54.9625 56.9272L54.5504 56.9362L54.1344 56.9674L53.7327 57.0776L53.331 57.2074L52.9097 57.1931L52.4924 57.2022L52.0946 57.3579L51.6799 57.3955L51.2535 57.3332L50.8388 57.3994L50.4279 57.5006L50.0132 57.5745L49.5855 57.5512L49.2631 57.6523L49.4542 57.21L49.6557 56.8299L49.7727 56.4147L49.8715 55.9905L50.0808 55.6143L50.2199 55.2056L50.48 54.8554L50.5918 54.378ZM48.9017 61.5261L49.0317 61.4534L49.1214 61.4158V61.4521H48.8926L48.8835 61.4586L48.9017 61.5261ZM64.0264 66.6374L63.9406 67.0512L63.7118 67.4093L63.4726 67.7518L63.2126 68.0813L63.0046 68.4705L62.6354 68.6962L62.2987 68.9557L61.9086 69.1308L61.6148 69.4629L61.2248 69.6316L60.8556 69.821L60.4565 69.9403L60.0665 70.07L59.6674 70.1777L59.3112 70.4372L58.8847 70.4501L58.4713 70.4917L58.0813 70.6538L57.6601 70.637L57.2701 70.8549L56.8437 70.7732L56.4394 70.9366L56.0129 70.7797L55.5956 70.7978L55.1744 70.9276L54.7597 70.7978L54.3385 70.8134L53.9212 70.7641L53.5169 70.6344L53.0956 70.6123L52.6913 70.5059L52.3013 70.349L51.8996 70.2374L51.4615 70.2296L51.0962 70.0454L50.7062 69.9157L50.3564 69.7094L50.0379 69.4499L49.6947 69.2489L49.3047 69.1191L48.9563 68.9116L48.6963 68.5924L48.4168 68.3044L48.0463 68.1137L47.8227 67.7699L47.5067 67.5105L47.482 67.5222L47.3117 67.155L46.9321 67.0461L46.5161 67.0071L46.6721 66.579L46.7722 66.1898L46.7202 65.7747L46.8281 65.3764L46.9334 64.9782L47.014 64.5747L47.0608 64.1622L47.1687 63.7639L47.4014 63.402L47.5197 63.0128V62.5821L47.7395 62.2188L47.8318 61.818L47.8487 61.5442H47.9163L47.9501 61.4794L48.4844 61.6389L48.8744 61.5235L49.2774 61.5767L49.6674 61.4884L50.0574 61.3691L50.4644 61.4651L50.8427 61.2705L51.2418 61.2874L51.6318 61.2147L52.0283 61.2043L52.43 61.2783L52.82 61.1914L53.2178 61.2199L53.6079 61.2121L53.9979 61.0253L54.4087 61.1369L54.8078 61.0071L55.2147 61.0201L55.619 60.9604L56.0259 60.9968L56.4316 61.0253L56.8372 61.0629L57.2428 61.0422L57.6432 61.1109L58.0462 61.1434L58.4505 61.1537L58.8626 61.085L59.2422 61.3029L59.6323 61.3393L60.0379 61.3237L60.4279 61.3873L60.7919 61.5585L61.1481 61.7336H61.5693L61.9164 61.9321L62.2077 62.2162L62.6263 62.3005L62.8252 62.6781L63.0852 62.9544L63.4583 63.1684L63.6442 63.5252L63.8184 63.8858L63.8691 64.2906L64.0745 64.6487L64.1486 65.2052L64.2136 65.7358L64.1837 66.1924L64.0264 66.6374ZM80.7814 57.5265L80.8113 57.5473V57.5914L80.7814 57.5265ZM71.2755 61.8452L71.256 61.4716L71.243 61.0564L71.1845 60.6413V60.2262L71.2508 59.8097L71.2014 59.3946L71.1286 58.9782L71.1364 58.563L71.2664 58.1479L71.2482 57.7328L71.2365 57.3176L71.1273 56.8999L71.1663 56.0696L71.2859 55.6558L71.2144 55.2381V54.7737H71.6915L72.1088 54.9358L72.5339 54.9877L72.9642 54.9799L73.3867 55.0474L73.8093 55.1174L74.237 55.1525L74.6647 55.181L75.0742 55.2368L75.472 55.3509H75.8919L76.2962 55.4327L76.6681 55.6454L77.0581 55.7531L77.4923 55.7375L77.8459 55.9879L78.2632 56.0372L78.6675 56.1994L79.0497 56.4147L79.4554 56.5717L79.8454 56.7611L80.1678 57.0011L80.5019 57.2294L80.6956 57.5693L80.6878 57.5382L80.4278 58.0402L80.0105 58.2167L79.6959 58.5202L79.3474 58.7875L78.9483 58.9678L78.5466 59.1092L78.1709 59.296L77.8628 59.6151L77.4481 59.7267L77.1023 59.9797L76.685 60.0809L76.2663 60.1769L75.8997 60.3909L75.5331 60.6076L75.1886 60.7892L74.7986 60.8385L74.4333 60.9682L74.0927 61.1667L73.7209 61.2731H73.3165L72.9603 61.4249L72.6106 61.6078L72.2323 61.6947L71.8423 61.7544L71.5095 61.7414L71.2755 61.8452ZM124.475 67.2355L124.003 67.3989L123.503 67.3509L123.134 67.5455L122.738 67.5312L122.354 67.6182L121.964 67.6623L121.574 67.6713L121.352 67.7245L121.503 67.3859L121.577 66.9967L121.819 66.6763L121.968 66.3157L122.098 65.9459L122.228 65.5736L122.38 65.2117L122.525 64.8458L122.762 64.5202L122.863 64.131L122.993 63.7587L123.285 63.4551L123.423 63.0841L123.449 62.6625L123.672 62.3291L123.914 62.0048L123.966 61.5948L124.203 61.2679L124.402 60.9228L124.559 60.5609L124.632 60.1587L124.885 59.8396L125.056 59.4154L125.031 59.9589L125.084 60.4454L125.052 60.8489L125.21 61.2381L125.239 61.6376L125.186 62.0411L125.3 62.4368L125.325 62.8363L125.213 63.2424L125.343 63.6316L125.265 64.035L125.395 64.432L125.311 64.8355L125.278 65.2363L125.372 65.6346V66.0355L125.421 66.435L125.331 66.8372V67.2121L124.926 67.3418L124.475 67.2355Z" fill="black"></path></g><defs><clipPath id="clip0"><rect width="136" height="88.4602" fill="white"></rect></clipPath></defs></svg>