<svg xmlns="http://www.w3.org/2000/svg" aria-hidden="true" focusable="false" role="presentation" class="icon icon-tiktok" viewBox="0 0 15 17"><path d="M10.815 1.215c0 1.674 1.285 2.9 2.87 2.9.099 0 .463.06.47.434v2.51c-.082.3-.26.344-.47.344a6.194 6.194 0 0 1-2.9-.713v4.405c-.03 2.765-2.212 5.007-4.977 5.007a5.007 5.007 0 0 1 0-10.014c.191 0 .433.133.433.354v2.495c0 .222-.183.42-.433.42a1.737 1.737 0 1 0 0 3.475c.716 0 1.314-.433 1.572-1.052.113-.273.117-.576.117-.872V1.215c0-.194.134-.433.359-.433h2.526c.224 0 .433.18.433.433z" fill="currentColor"></path></svg>