<svg class="hover" viewBox="0 0 47 48" fill="none" xmlns="http://www.w3.org/2000/svg"><path d="M21.0001 19.2718C20.9999 18.1867 21.0001 17.0196 21.0001 16.4026C21.0001 14.6891 22.2478 13.3 23.7869 13.3C25.3259 13.3 26.5736 14.6891 26.5736 16.4026C26.5736 17.0195 26.5736 17.926 26.5736 19.2718" stroke="#004F8E" stroke-width="0.9" stroke-linecap="square"></path><mask id="path-2-outside-12" maskUnits="userSpaceOnUse" x="16" y="17.0774" width="16" height="14" fill="black"><rect fill="white" x="16" y="17.0774" width="16" height="14"></rect><path d="M17.752 18.0774H29.7839L30.5359 30.0208H17L17.752 18.0774Z"></path></mask><path d="M17.752 18.0774V17.1774H16.9069L16.8538 18.0208L17.752 18.0774ZM29.7839 18.0774L30.6821 18.0208L30.629 17.1774H29.7839V18.0774ZM30.5359 30.0208V30.9208H31.4943L31.4341 29.9643L30.5359 30.0208ZM17 30.0208L16.1018 29.9643L16.0416 30.9208H17V30.0208ZM17.752 18.9774H29.7839V17.1774H17.752V18.9774ZM28.8857 18.1339L29.6377 30.0774L31.4341 29.9643L30.6821 18.0208L28.8857 18.1339ZM30.5359 29.1208H17V30.9208H30.5359V29.1208ZM17.8982 30.0774L18.6502 18.1339L16.8538 18.0208L16.1018 29.9643L17.8982 30.0774Z" fill="#004F8E" mask="url(#path-2-outside-12)"></path></svg>