<svg class="header-logo__img" viewBox="0 0 452 294" fill="currentColor" xmlns="http://www.w3.org/2000/svg"><path d="M352.382 119.186L351.133 118.72L349.837 118.422L348.541 118.134L347.176 118.366L345.879 118.267L344.583 118.194L343.261 118.108L341.939 118.22L340.643 118.435L339.264 118.142L337.968 118.573L336.672 118.78L335.458 119.397L334.015 119.354L332.796 120.057L331.47 120.432L330.173 120.936L328.938 121.535L327.59 121.88L326.35 122.475L325.291 123.424L324.042 123.997L322.837 124.644L321.64 125.308L320.551 126.145L319.225 126.438L318.278 127.339L317.246 128.098L316.122 128.719L315.047 129.417L313.962 130.241L314.74 129.025L314.947 127.671L315.474 126.442L315.677 125.093L316.248 123.868L316.814 122.644L317.488 121.466L317.89 120.173L318.322 118.901L318.572 117.564L319.302 116.396L319.428 115.008L320.089 113.818L320.43 112.524L321.087 111.334L321.489 110.041L321.735 108.691L322.228 107.428L322.958 106.251L323.247 104.927L323.718 103.677L324.293 102.457L324.725 101.163L325.183 99.8999L325.758 98.684L325.887 97.3043L326.488 96.0884L326.885 94.795L327.533 93.6006L327.875 92.3072L328.475 91.0913L328.765 89.7633L329.288 88.5259L329.499 87.1634L330.338 86.0295L330.614 84.6843L331.107 83.421L331.539 82.149L332.005 80.8944L332.399 79.6009L332.779 78.3074L333.392 77.1088L333.725 75.8153L334.486 74.6598L335.069 73.4396L335.419 72.1461L335.985 70.7578L336.326 69.2789L337.078 67.951L337.583 66.5324L338.175 65.1527L338.504 63.6782L339.139 62.3847L339.536 61.005L339.476 60.6859L339.748 60.7118L340.267 59.539L340.18 58.1981L340.448 56.9823L339.964 55.8526L339.225 54.7704L338.53 53.6408L337.454 52.869L336.456 51.9808L335.16 51.6531L333.902 51.291H332.606L331.344 51.6143L330.122 52.0196L328.847 52.4508L328.061 53.5459L327.058 54.4341L326.535 55.6629L326.155 57.228L325.516 58.6983L324.69 60.0306L324.081 61.4404L323.688 62.5916L323.256 63.7428L323.165 65.0104L322.733 66.153L322.055 67.2094L321.96 68.6063L321.476 69.8696L320.858 71.0855L320.292 72.3143L319.825 73.5776L319.458 74.8711L318.97 76.1387L318.65 77.4667L318.287 78.7817L317.54 79.9372L317.419 81.304L316.585 82.4293L316.468 83.809L315.898 85.0249L315.241 86.2106L314.93 87.504L314.442 88.7544L314.299 90.1255L313.573 91.3802L313.141 92.6736L312.67 93.9283L312.398 95.2563L311.914 96.5023L311.482 97.7958L310.851 99.0031L310.207 100.21L310.009 101.59L308.635 101.831L307.338 102.12L306.042 102.422L304.724 102.672L303.393 102.875L302.045 102.978L300.715 103.155L299.418 103.453L298.122 103.819H296.657L296.904 102.431L297.556 101.163L297.707 99.7921L297.945 98.4426L298.403 97.1491L298.291 95.709L299.025 94.4543L299.181 93.0703L299.289 91.7208L299.453 90.3799L299.85 89.0864L300.369 87.8231L300.55 86.4865L300.71 85.1456L300.913 83.809L301.207 82.4897L301.886 81.2522L301.808 79.8466L302.123 78.5532L302.685 77.2985L303.091 76.005L303.35 74.677L303.692 73.3836L303.769 71.7107L304.046 71.3657L303.826 71.2148L304.158 71.1502L303.791 71.0424L304.223 70.4862L304.171 68.9038L304.322 67.3258L303.432 66.3729L302.521 65.1441L301.41 64.0145L300.045 62.8374L298.826 62.0182L297.962 60.6557L296.943 60.5738L295.547 60.7247L294.337 61.5094L291.671 62.2855L290.341 62.6951L290.449 62.6649L289.36 63.5273L288.763 64.7776L287.865 65.7865L287.061 66.8731L286.24 67.9423L285.212 68.8478L284.447 69.9645L283.479 70.9173L282.857 72.1461L281.993 73.1809L281.211 74.2804L280.234 75.2289L279.426 76.3068L278.35 77.1692L277.62 78.3117L276.894 79.4543L276.151 80.5882L275.205 81.554L274.522 82.7354L273.658 83.7745L272.842 84.8481L271.8 85.7449L270.889 86.7452L270.327 88.0128L269.342 88.957L268.707 90.1686L267.596 91.0309L266.922 92.2123L265.989 93.1953L265.311 94.3767L264.291 95.2951L263.526 96.4075L262.813 97.563L261.888 98.5503L261.089 99.5377L260.32 100.547L259.525 101.543L258.821 102.599L258.004 103.573L257.192 104.552L256.6 105.695L255.792 106.717L254.647 106.285L253.459 106.238L252.201 105.979L252.392 104.539L253.035 103.289L253.338 101.965L253.562 100.629L253.485 99.2273L253.917 97.9338L254.314 96.6403L254.535 95.3037L255.031 94.0102L255.127 92.6435L255.559 91.35L255.727 90.0004L256.112 88.707L256.237 87.3445L256.725 86.051L256.583 84.6325L257.879 80.7521L258.069 79.4025L258.371 78.0832L258.514 76.7251L258.899 75.4316L259.305 74.1381L259.49 72.7929L259.862 71.4994L260.082 70.1585L260.484 68.865L260.545 67.4896L261.409 64.9027V63.5057L261.923 62.2122L262.424 60.9403L262.312 59.5175L262.804 58.224L263.18 57.0599L264.446 56.5252H265.816L267.199 56.6632L268.555 56.4778L269.852 55.9777L271.23 56.0208L272.587 55.8095L273.93 55.5551L275.322 55.6974L276.661 55.4344L277.996 55.042L279.4 55.2231L280.766 55.0507L282.135 54.9256L283.497 54.7057L284.858 54.4643L286.245 54.4945L287.614 54.3522L288.971 54.059L290.362 54.1194L291.736 53.9986L293.063 53.4252L294.441 53.3476L295.806 53.1363L297.202 53.2484L298.597 53.326L299.924 52.7569L301.302 52.6793L302.694 52.7353L304.085 52.7828L305.446 52.5499L306.82 52.4551L306.928 52.2223L308.393 52.1317L309.559 51.2263L310.164 49.9328L310.782 48.6393L310.661 47.1949L310.203 45.9618L309.339 44.9874L308.237 44.2889L306.941 44.2156L305.688 43.9224L304.344 44.1768L302.966 44.1337L301.669 44.6037L300.313 44.7675L298.93 44.6942L297.599 45.0693L296.212 44.9314L294.864 45.1771L293.529 45.522L292.164 45.5824L290.799 45.6514L289.433 45.6945L288.072 45.8109L286.733 46.0998L285.393 46.4404L284.002 46.2205L282.676 46.6776L281.293 46.5439L279.997 46.6991L278.701 46.9578L277.404 46.8241L276.108 46.9794L274.851 47.4881L273.524 47.2769L272.228 47.3372L270.958 47.639L269.661 47.7899L268.365 48.0141L267.069 48.2125L265.773 48.1607L266.045 46.5396L266.654 45.272L266.775 43.8578L267.423 42.5988L267.855 41.2837L267.959 39.8695L268.542 38.5761L268.81 37.2093L269.039 35.8296L269.424 34.493L270.068 33.359L270.37 32.1302L270.595 30.8885L270.629 29.595L271.277 28.4395L271.303 27.0814L271.554 25.7879L271.822 24.4944L272.163 23.2009L272.323 21.8816L272.721 20.7864L272.69 19.7818L272.366 19.2687L272.068 18.4064L271.273 17.5872L270.366 16.7637L269.407 15.9661L267.981 15.9229L266.719 16.643L265.47 17.1561L264.991 18.1175L264.611 18.3978L264.671 18.9023L264.209 19.355L263.945 20.2173L263.738 21.8471L263.267 23.3949L262.705 24.5332L262.467 25.7663L262.226 27.0037L262.009 28.2498L261.647 29.457L260.96 30.7031L260.592 32.0354L260.445 33.4237L260.117 34.7603L259.719 36.084L259.65 37.4939L259.218 38.8089L258.981 40.1843L258.458 41.4778L258.328 42.7712L257.654 43.9268L257.572 45.2202L257.049 46.4145L257.006 47.708L256.634 49.1395L255.196 49.1955L253.809 49.1309L252.443 49.2602L251.082 49.493L249.713 49.5404L248.365 49.8638L246.96 49.5749L245.608 49.9026H244.225L242.886 50.3338H241.499L240.121 50.42L238.76 50.6744H237.377L235.986 50.5839L234.616 50.8124L233.251 51.1401L231.855 51.0754L230.481 51.1357L229.124 51.4677L227.755 51.5755L226.381 51.6661L224.989 51.5108L223.62 51.6661L222.241 51.7394L220.893 52.2654L219.476 51.9722L218.115 52.4034L216.711 52.3559L215.315 52.2826L213.933 52.7138H212.533L211.141 52.5241L209.763 52.2826L208.355 52.3085L206.95 52.1921L205.654 51.9205L204.323 52.0282L203.135 52.5758L201.973 53.132L200.901 53.8693L199.99 54.8351L199.255 55.969L199.147 57.3229L198.715 58.6164L199.259 59.9098L199.376 61.2464L200.27 62.2596L200.949 63.3893L202.012 64.174L203.183 64.7819L204.41 65.3597L205.762 65.4718L207.119 65.3295L208.376 64.8337L209.672 64.3551L210.999 63.9455L212.265 63.3031L213.622 62.9668L214.996 62.721H216.408L217.761 62.3674L219.161 62.3157L220.504 61.8501L221.861 61.6129L223.222 61.4016L224.588 61.2249L225.987 61.3628L227.349 61.1774L228.705 60.9101L230.066 60.673L231.445 60.5307L232.823 60.4014L234.158 60.1728L235.502 59.9788L236.854 59.9141L238.189 59.7417L239.559 59.7848L240.855 59.3105L242.19 59.0863L243.573 59.2157L244.934 59.151L246.26 58.8276L247.583 58.4698H248.948L250.309 58.3706L251.674 58.3275L252.992 57.8532L254.383 57.7023L254.09 59.0906L253.407 60.2548L252.914 61.4793L252.75 62.8115L252.357 64.0705L252.037 65.364L251.553 66.5928L250.927 67.7742L250.711 69.1496L250.175 70.4129L249.937 71.7797L249.389 73.0386L248.836 74.2976L248.559 75.6558L247.738 76.8156L247.414 78.1522L246.891 79.4198L246.546 80.6012L246.321 81.83L245.617 82.8863L245.362 84.1108L244.968 85.2836L244.385 86.6935L243.724 88.0689L243.249 89.4443L242.601 90.7377L242.056 91.9277L241.577 93.1522L240.929 94.2905L240.25 95.4158L239.581 96.5368L239.222 97.8303L238.28 98.7961L237.528 99.8869L237.014 101.116L236.072 102.06L235.368 103.155L234.607 104.22L233.834 105.276L233.169 106.415L232.382 107.467L231.423 108.381L230.848 109.605L229.911 110.537L228.908 111.399L227.949 112.309L227.249 113.456L226.337 114.413L225.236 115.184L224.441 116.254L223.421 117.095L222.639 118.194L221.675 119.095L220.492 119.759L219.627 120.751L218.448 121.402L217.463 122.264L216.486 123.157L215.376 123.877L214.326 124.67L213.462 125.709L212.165 126.14L211.34 127.201L210.156 127.727L209.214 128.637L207.961 129.033L206.95 129.848L205.771 130.353L204.6 130.879L203.386 131.31L202.366 132.151L201.022 132.457L199.795 133.056L198.499 133.004L197.341 133.539L195.725 133.47L194.139 133.177L193.992 133.06L193.871 133.03L193.617 132.599L193.37 131.909L193.267 130.969L192.96 129.822L193.327 128.697L193.167 127.3L193.833 126.028L193.915 124.67L194.183 123.346L194.662 122.079L195.003 120.785L195.237 119.431L196.101 118.323L196.533 117.03L197.004 115.736L197.6 116.879L198.387 117.853L199.406 118.573L200.655 119.061L201.86 119.694L203.213 119.953L204.561 119.673L205.892 119.367L207.067 118.677L208.29 117.996L209.063 116.836L209.093 116.616L209.703 115.417L210.472 114.322L211.336 113.283L212.433 112.442L212.956 111.149L213.859 110.161L214.598 109.045L215.514 108.075L216.465 107.139L217.467 106.255L218.331 105.272L218.889 104.056L219.632 103L220.742 102.245L221.261 101.008L222.367 100.249L223.084 99.1755L224.039 98.3132L224.851 97.3129L225.43 96.1229L226.32 95.1614L227.128 94.1353L227.889 93.066L228.882 92.2037L229.798 91.2594L230.52 90.0134L231.604 89.1036L232.633 88.1335L233.307 86.8702L234.171 85.7535L234.806 84.6196L235.428 83.4856L236.349 82.4552L236.621 81.1962L236.897 79.9587L236.984 78.6911L236.82 77.4278L236.906 75.9964L236.34 74.7029L235.683 73.4569L234.914 72.2582L234.422 71.6891L233.207 70.6845L231.833 70.3655L230.468 70.3094L229.116 69.917L227.997 70.1456L226.869 70.3568L225.936 71.0467L224.782 71.1803L223.965 71.978L222.769 72.7454L221.567 73.5086L220.47 74.414L219.407 75.3583L218.111 76.0438L217.286 77.1088L216.564 78.247L215.454 79.0317L214.801 80.2217L213.872 81.1703L212.96 82.0887L211.971 82.951L211.107 83.934L210.498 85.1154L209.582 86.0252L208.756 87.0168L207.81 87.8792L207.05 88.9269L205.926 89.6426L205.062 90.5998L204.362 91.6906L203.744 92.8418L202.88 93.7817L201.8 94.5535L201.208 95.7219L200.443 96.7481L199.402 97.5673L198.698 98.6409L198.05 99.7576L197.129 100.676L196.736 101.969L195.79 102.888L195.137 104.013L194.273 104.988L193.517 106.048L192.925 107.212L192.16 108.312L191.841 109.605L190.977 110.606L190.665 111.899L189.909 113.029L189.391 114.275L188.704 115.482L188.013 116.668L187.663 118.026L187.753 116.629L188.013 115.288L188.259 113.943L188.311 112.58V111.213L188.57 109.873L188.864 108.532L188.738 107.152L188.782 105.785L189.006 104.44V103.065L189.136 101.711L189.568 100.383L189.84 99.0419L189.698 97.6578L189.983 96.3169V94.9458L190.061 93.5877L190.259 92.2382L190.449 90.8843L190.627 89.5348L190.605 88.1594L190.817 86.8142L190.981 85.4603L191.361 84.1324L191.465 82.7699L191.724 81.429L191.473 80.032L191.629 78.6954L192.1 77.402L191.893 76.0266L192.351 74.7331L192.627 73.4137L192.713 72.0685L192.683 70.7147L192.636 69.3565L192.994 68.0631L193.055 66.7178L193.128 65.3726L193.707 64.0791V62.7296L193.794 61.3887L193.992 60.0564L194.226 58.7328L194.265 57.3832L194.221 56.0251L194.615 54.7316L194.688 53.3864L194.628 52.0282L195.06 50.7348L195.306 49.4111L195.41 48.0702L195.44 46.7207L195.461 45.3668L195.894 44.0733V42.7238L195.859 41.3657L196.352 40.0722L196.295 38.714L196.468 37.3818V36.0279L196.598 34.6913L196.948 33.3763L197.198 32.0526L197.064 30.6859L197.259 29.3536L197.691 28.0601L197.721 26.7106L198.067 25.4171L197.868 24.0417L198.248 22.7482L198.145 21.3814L198.438 20.0664L198.646 18.7341L198.594 17.376L198.871 16.0566L199.208 14.7416L199.251 13.392L199.221 12.0382L199.605 10.7447L199.735 9.40381L199.804 8.0586L200.21 6.76512L200.106 5.39835L199.778 4.46273L199.104 3.42364L197.639 3.38483L196.395 2.56132L194.969 2.39316L193.673 1.82403L192.195 1.78954L190.843 1.31958L189.546 0.634033L188.25 0.871172L187.658 1.91889L187.084 3.13476L186.63 4.38512L186.228 5.65273L185.796 6.91171L185.627 8.25262L185.385 9.56766L184.75 10.7533L184.534 12.0727L184.21 13.3662L183.757 14.6338L183.454 15.9273L182.94 17.1604L182.797 18.5013L182.447 19.7948L182.084 21.0882L181.268 22.2351L181.194 23.5976L180.602 24.8134L180.525 26.1802L179.959 27.4047L179.527 28.668L179.12 29.9615L179.064 31.3326L178.684 32.6261L178.191 33.8764L177.945 35.2044L177.358 36.4289L177.111 37.7612L176.77 39.0547L176.338 40.3481L175.971 41.6416L175.487 42.9092L175.305 44.2587L174.938 45.5522L174.506 46.8457L174.19 48.1607L173.581 49.3292L173.149 50.6227L172.89 51.9506L172.7 53.3002L171.879 54.4686L171.641 55.8052L171.183 57.0728L170.751 58.3663L170.647 59.7417L169.995 60.9576L169.801 62.3028L169.325 63.5704L169.014 64.8854L168.496 66.1401L168.561 67.5586L167.787 68.7443L167.709 70.1197L167.277 71.4132L166.927 72.7066L166.43 73.9699L166.206 75.3065L165.7 76.5483L165.54 77.8849L165.108 79.1482L164.819 80.4417L164.413 81.7093L164.326 83.0674L163.747 84.2876L163.371 85.5811L163.086 86.8745L162.861 88.1939L162.429 89.4572L162.092 90.7507L161.751 92.0442L161.371 93.3376L161.034 94.6311L160.602 96.1402L160.852 94.5664L160.567 93.2083L160.8 91.8674L160.619 90.5135L160.718 89.1683L160.844 87.8231V86.4736L161.112 85.1327L160.857 83.7788L160.887 82.4293L161.172 81.0884L161.142 79.7389L161.336 78.398L161.159 77.0441L161.276 75.6989L161.466 74.358L161.561 73.0128L161.414 71.6589L161.647 70.318L161.509 68.9642L161.691 67.6233L161.859 66.2824L161.945 64.9372L161.712 63.5747L162.01 62.2424L161.803 60.8842L161.833 59.5347L161.794 58.1852L162.019 56.8443V55.4948L162.196 54.1539V52.8043L162.321 51.4634L162.71 50.1354L162.455 48.773L162.823 47.445L162.775 47.3976L162.218 45.4617L162.512 45.1685L161.129 44.8667L159.833 44.3708L158.536 43.8621L157.128 43.6465L155.832 43.1119L154.535 42.5643L153.17 42.1849L151.537 42.9653L150.897 43.7974L150.245 44.6597L149.592 45.8627L149.243 47.1863L148.81 48.4798L148.456 49.7991L147.657 50.8943L147.043 52.1102L146.905 53.5114L146.361 54.7575L145.907 56.051L145.108 57.1978L144.779 58.5215L144.438 59.8409L143.729 61.0222L143.582 62.4106L143.15 63.704L142.347 64.8509L142.061 66.1875L141.349 67.3689L141.176 68.7486L140.722 70.0421L139.996 71.2191L139.504 72.4824L139.344 73.8708L138.583 74.9961L138.151 76.2896L137.775 77.5831L137.157 78.8032L136.985 80.183L136.514 81.4635L136.082 82.757L135.516 83.9944L135.083 85.1413L135.217 83.8823L135.373 82.494L135.291 81.0884L135.529 79.7087L135.42 78.3031L135.559 76.9148L135.818 75.5307L135.749 74.1295L135.84 72.7368L135.736 71.3356L136.069 69.9343L135.204 69.2574L134.772 68.2053L133.407 67.9725L132.089 67.6017L130.707 67.5155L129.51 66.8256L128.101 66.8041L126.74 66.5712L125.396 66.2651L124.411 66.3945L123.547 67.0628L123.029 68.3045L122.67 69.7963L121.992 70.7276L121.616 71.7926L121.495 72.9783L120.514 74.095L119.84 75.3497L119.594 76.8242L118.82 78.0358L117.999 79.2258L117.619 80.5926L116.815 81.7308L116.232 82.9941L115.346 84.0979L114.711 85.3439L113.977 86.5382L113.458 87.8317L112.909 89.1252L111.976 90.2031L111.544 91.5397L110.706 92.6736L110.494 93.9671L111.358 95.0148L112.581 95.6874L113.847 96.2868L115.1 96.9119L116.357 97.5328L117.451 97.5975L118.358 97.0628L119.2 96.1574L119.797 95.0493L120.635 94.1353L121.473 93.2126L121.106 94.5621L121.149 95.9418V97.3172L121.045 98.684L120.808 100.034L120.479 101.379L120.669 102.771L120.237 104.104L120.168 105.475L119.978 106.829L120.034 108.213L119.602 109.541L119.728 110.938L119.598 112.257L119.144 113.55L119.399 114.917L119.036 116.211L118.937 117.534L118.855 118.858L118.423 120.151L118.367 121.479L118.025 122.773L117.934 124.101L117.909 125.433L117.731 126.748L117.641 128.072L117.291 129.365L117.023 130.659L116.591 131.952L116.729 133.315L116.21 134.574L116.267 135.923L115.964 137.217L115.843 138.54L115.545 139.834L115.441 141.162L115.286 142.481L114.914 143.775L114.776 145.094L114.603 146.409L114.05 147.655L114.08 149.018L113.48 150.264L113.635 151.682L113.16 152.363L113.367 152.855L113.156 153.204L113.113 153.722L113.359 153.877L113.065 155.394L113.743 156.77L113.208 157.559L114.331 158.326L115.627 158.757L116.781 159.529L118.172 159.572L119.468 160.042L120.829 159.935H122.164L123.56 159.866L124.454 158.809L125.128 157.675L125.561 156.766L126.083 155.869L126.131 154.463L126.39 153.148L127.025 151.937L127.401 150.643L127.634 149.315L128.157 148.073L128.689 146.836L128.978 145.542L129.034 144.163L129.86 143.012L129.942 141.64L130.335 140.347L130.607 139.032L131.078 137.777L131.376 136.484L131.981 135.272L132.573 134.056L132.962 132.763L133.053 131.387L133.761 130.206L134.077 128.913L134.509 127.641L134.79 126.321L135.433 125.123L135.624 123.777L136.03 122.484L136.587 121.255L136.855 119.932L137.287 118.66L137.926 117.461L138.359 116.198L138.657 114.904L139.089 113.637L139.223 112.27L140.048 111.132L140.074 109.726L140.627 108.497L141.089 107.243L141.677 106.027L141.772 104.643L142.615 103.517L142.723 102.138L143.388 100.978L143.617 99.6843L144.269 98.5202L144.727 97.287L145.19 96.0582L145.622 94.8079L145.682 93.4368L146.361 92.2856L146.581 90.9706L147.29 89.828L147.48 88.5043L147.955 87.5083L147.894 88.6552L147.743 90.0048L148.089 91.3802L147.761 92.7254L147.713 94.0792L147.64 95.4374L147.99 96.7998L147.557 98.1494L147.899 99.5118L147.596 100.861L147.436 102.215L147.557 103.573L147.683 104.931L147.756 106.285L147.359 107.635L147.64 108.993V110.351L147.484 111.701L147.367 113.055L147.225 114.408L147.19 115.762L147.415 117.12L147.151 118.47L147.052 119.824L147.095 121.178L147.074 122.536L147.303 123.894L147.095 125.243L147.056 126.597L147.212 127.955V129.309L147.272 130.663L147.242 132.017L146.965 133.371L146.849 134.725L147.017 136.078L146.801 137.432L147.043 138.79L146.87 140.14V141.494L147.086 142.852L146.965 144.206L146.728 145.56L146.81 146.913L146.676 148.272L146.823 149.626V150.984L146.775 152.337L146.918 152.644L147.091 153.937L147.233 155.274L148.011 156.36L148.793 157.438L149.977 158.063L151.148 158.607L152.366 159.214L153.835 159.042L155.283 158.87L156.523 158.102L157.629 157.24L158.705 156.27L159.18 154.903L159.522 153.536L159.755 152.174L160.256 150.88V149.531L160.226 148.177L160.658 146.883L160.965 145.59L160.999 144.245L161.397 142.951L161.5 141.619V140.269L161.933 138.976L162.01 137.635L162.222 136.341L162.654 135.048L162.71 133.703L163.086 132.409L162.948 131.03L163.203 129.736L163.661 128.464L163.916 127.171L164.019 125.83L164.365 124.536L164.43 123.187L165.056 121.949L165.203 120.617L165.506 119.324V117.961L165.985 116.698L166.292 115.404L166.456 114.076L166.888 112.783L167.014 111.446L167.256 110.131L167.623 108.838L167.766 107.506L168.081 106.212L168.336 104.919L168.504 103.586L169.083 102.349L169.403 101.055L169.757 99.7619L169.93 98.4296L170.297 97.1361L170.492 95.8082L170.609 94.4629L171.265 93.2471L171.438 91.9148L171.684 90.5998L171.983 89.3063L172.238 87.9913L172.67 86.7279L173.102 85.456L173.633 84.2143L173.745 82.8648L173.936 81.5325L174.441 80.2821L174.791 78.9886L175.15 77.6952L175.279 76.3327L175.88 75.091L176.122 73.7587L176.467 72.4652L176.8 71.1717L177.15 69.8782L177.556 68.5848L177.88 67.2913L178.39 66.028L178.874 64.7604L179.021 63.3979L179.375 62.1044L179.92 60.8541L180.097 59.4959L180.443 58.2024L180.749 56.8788L181.393 55.5077V57.0254L181.173 58.3749L180.926 59.7244L180.814 61.0826L180.533 62.4278L180.611 63.8075L180.11 65.1269L180.049 66.4936L180.188 67.882L179.976 69.2315L179.578 70.5638L179.462 71.9219L179.41 73.293L179.302 74.6512L178.835 75.9748L178.917 77.3589L178.745 78.7127L178.567 80.0407L178.71 81.4074L178.278 82.7009L177.967 84.016L178.118 85.3784V86.7279L177.504 88.0214L177.79 89.4011L177.561 90.7248L177.228 92.0183L177.021 93.3462L176.956 94.6872L176.658 96.0065L176.809 97.369L176.377 98.6625L176.61 100.034L176.355 101.357L176.411 102.711L176.014 104.005L175.953 105.345L175.66 106.665L175.629 108.01V109.355L175.288 110.649L175.05 111.972L174.921 113.309L174.998 114.663L174.968 116.008L174.774 117.336V118.698L174.381 120.018V121.376L174.173 122.713L173.983 124.049L174.095 125.42L174.057 126.735L173.534 128.029L173.404 129.374L173.599 130.745L173.274 132.073L173.231 133.423L172.968 134.755L173.218 136.13L172.907 137.458L172.531 138.782L172.6 140.144V141.498L172.38 142.835L172.445 144.193L172.207 145.529L172.164 146.879L171.814 148.207L171.788 149.561L171.758 150.915L171.784 152.268V153.627L171.602 154.976L171.771 156.339V156.64L171.589 158.055L172.285 159.288L173.076 160.396L173.72 161.689L174.89 162.552L176.321 162.784L177.695 162.897L178.935 162.922L180.201 162.78L181.212 161.987L182.192 161.258L183.117 160.43L183.951 159.503L184.202 158.249L184.612 157.024L184.69 156.916L184.457 155.58L184.508 154.265L184.72 152.971L184.763 151.652L184.928 150.358L185.144 149.065L184.863 147.724L185.191 146.431L185.226 145.111V143.783L185.554 142.49V141.162L185.515 139.83L185.541 138.502L185.757 137.208V135.841L186.077 136.152L186.772 137.281L187.576 138.295L188.609 139.355L189.374 139.976L190.726 140.838L191.97 141.145L193.072 141.511L194.234 141.74L195.293 142.024L196.377 141.718L198.387 141.865L199.838 141.679L201.23 141.222L202.686 140.994L203.982 140.235L205.438 139.968L206.682 139.463L207.845 138.795L208.942 138.01L210.096 137.337L211.275 136.721L212.442 136.087L213.557 135.354L214.689 134.66L215.778 133.897L217.031 133.375L218.085 132.513L219.135 131.65L220.457 131.137L221.49 130.241L222.38 129.171L223.633 128.546L224.454 127.408L225.724 126.791L226.506 125.619L227.638 124.842L228.627 123.903L229.526 122.872L230.472 121.893L231.475 120.971L232.447 120.022L233.242 118.901L234.357 118.073L235.281 117.073L236.003 115.896L236.837 114.978L237.882 114.232L238.392 112.938L239.326 112.076L239.943 111.114L239.697 112.662L239.982 114.253L239.55 115.504L239.187 116.797L238.889 118.116L238.608 119.44L238.219 120.733L237.926 122.053L237.61 123.368L236.975 124.592L237.066 126.02L236.323 127.214L236.046 128.537L235.921 129.909L235.536 131.202L234.823 132.401L234.689 133.772L234.175 135.026L233.955 136.372L233.328 137.596L233.549 137.665L233.367 138.907L233.488 140.166L233.557 141.459L234.098 142.667L235.152 143.55L236.016 144.555L237.442 144.917L238.738 145.685L240.211 145.586L241.607 145.236L242.903 144.633L244.26 144.02L244.895 142.658L245.258 142.856L245.967 141.731L246.399 140.438L247.431 139.541L247.907 138.247L248.939 137.355L249.44 136.061L250.201 134.97L251.199 134.052L252.011 133L252.698 131.857L253.403 130.723L254.31 129.736L255.001 128.594L255.93 127.623L256.604 126.468L257.369 125.373L258.233 124.351L258.92 123.187L259.784 122.143L260.808 121.229L261.608 120.151L262.316 119.005L263.111 117.922L263.975 116.892L264.913 115.917L265.665 114.801L266.607 113.831L267.073 112.49L267.259 112.662L268.555 112.412L269.852 112.589L271.122 112.235L272.418 112.274L273.714 112.218L275.011 111.985L276.307 112.274L277.603 112.197L278.899 111.89L280.195 112.145L281.492 111.912L281.06 113.055L281.137 114.283L280.861 115.43L280.342 116.525V117.909L279.686 119.155L279.802 120.565L279.163 121.816L279.133 123.2L278.579 124.467L278.234 125.761L278.139 127.128L277.849 128.456L277.681 129.805L277.296 131.099L276.864 132.392L277.011 133.806L276.393 135.065L276.372 136.445L275.987 137.738L275.788 139.084L275.386 140.377L274.954 141.671V143.05L274.639 144.378L274.25 145.672L274.289 147.069L273.753 148.362L273.879 149.772L273.256 151.066L273.135 152.432L272.751 153.752L272.526 155.192V156.58L272.137 157.925L272.228 159.348L272.016 160.724L271.416 162.017L271.308 163.418L271.057 164.613L270.975 165.837L270.711 167.044L270.798 168.105L270.768 169.153L270.953 169.799L271.044 170.127L270.958 170.593L270.634 171.067L271.014 171.373L270.763 171.865L271.299 172.197L271.178 172.438L271.109 172.869L271.831 173.96L272.297 175.193L273.464 176.09L274.626 176.978L276.095 177.103L277.478 177.362H278.925L280.221 176.75L281.405 175.965L282.511 175.073L283.376 173.904L283.592 172.477L283.661 171.097V169.696L283.834 169.61L283.596 168.29L284.067 166.79L284.037 165.216L284.447 163.966L284.849 162.711L284.637 161.349L285.251 160.124V158.783L285.579 157.49V156.136L286.167 154.89V153.527L286.422 152.234L286.711 150.941L287.247 149.682L287.359 148.341L287.757 147.047L287.856 145.702L288.016 144.361L288.552 143.098L288.863 141.804L288.798 140.42L289.105 139.127L289.623 137.859L289.986 136.566L290.094 135.216L290.258 133.875L290.427 132.534L291.045 131.288V129.917L291.52 128.624L291.486 127.24L292.125 125.998V124.618L292.669 123.359L292.855 122.023L293.002 120.677L293.521 119.41L293.477 117.896L293.983 116.491L294.259 115.034L294.432 113.555L294.739 112.028L296.346 112.231L297.738 112.352L299.12 112.572L300.529 112.266L301.899 112.645L303.311 112.434L304.651 113.024L306.211 112.934L305.658 114.227L304.971 115.443L304.564 116.737L304.353 118.116L303.588 119.298L303.54 120.738L302.724 121.915L302.616 123.338L301.842 124.532L301.527 125.825L301.134 127.119L300.926 128.477L300.369 129.71L299.708 130.909L299.466 132.254L298.999 133.526L298.693 134.858L298.187 136.122L297.828 137.281L297.245 138.377L296.947 139.571L296.761 140.8L296.238 141.921L295.806 143.412L295.214 144.848L294.73 146.375L294.614 146.883L294.061 147.746L293.996 149.707L294.035 151.031L294.355 152.303L295.029 153.42L295.616 154.618L296.64 155.593L297.962 156.084L299.328 156.261L300.697 156.615L302.024 156.136L303.359 155.735L304.327 154.722L304.966 154.614L305.688 153.402L306.612 152.389L307.636 151.475L308.643 150.548L309.667 149.634L310.531 148.556L311.365 147.47L312.579 146.758L313.383 145.646L314.398 144.745L315.457 143.882L316.408 142.99L317.168 141.899L318.235 141.127L319.216 140.265L320.132 139.342L321.048 138.407L321.942 137.454L323.057 136.755L324.111 135.988L325.166 135.229L325.948 134.117L327.27 133.604L328.303 132.694L329.508 132.043L330.467 131.008L331.733 130.448L332.995 129.904L334.239 129.348L335.358 128.52L336.603 127.955L337.851 127.369L339.195 127.322L340.319 126.571L341.654 126.597L342.95 126.451L344.173 125.92L345.469 126.041L346.765 125.851L348.035 126.188L349.332 126.106L350.628 126.274V126.477L352.023 126.304L353.194 125.666L354.184 124.825L355.121 123.773L355.203 122.264L354.858 120.777L353.7 119.802L352.382 119.186ZM210.584 95.4977L211.72 94.7346L212.68 93.8033L213.514 92.7512L214.434 91.7811L215.458 90.9188L216.633 90.2462L217.584 89.2977L218.551 88.3534L219.783 87.78L220.937 86.8487L222.133 85.9864L223.598 85.5552L225.262 84.3566L225.106 85.469L224.976 86.7107L224.622 87.9007L223.758 89.164L223.032 90.4575L222.168 91.6733L221.446 92.9927L220.587 93.9671L219.77 95.0364L218.625 95.7866L217.856 96.9033L216.901 97.8475L215.644 98.4296L214.719 99.4083L213.76 100.357L212.559 100.982L211.357 101.672L210.217 102.457L209.132 103.358L207.901 104.013L206.488 104.276L205.261 104.919L203.883 105.186L202.807 105.69L203.239 104.66L204.202 103.746L204.894 102.642L205.555 101.512L206.345 100.473L207.257 99.5334L208.177 98.6021L209.042 97.632L209.685 96.4635L210.584 95.4977ZM286.197 90.0996L285.869 91.3931L285.998 92.7642L285.303 93.9542L285.082 95.2477L284.793 96.5411L284.542 97.8346L284.158 99.0936L284.054 100.413L283.808 101.706L283.376 102.952L283.324 104.285L282.861 105.522L282.135 105.548L280.839 105.578L279.543 105.772L278.277 106.083L276.981 105.975L275.711 106.208L274.414 106.152L273.166 106.648L271.869 106.742V106.182L272.988 105.32L273.593 104.073L274.427 103L275.399 102.034L276.324 101.034L276.868 99.7403L277.776 98.7271L278.891 97.8648L279.621 96.7136L280.355 95.5624L281.258 94.5492L281.937 93.3549L282.918 92.3934L283.639 91.2379L284.546 90.2203L285.35 89.1295L286.08 87.974L286.91 87.0211L286.659 88.5862L286.197 90.0996Z" fill="currentColor"></path><path d="M95.6031 129.187L95.6766 127.643L95.426 126.117L95.2747 124.371L94.9593 123.353L94.7908 122.659L94.8729 122.098L94.7735 121.728L94.3415 121.089L94.2075 120.805L93.5076 119.628L92.7514 118.636L92.0299 117.558L90.8676 116.998L89.6492 116.674L88.4221 116.467L87.1863 116.597L85.8901 116.894L84.7149 117.563L83.5396 118.304L82.7187 119.429L82.2866 120.749L81.9669 122.09V123.487L82.4681 124.78L82.3773 126.169L82.3428 126.104L82.4724 125.871H82.3989L82.2909 126.138L82.628 127.039L82.4681 128.186L82.5891 129.333V130.579L82.4594 131.817L82.4292 133.058L82.0662 134.287L82.2952 135.581L81.9021 136.84L81.9323 138.133V139.427L81.6903 140.686L81.5391 141.393L81.4441 142.492L81.012 143.51L80.554 144.687L80.3682 145.946L79.8368 147.131L79.517 148.356L79.2318 149.598L78.6096 150.736L78.2554 151.96L78.048 153.254L77.577 154.474L77.1104 155.694L76.445 156.846L76.2246 158.161L75.5851 159.316L75.3864 160.64L74.8333 161.834L74.4013 163.071L73.6451 164.249L73.2952 165.572L72.8631 166.866L72.4742 168.159L71.8736 169.422L71.2903 170.656L70.8582 171.949L70.2663 173.182L69.7867 174.454L69.4281 175.782L68.6763 176.95L68.309 178.27L67.7646 179.52L67.2504 180.783L66.9048 182.116L66.3517 183.362L65.7209 184.578L65.2888 185.871L64.7358 187.1L64.1784 188.346L63.5821 189.575L63.2278 190.907L62.4242 192.05L61.9921 193.343L61.4952 194.637L60.8558 195.848L60.3891 197.142L59.9311 198.435L59.283 199.604L58.7213 200.845L58.0602 202.044L57.6281 203.337L56.9368 204.536L56.4486 205.808L56.0381 207.101L55.5326 208.369L54.8586 209.555L54.1629 210.732L53.7309 212.025L53.2512 213.297L52.4865 214.444L52.1711 215.794L51.3501 216.915L51.0002 218.247L50.136 219.351L49.8465 220.717L49.0861 221.86L48.7274 223.188L47.8633 224.275L47.3016 225.512L46.8955 226.805L45.5474 229.177L45.0851 230.47L44.5536 231.725L43.7802 232.855L43.2142 234.096L42.6784 235.364L41.9871 236.532L41.4989 237.826L40.6866 238.934L40.1983 240.227L39.5243 241.426L38.7422 242.573L38.1373 243.81L37.4935 244.992L36.8238 246.199L36.2664 247.462L35.5276 248.626L34.7628 249.773L34.0283 250.937L33.3326 252.123L32.7407 253.365L31.9587 254.499L31.3192 255.719L30.5803 256.87L29.9149 258.065L29.2236 259.25L28.3076 260.281L27.5169 261.397L26.9941 262.691L25.9442 263.622L25.1708 264.743L24.4319 265.8V264.239L24.5486 262.622L24.4838 261.277L24.5313 259.966L24.743 258.638L24.6868 257.284L24.9504 255.96L25.1319 254.632L25.3652 253.309L25.4819 251.968L25.5251 250.618L25.8794 249.325L25.9917 247.98L26.3244 246.686L26.2596 245.311L26.4886 243.979L26.6658 242.638L27.1583 241.344L27.1886 239.973L27.4305 238.636L27.8021 237.343L28.1348 236.024V234.64L28.4589 233.32L28.973 232.027L29.1415 230.677L29.3144 229.328L29.6471 228.008L29.7767 226.65L30.1828 225.357L30.3557 224.007L30.697 222.688L30.9519 221.356L31.1377 220.006L31.6994 218.734L31.9025 217.389L31.9975 216.018L32.5203 214.724L32.8487 213.409L33.0345 212.055L33.2808 210.715L33.6092 209.395L34.0845 208.102L34.2789 206.752L34.456 205.394L34.9313 204.101L35.1387 202.751L35.3807 201.41L35.9726 200.181L36.1757 198.862L36.5732 197.569L36.7936 196.249L36.9578 194.921L37.2256 193.628L37.7398 192.382L38.0768 191.088L38.4354 189.795L38.5953 188.462L38.9453 187.169L39.1829 185.875L39.7101 184.634L39.8354 183.293L40.1162 181.999L40.6952 180.771L40.881 179.447L41.0754 178.123L41.5075 176.864L41.8877 175.571L42.1599 174.277L42.3025 172.941L42.6136 171.647L43.1926 170.418L43.4345 169.125L43.9228 167.87L44.2382 166.577L44.2771 165.214L44.7826 163.964L45.0418 162.67L45.2622 161.351L45.5776 160.058L45.9881 158.79L46.4202 157.497L46.7658 156.203L46.8825 154.858L47.4874 153.638L47.8158 152.344L47.9886 151.008L48.4207 149.714L48.762 148.421L49.1379 147.127L49.1898 145.76L49.5225 144.467L49.8767 143.173L50.2786 141.88L50.5854 140.586L50.8489 139.263L51.51 138.043L51.6828 136.706L52.0544 135.413L52.1624 134.063L52.7976 132.834L52.9056 131.476L53.2945 130.183L53.6055 128.889L53.8605 127.596L54.3357 126.35L54.6425 125.056L54.6901 123.698L55.2215 122.586L55.7011 121.465L56.2153 120.356L56.1159 119.093L55.2517 117.994L53.8907 117.83L52.5643 117.532L51.268 117.101L49.9718 116.722L48.6151 116.541L47.3578 115.963L45.9924 115.816L44.6962 115.428L43.3222 115.277L40.7298 114.415L38.8718 114.95L37.9342 116.334L37.1565 117.334L36.4609 118.412L35.4671 119.227L34.8103 120.348L33.8295 121.21L32.9654 122.254L31.9154 123.116L31.0038 124.112L30.1699 125.19L29.1934 126.125L27.9879 126.893L27.1238 127.932L26.1343 128.859L25.0887 129.721L24.1252 130.674L23.1141 131.61L22.0426 132.472L21.1784 133.584L20.081 134.421L19.0872 135.369L17.9551 136.167L16.9787 137.137L15.8898 137.948L14.9263 138.939L13.8418 139.802L12.9085 140.828L11.6598 141.479L10.6833 142.458L9.59884 143.32L8.54458 144.182L7.46439 145.045L6.38421 145.916L5.33427 146.808L4.16334 147.545L3.12637 148.447L2.92762 148.317L1.91657 149.179L1.31167 150.344L0.905518 151.581L0.996249 152.875L1.10859 154.168L1.71782 155.328L2.53443 156.319L3.68375 156.884L4.85035 157.367H6.11633L7.31749 157.074L8.54458 156.807L9.80624 156.268L10.8562 155.336L12.1308 154.763L13.2801 154.008L14.451 153.306L15.704 152.745L16.8274 151.965L18.0848 151.404L19.1866 150.581L20.392 149.934L21.5414 149.201L22.6647 148.416L23.84 147.722L25.1016 147.166L26.1343 146.248L27.3873 145.674L28.5021 144.881L29.5607 144.019L30.7229 143.307L31.9889 142.734L33.1555 142.014L34.1579 141.181L33.7474 142.384L33.6351 143.807L33.2549 145.161L32.6975 146.455L32.6068 147.886L32.2222 149.24L31.7383 150.564L31.3062 151.9L30.939 153.258L30.6408 154.638L30.2563 155.992L30.01 157.285L29.7292 158.579L29.1502 159.803L29.0378 161.161L28.394 162.369L28.286 163.727L27.854 164.99L27.3398 166.236L27.0849 167.556L26.7003 168.849L26.5793 170.203L26.0868 171.453L25.7584 172.747L25.3868 174.04L25.1708 175.368L24.7862 176.662L24.4665 177.955L23.9783 179.21L23.4857 180.46L23.3301 181.805L22.9413 183.099L22.6129 184.392L22.3104 185.686L21.9734 186.979L21.6148 188.273L21.1827 189.566L20.8155 190.86L20.5476 192.153L20.3316 193.485L19.8995 194.779L19.597 196.072L18.9921 197.301L18.7588 198.638L18.4607 199.957L18.0027 201.251L17.9638 202.635L17.307 203.868L17.078 205.2L16.8793 206.545L16.6416 207.882L16.2355 209.175L15.7473 210.447L15.501 211.78L15.2763 213.116L15.0257 214.448L14.706 215.742L14.1097 216.992L14.0708 218.376L13.7468 219.67L13.2455 220.963L12.8653 222.257L12.5974 223.585L12.2647 224.9L12.1913 226.271L11.7592 227.564L11.6469 228.922L11.137 230.216V231.6L10.6661 232.893L10.5494 234.252L10.0223 235.545L10.0828 236.938L9.77599 238.261L9.38713 239.555L9.19701 240.848L9.13219 242.176L8.70012 243.444L8.62235 244.772L8.22052 246.065L8.30262 247.415L8.09522 248.708L7.89647 250.002L7.71932 251.295L7.5897 252.589L7.20515 253.882L7.29588 255.223L7.11009 256.517L7.04096 257.84L6.95886 259.168L6.69963 260.462V261.803L6.53544 263.019L6.70827 264.239L6.67802 265.459L6.74283 266.683L6.65642 267.912L6.76876 269.288L6.66938 270.693L6.93726 272.056L7.26132 273.414L7.62858 274.755L7.7582 275.768L8.19028 276.695L8.50569 277.73L8.97665 278.937L9.36552 280.23L9.96178 281.429L11.1154 282.602L12.0833 283.895L13.1073 284.615L13.9412 285.585L15.0689 286.146L16.8534 287.086L18.0113 287.314L19.1131 287.746L20.4093 287.849L21.7055 287.767H23.0018L24.298 287.56L25.5467 287.211L26.7565 286.78L27.854 286.211L28.9601 285.654L30.0143 285.021L30.9174 284.158L32.4339 282.917L33.8814 281.808L34.6721 280.765L36.2967 278.756L37.3337 277.945L38.1632 276.949L38.915 275.893L39.4724 274.699L40.3366 273.711L41.1532 272.702L41.8143 271.607L42.6784 270.616L43.266 269.456L44.0567 268.43L44.6703 267.291L45.4523 266.149L46.0572 264.898L46.8911 263.782L47.3232 262.428L48.1096 261.285L48.87 260.125L49.6434 258.974L50.2397 257.724L50.8878 256.517L51.4409 255.223L52.1451 254.037L52.8581 252.852L53.4154 251.588L54.0981 250.386L54.6728 249.131L55.3598 247.937L55.7918 246.643L56.4832 245.475L57.1702 244.302L57.5547 242.983L58.2849 241.831L59.0108 240.676L59.3089 239.318L60.0175 238.154L60.7088 236.981L61.0243 235.636L61.7069 234.459L62.4717 233.32L63.0161 232.079L63.3488 230.738L64.0358 229.565L64.5586 228.315L65.0425 227.047L65.79 225.9L66.261 224.628L66.6455 223.335L67.4103 222.192L67.9374 220.946L68.4905 219.709L68.9701 218.441L69.4367 217.169L70.0805 215.97L70.6077 214.724L71.0397 213.431L71.6965 212.237L72.2279 210.995L72.444 209.619L72.9927 208.386L73.4248 207.166L74.0815 206.036L74.7124 204.894L74.8938 203.6L75.408 202.415L76.0129 201.268L76.6049 200.112L76.903 198.922L76.6653 200.168V201.514L76.2332 202.807L76.0993 204.139V205.493L75.732 206.813L75.5679 208.158L75.3432 209.499L75.1833 210.844L74.9846 212.185L75.0062 213.56L74.6087 214.854L74.4747 216.203L74.1161 217.523V218.902L73.913 220.243L73.5328 221.537L73.4723 222.908L73.0402 224.201L72.8804 225.555L72.7896 226.918L72.4872 228.241L72.189 229.569L71.865 230.889L71.6273 232.242L71.4718 233.596L71.3465 234.954L70.8107 236.248L70.7546 237.623L70.2663 238.917L69.9898 240.245L69.7781 241.586L69.2812 242.879L68.9787 244.194L68.9269 245.574L68.3781 246.755L68.0066 247.975L67.7905 249.243L67.4578 250.476L67.1727 251.726L66.8745 252.938L66.3949 254.137L66.1789 255.404L65.6734 256.607L65.5221 257.901L64.9648 259.104L64.563 260.332L64.416 261.626L63.9191 262.837L63.6426 264.131L63.392 265.424L63.0204 266.67L62.4371 267.86L62.1001 269.124L61.8236 270.396L61.6767 271.689L61.0891 272.901L60.9594 274.22L60.657 275.514L60.3373 276.807L59.9398 278.066L59.6416 279.359L59.0972 280.549L58.7991 281.877L58.6651 283.249L58.38 284.667L58.4232 285.447L58.2547 286.607L58.0905 287.866L58.3281 289.138L59.1577 290.143L59.7496 291.272L60.7953 292.001L61.8106 292.76L63.055 293.001L64.2778 293.376L65.7079 293.256L67.0042 292.661L68.2226 291.992L69.3979 291.182L70.1713 289.983L70.6552 288.66L70.8194 287.276L70.8453 287.254L71.1089 287.038L71.1737 286.547V285.387L71.3292 284.18L71.5409 282.981V281.714L71.8218 280.485L71.9514 279.234L72.3057 278.014L72.4007 276.721L72.902 275.522L72.9754 274.229L73.3729 273.008L73.4248 271.715L73.6149 270.452L73.9217 269.214L74.3148 267.99L74.5784 266.735L74.7642 265.468L75.0839 264.278L75.2092 262.984L75.7752 261.794L75.9006 260.501L76.2678 259.263L76.311 257.97L76.674 256.741L77.0239 255.508L77.2054 254.214L77.5856 252.985L78.0177 251.739L78.2208 250.446L78.3461 249.152L78.7436 247.885L79.0461 246.57L79.1497 245.216L79.409 243.888L79.6726 242.564L80.1046 241.271L80.312 239.939L80.5713 238.615L80.4935 237.235L81.012 235.942V234.575L81.3317 233.281L81.6385 231.962L81.5521 230.587L81.7292 229.254L82.0187 227.931L82.2996 226.611L82.3342 225.258L82.4205 223.908L82.7014 222.589L82.8915 221.256L82.9347 219.903L83.1507 218.575L83.6347 215.923L83.8896 214.599L83.8464 213.237L84.2266 211.943L84.0884 210.572L84.4513 209.279L84.3908 207.916L84.6933 206.597L84.8142 205.256L84.9698 203.915L85.2766 202.596L85.4235 201.259L85.579 199.918L85.6568 198.573L85.8296 197.237L86.0068 195.9L85.9592 194.542L86.1061 193.205L86.2833 191.869L86.6117 190.549L86.6506 189.2L86.8839 187.872L86.7975 186.509L86.8795 185.164L86.9789 183.819L87.1086 182.478L87.4629 181.184L87.5795 179.839L87.6357 178.494L87.7134 177.149L87.8647 175.812L88.0246 174.476L88.1067 173.13L88.2147 171.789L88.4177 170.457L88.543 169.116L88.8239 167.793L88.7245 166.422L89.0918 165.154L89.7053 163.981L90.1763 162.761L90.4615 161.468L90.7207 160.174L91.2392 158.963L91.6713 157.725L92.1595 156.406L92.3323 155L92.7298 153.655L93.0755 152.297L93.6501 151.003L94.0822 149.662L94.2421 148.248L94.5532 146.873L94.7995 145.321L95.1235 143.786L95.5038 141.854L95.3914 140.405L95.5297 139.03L95.426 137.642L95.5469 136.266L95.6593 134.878L95.534 133.459L95.8192 132.037L95.6895 130.614L95.6031 129.187ZM20.0291 270.422L19.9038 270.378H20.0161L20.0291 270.422Z" fill="currentColor"></path><path d="M128.015 172.681L127.423 173.354L126.619 174.647L125.755 175.889L125.094 177.243L124.325 178.537L123.837 179.77L123.193 180.951L122.588 182.145L122.217 183.439L121.599 184.633L121.089 185.871L120.696 187.164L120.22 188.393L119.711 189.579L119.205 190.76L118.773 191.976L118.341 193.183L117.974 194.416L117.541 195.615L116.975 196.775L116.582 197.995L116.211 199.206L115.666 200.357L115.308 201.569L114.876 202.763L114.495 203.975L114.128 205.191L113.592 206.355L113.199 207.566L112.65 208.821L112.257 210.115L110.961 213.995L110.468 215.289L109.902 216.552L109.959 215.211L109.833 213.874L110.002 212.538L109.855 211.201L109.915 209.86L109.95 208.528L109.786 207.187L109.915 205.855L109.794 204.522L109.842 203.186L109.777 201.845L109.928 200.508L109.855 199.167V197.827L109.92 196.486L109.825 195.145V193.808L109.894 192.467V191.118L109.76 189.768L109.825 188.419L109.864 187.388V186.668L109.319 185.276L108.762 184.211L107.82 183.348L106.683 182.745L105.443 182.499L104.26 182.451L103.071 182.71L102.026 183.301L101.162 183.986L100.781 184.56L100.6 184.827L100.38 184.956L99.9474 185.745L99.6061 186.75L99.2086 187.725L98.8111 188.915L98.4179 190.109L97.8475 191.238L97.4371 192.644L97.005 194.054L96.5038 195.442L96.0501 196.848L95.5273 198.228L95.0952 199.495L94.5595 200.715L94.1274 201.974L93.7688 203.268L93.3021 204.514L92.8441 205.764L92.5719 207.058L92.0059 208.278L91.7251 209.571L91.2498 210.813L90.848 212.107L90.364 213.348L90.1091 214.642L89.6079 215.875L89.2666 217.168L88.8734 218.436L88.4413 219.691L88.0524 220.958L87.4951 222.183L87.2574 223.506L86.6914 224.735L86.0087 227.322L85.5378 228.585L85.1316 229.879L84.8076 231.172L84.3236 232.427L83.8613 233.69L83.5675 234.984L83.1354 236.277L82.7941 237.571L82.4917 238.886L82.0164 240.179L81.9472 241.52L82.4614 242.728L83.2694 243.736L84.3971 244.375L85.7365 244.659L87.0328 244.155L88.1648 243.4L88.6962 242.15L88.7783 242.072L89.1758 240.826L89.7246 239.64L90.0745 238.381L90.4764 237.135L90.8566 235.885L91.3664 234.678L91.8677 233.462L92.2997 232.207L92.8009 230.991L93.233 229.758L93.6046 228.504L94.1965 227.352L94.5768 226.124L95.052 224.934L95.51 223.731L95.873 222.493L96.3483 221.303L96.8667 220.13L97.2729 218.906L97.7611 217.712L98.2364 216.509L98.7074 215.327L98.7376 216.673L98.5173 218.031V219.393L98.4784 220.756L98.3617 222.118V224.852L98.2235 226.205L98.1543 227.572L98.029 228.926L98.0549 230.289L97.9081 231.647L97.8865 233.013L97.9167 234.385L97.8865 235.747L97.7568 237.114L97.6186 238.476V241.21L97.4371 242.572L97.5278 243.952L97.3161 245.323L97.3896 246.703L97.2945 248.026L97.8087 249.251L98.3012 250.467L99.2172 251.411L100.116 252.381L101.304 252.989L102.721 253.265L104.152 253.377L105.577 253.166L106.874 252.528L108.006 251.665L109.025 250.657L109.673 249.363L109.738 249.078L110.058 247.759L110.265 246.414L110.697 245.12L110.918 243.775L111.25 242.456L111.652 241.162L111.955 239.839L112.279 238.519L112.624 237.226L112.91 235.902L113.303 234.609L113.735 233.315L114.124 232.022L114.495 230.728L114.798 229.409L115.23 228.146L115.571 226.852L116.003 225.58L116.362 224.287L116.729 222.993L117.235 221.752L117.667 220.484L117.917 219.16L118.501 217.949L118.903 216.655L119.767 214.129L120.259 212.887L120.652 211.593L121.084 210.339L121.633 209.024L122.065 207.661L122.64 206.368L123.18 205.053L123.75 203.759L124.269 202.44L124.757 201.103L125.34 199.969L125.803 198.788L126.39 197.658L126.784 196.438L127.337 195.291L127.868 194.14L128.499 193.088V194.382L128.404 195.735L128.235 197.081L128.093 198.43L128.14 199.788L127.998 201.138L127.751 202.474L127.7 203.828L127.643 205.182L127.496 206.532L127.462 207.886L127.276 209.231L127.22 210.58L127.064 211.925L126.956 213.275L126.887 214.629L126.477 215.987L126.39 217.341V218.699L126.135 219.992L125.989 221.286L125.919 222.579L125.816 223.873L125.664 225.166L125.427 226.46L125.345 227.753L125.271 229.047L125.029 230.34L124.934 231.634L124.818 232.927L124.498 234.221L124.394 235.514L124.178 236.808L124.057 238.101L123.966 239.395L123.811 240.688L123.513 242.029L123.305 243.383L123.085 244.737L122.968 246.103L122.739 247.457L122.575 248.82L122.238 250.156L122.121 251.527L121.91 252.886L121.53 254.209L121.352 255.576L121.171 256.939L120.834 258.271L120.527 259.603L120.268 260.948L120.073 262.298L120.048 262.41L119.745 263.82L119.957 265.251L120.354 266.653L121.141 267.89L122.277 268.795L123.439 269.658L124.822 270.089L126.075 270.188L127.324 270.093L128.546 269.804L129.691 269.278L130.702 268.511L131.437 267.485L132.189 266.463L132.586 265.256L132.798 263.902L133.139 262.578L133.42 261.246L133.718 259.914L133.822 258.547L134.073 257.206L134.328 255.865L134.604 254.533L134.816 253.187L134.997 251.838L135.403 250.523L135.524 249.169L135.758 247.832L135.84 246.47L136.207 245.151L136.285 243.792L136.51 242.452L136.682 241.119L136.829 239.787L137.093 238.494L137.261 237.161V235.812L137.46 234.488L137.797 231.828L137.892 230.491L138.225 229.198L138.281 227.853L138.402 226.52L138.596 225.192L138.761 223.86L138.812 222.519L139.085 221.226L139.115 219.88L139.275 218.531L139.301 217.164L139.474 215.815L139.642 214.461L139.858 213.115L139.957 211.757L140.07 210.399L140.096 209.037L140.325 207.692L140.294 206.32L140.489 204.971L140.549 203.613L140.74 202.263L140.817 200.905V199.538L140.93 198.184L141.141 196.835L141.163 195.472L141.258 194.114L141.401 192.76L141.47 191.402L141.552 190.044L141.69 188.686L141.63 187.319L141.772 185.965L141.824 184.607L141.984 183.253L142.01 181.891L142.144 180.537V179.175L142.243 177.816V176.523L141.012 176.036L139.716 175.764L138.419 175.406L137.123 175.079L135.827 174.734L134.531 174.415L133.234 174.104L131.938 173.699L130.642 173.406L129.367 172.936L128.015 172.681ZM137.041 180.757L136.903 180.636H137.006L137.438 180.403L137.041 180.757Z" fill="currentColor"></path><path d="M449.03 223.02L447.621 222.818L446.2 222.887L444.783 222.848L443.361 223.068L441.948 222.986L440.535 222.555L439.11 222.684L437.679 222.826L436.258 222.395L434.91 222.628L433.57 222.658L432.235 222.835L430.9 223.051L429.548 222.714L428.213 222.861L427.076 222.697L426.994 221.619L426.873 220.326L426.718 219.032L426.597 217.739L426.675 216.445L426.843 215.152L427.042 213.858L426.666 212.565L427.215 211.215L426.783 209.87L426.981 208.525L427.111 207.175L426.597 205.83L427.029 204.48L426.649 203.14L426.791 201.756L426.575 200.406L427.055 199.018L426.826 197.642L426.739 196.267L426.942 194.887L426.631 193.516L426.571 192.141L426.761 190.757L426.679 189.381L426.217 188.023L426.359 186.665L426.402 185.281L426.489 183.893L425.992 182.543L426.294 181.138L426.16 179.762L425.728 178.413L425.486 177.046L425.4 175.657L425.357 174.295L424.579 173.178L423.857 172.062L422.721 171.359L421.606 170.712L420.353 169.923L418.889 169.802L417.506 170.298L416.184 170.807L415.125 171.704L414.287 172.808L413.185 173.821L412.788 175.407L413.017 176.235V176.666L413.043 177.266L412.74 178.382L412.598 179.525L411.962 180.616L411.699 181.784L411.638 183L411.206 184.121L410.74 185.415L410.856 186.881L410.018 188.075L410.066 189.536L409.331 190.752L408.972 192.089L408.29 193.318V194.788L407.529 195.987L407.261 197.362L406.803 198.656L406.177 199.897L405.719 201.191L404.729 202.273V203.769L403.71 204.834L403.368 206.197L402.984 207.542L402.202 208.706L401.61 209.956L401.251 211.319L400.43 212.371L399.661 213.449L399.372 214.742L398.581 215.807L398.097 217.023L397.665 218.278L396.715 219.252L396.196 220.455L395.924 221.792L394.576 224.034L393.582 224.973L393.31 226.319L392.402 227.216L391.288 228.005L389.944 228.216L388.648 228.647H387.226L386.021 229.315L384.781 229.867L383.579 230.514L382.24 230.798L380.944 231.152L379.76 231.829L378.464 232.23L377.254 232.838L376.161 233.7L374.748 233.924L373.685 234.787L372.471 235.403L371.339 236.08L370.388 237.05L369.252 237.723L368.046 238.292L367.066 239.193L365.938 239.892L364.845 240.638L363.803 241.336L363.752 240.043L364.503 238.835V237.594L364.663 236.382L365.095 235.218L365.203 233.993L365.307 232.76L365.83 231.467L366.145 230.139L366.647 228.845L366.681 227.453L367.26 226.185L367.442 224.827L367.489 223.434L367.705 222.08L368.241 220.787L368.811 219.519L368.932 218.144L369.114 216.781L369.814 215.548L369.688 214.104L370.496 212.905L370.436 211.474L371.3 210.293L371.118 208.827L371.818 207.598V206.171L372.726 205.002L373.041 203.666L373.067 202.251L373.581 200.958L374.104 199.664L374.221 198.272L374.471 196.918L375.167 195.693L375.431 194.344L375.681 192.986L376.217 191.718L376.368 190.33L377.124 189.131L377.28 187.743L377.759 186.449L378.433 185.229L378.766 183.897L379.159 182.578L379.591 181.284L379.838 179.917L380.399 178.663L381.013 177.425L381.553 176.162L382.015 174.868L382.275 173.506L382.88 172.286L383.191 170.954L383.713 169.699L384.068 168.38L384.452 167.086L385.269 165.935L385.818 164.693V163.231L386.837 162.192V162.029L387.213 160.843L387.308 159.549V158.256L386.729 157.087L386.107 155.997L385.468 154.884L384.31 154.302L383.329 153.496L382.132 153.065L380.862 152.784L379.565 152.97L378.408 153.539L377.137 153.858L376.217 154.768L375.206 155.609L375.007 156.949L374.605 158.105L374.394 159.493L373.637 160.787L373.676 162.236L373.357 163.598L372.821 164.891L372.354 166.211L372.48 167.672L372.026 168.996L371.248 170.251L371.08 171.63L370.902 173.01L370.47 174.304L370.375 175.705L369.809 176.998L369.641 178.378L369.183 179.672L368.88 181.021L368.699 182.401L367.878 183.608L367.662 184.979V186.402L366.901 187.626L366.469 188.92L366.301 190.304L366.024 191.658L365.592 192.973L364.927 194.219L364.741 195.599L364.59 196.991L363.933 198.237L363.734 199.613L363.479 200.975L362.615 202.165L362.421 203.541L361.894 204.834L361.673 206.209L361.565 207.546L361.28 208.84L360.58 210.008L360.178 211.263L359.746 212.509L359.656 213.85L359.223 215.1L359.007 216.393L358.286 217.558L358.26 218.916L357.975 220.209L357.171 221.352L357.046 222.684L356.916 224.016L356.342 225.228L355.953 226.388L354.708 226.133L353.369 226.396L352.103 226.629L350.699 226.698L349.644 227.56L348.201 228.138L346.849 228.854L345.864 229.893L344.507 230.143L343.323 230.773L342.092 231.458L340.796 231.98L339.43 232.325L338.065 232.661L336.73 233.092L335.52 233.898L334.025 233.873L332.681 234.304L331.415 234.985L330.015 235.239L328.65 235.61L327.272 235.903L325.414 236.805L325.669 235.162L326.101 233.868L326.615 232.609L326.965 231.316L327.25 229.979L328.227 228.876L328.373 227.513L328.862 226.258L328.905 224.861L329.834 223.749L329.881 222.352L330.396 221.106L330.784 219.813L331.104 218.519L331.804 217.333L332.21 216.04L332.176 214.617L332.694 213.367L333.152 212.103L333.627 210.844L333.882 209.508L334.867 208.417L335.01 207.046L335.377 205.752L335.961 204.528L336.462 203.278L336.635 201.911L337.499 200.781L337.607 199.397L338.138 198.151L338.246 196.771L338.825 195.547L339.396 194.322L340.117 193.141L340.484 191.848L340.917 190.554L341.085 189.183L341.871 188.023V186.6L342.563 185.41L342.852 184.078L343.548 182.884L343.911 181.569L344.075 180.189L344.555 178.934L345.337 177.783L345.553 176.434L345.985 175.166L346.568 173.941L346.944 172.648L347.376 171.355L347.964 170.13V168.712L348.577 167.491L348.94 166.198L349.618 164.995L349.908 163.658L350.5 162.537L350.716 161.278L351.23 160.127L351.36 158.834L352.289 157.851L352.531 156.592L353.058 155.449L353.585 154.074L354.194 152.737L354.726 151.353L355.313 149.917L356.177 148.624L356.735 147.162L357.288 146.977L357.962 145.657L358.031 144.174V142.846L357.465 141.643L357.175 140.35L356.355 139.298L355.413 138.341L354.142 137.909L352.954 137.34H351.658L350.401 137.612L349.074 137.577L347.778 137.953L347.061 139.168L346.037 139.949L345.527 141.126L345.159 142.32L344.727 143.54L344.758 144.972L344.243 146.326L344.209 147.766L343.777 149.171L343.47 150.607L343.232 152.06L342.852 153.259L342.17 154.367V155.66L341.47 156.755L341.18 157.98L341.033 159.273L340.545 160.433L339.724 161.567L339.171 162.8L338.307 165.387L338.216 166.832L337.728 168.091L336.946 169.246V170.682L336.458 171.937L335.796 173.14L335.196 174.364L334.729 175.657L334.384 176.981L333.9 178.236L333.636 179.572L333.308 180.866L332.474 182.008L332.439 183.423L331.497 184.522L331.467 185.941L330.866 187.161L330.145 188.342L329.868 189.666L329.372 190.921L329.311 192.335L328.628 193.52L328.227 194.814L327.751 196.073L327.527 197.431L327.03 198.686L326.628 199.979L325.949 201.178L325.258 202.372L325.137 203.76L324.623 205.011L324.213 206.304L323.832 207.598L323.4 208.891L322.921 210.185L322.324 211.439L321.832 212.733L321.495 214.078L321.253 215.458L320.665 216.712L320.263 218.04L319.356 219.196L319.071 220.571L318.678 221.904L318.146 220.921L316.958 220.658L316.094 219.562L314.798 219.377L313.501 219.511L312.3 219.813L311.09 220.054L309.842 220.412L308.956 221.352L308.317 222.438L307.789 223.408L307.128 224.271L305.992 224.9L305.59 226.125L304.786 226.987L303.724 227.621L302.799 228.358L301.982 229.22L301.006 230.022L300.28 231.135L299.122 231.725L298.258 232.708L296.962 233.058L296.098 234.118L294.801 234.364L293.725 235.11L292.377 235.063L291.267 235.899L289.971 235.977L288.674 235.77L287.404 235.731H286.034L284.872 234.959L283.576 234.649L282.569 233.726L281.174 233.42L280.115 232.558L279.273 231.842L278.616 231.234L277.549 229.94L277.194 228.259L276.438 226.72V223.814L276.594 222.369L277.173 221.02L277.406 219.597L278.032 218.303L278.106 217.04L278.763 215.798L279.419 216.993L279.795 218.127L280.577 219.023L281.221 220.127L282.479 220.727L283.749 221.05L285.019 221.166L286.285 221.395L287.504 220.964L288.705 220.619L289.798 220.011L291.012 219.489L291.988 218.597V217.868L293.013 216.95L293.626 215.712L294.853 214.988L295.575 213.824L296.62 212.961L297.389 211.836L298.565 211.107L299.455 210.098L300.293 209.038L301.334 208.279L302.293 207.417L303.227 206.554L304.19 205.718L305.054 204.778L306.048 203.972L307.029 203.148L307.755 202.066L308.68 201.178L309.833 200.479L310.572 199.358L311.389 198.328L312.253 197.323L313.501 196.689L314.413 195.732L315.225 194.689L315.705 193.395L316.677 192.486L317.541 191.572L318.189 190.494L319.097 189.58L319.529 188.368L320.298 187.351L320.778 186.001L321.43 184.708L321.676 183.289L322.281 181.965L321.996 180.474L322.298 179.309L322.493 178.119L322.614 176.886L322.268 175.696L321.754 174.161L320.73 172.553L320.168 171.605L319.529 170.678L318.501 170.039L317.161 169.134L315.999 168.789L315.165 168.492L313.674 168.686L312.555 168.578L311.691 168.552L310.464 169.341L309.341 169.488L308.131 169.764L307.34 170.816L306.199 171.225L304.977 171.803L304.208 172.997L303.041 173.653L301.788 174.235L300.824 175.157L300.168 176.395L299.053 177.154L298.189 178.154L297.372 179.202L296.132 179.991L295.268 181.142L294.555 182.405L293.293 183.186L292.373 184.268L291.414 185.311L290.55 186.436L289.711 187.575L288.614 188.472L287.676 189.515L286.89 190.688L285.767 191.55L284.816 192.585L284.315 193.999L283.343 195.012L282.522 196.15L281.364 197.013L280.249 197.931L279.787 199.376L278.849 200.432L277.786 201.398L276.745 202.389L276.002 203.605L275.138 204.739L274.611 205.959L273.53 206.822L272.865 207.956L272.433 209.249L271.495 210.215L270.89 211.379L270.229 212.513L269.698 213.716L269.149 214.906L268.998 216.268L268.207 217.372L267.9 218.666L267.282 219.864L267.369 221.24L267.14 222.533L266.708 223.801L266.902 225.129L266.513 226.422L266.695 227.737V228.168L265.58 227.418L264.461 226.677L263.355 225.909L262.21 225.215L260.948 224.723L259.652 224.292L258.714 223.184L257.353 222.869L256.355 221.912L255.167 221.283L253.91 220.765L252.899 219.817L251.702 219.183L250.285 218.946L249.326 217.898L248.193 217.157L246.897 216.678L245.752 216.027L244.517 215.466L243.298 214.867L242.24 214.005L240.835 213.337L242.343 212.832L243.454 211.935L244.862 211.685L246.158 211.22L247.282 210.357L248.66 210.06L249.879 209.4L251.084 208.697L252.38 208.197L253.823 208.055L255.059 207.529L256.256 206.908L257.353 206.046L258.771 205.929L259.846 205.067L261.048 204.463L262.253 203.885L263.515 203.411L264.69 202.76L266.06 202.458L267.33 201.756L268.423 200.764L269.633 199.975L270.64 198.906L271.798 198.043L273.185 197.349L274.334 196.327L274.766 194.805L275.738 193.546L275.833 191.675L275.997 190.114L275.297 188.7L275.112 187.432L274.425 186.372L273.396 185.617L272.584 184.708L271.798 183.578L270.657 182.854L269.49 182.185L268.194 181.556L266.963 180.81L265.891 179.736L264.595 179.072L263.169 178.706L261.873 178.201L260.624 177.628L259.22 177.486L257.971 176.899L256.632 176.593L255.4 175.951L254.022 175.778L252.843 174.916L251.443 174.821L250.198 174.179H248.794L247.446 173.954L246.15 173.545L244.879 173.006L243.544 172.721L242.183 172.579L240.887 172.213H239.5L238.26 171.445H236.873L235.577 171.04L234.168 171.225L232.846 170.867L231.515 170.548H230.146L228.819 170.199L227.497 169.768L226.123 169.746L224.736 169.863L223.397 169.496L223.354 169.423L222.139 169.699L220.912 169.927L219.737 170.359L218.467 170.79L217.564 171.76L216.738 172.868V174.248L215.969 175.399L216.358 176.692L216.414 177.986L216.743 179.279L217.862 180.068L218.752 180.931L219.69 181.763L220.804 182.405H222.101L223.336 182.246L224.278 182.405L224.416 183.828L224.779 185.173L224.831 186.549V189.252L224.801 190.636L225.276 191.968L225.008 193.374L225.644 194.697L225.397 196.099L225.877 197.444L225.726 198.837L225.894 200.203L226.002 201.57L225.829 202.963L225.937 204.33L226.024 205.701L226.244 207.033L226.028 206.904L225.937 206.861L226.006 207.184L224.836 207.662L223.751 208.331L222.887 208.93L222.429 207.839L221.997 206.447L220.99 205.339L220.195 204.153L219.396 202.984L218.532 201.859L217.944 200.6L216.985 199.66L215.905 198.854L214.811 198.082L213.753 197.267L212.664 196.491L211.472 195.883L210.266 195.288L209.108 194.616L207.92 194.128L206.805 193.421L205.457 193.395L204.208 193.102L203.068 192.404L202.022 192.132L202.731 191.671L203.444 190.808L204.524 190.119L205.388 189.179L206.196 188.114L206.269 186.751L206.472 185.492L206.308 184.125L206.239 182.668L205.613 181.344L204.455 180.482L203.405 179.62L202.277 179.029L201.249 178.4L200.207 177.624L198.911 177.438L197.792 176.904L196.496 176.787L195.347 176.317L194.171 175.886L192.875 175.813L191.704 175.024L190.408 174.933L189.151 174.593L187.854 174.446L186.528 174.467L185.327 173.86H184.031L182.734 173.666L181.412 173.346L180.116 172.95L178.764 172.812L177.467 172.437L176.137 172.191L174.78 172.066L173.484 171.734L172.187 171.385L170.891 171.07L169.474 171.217L168.234 170.553L166.938 170.121H165.551L164.311 169.488L162.984 169.207L161.688 168.875L160.392 168.526H159.096L157.834 168.599L156.538 168.668L155.544 169.574L154.446 170.177L153.405 170.954L152.593 171.997L152.437 173.325L152.226 174.567L151.945 175.86L152.493 177.154L152.969 178.447L154.071 179.309L155.099 180.172L156.075 181.107L156.127 182.362L155.496 183.647L155.388 184.962L155.324 186.286L154.995 187.579L154.801 188.873L154.999 190.239L154.278 191.507L154.559 192.947L154.053 194.24L154.14 195.65L153.5 196.944V198.341L153.068 199.634L152.705 200.958L152.234 202.251L152.385 203.691L151.837 204.985L151.746 206.369L150.964 207.585L151.046 209.012L150.506 210.305L150.221 211.642L149.819 212.936L149.542 214.281L149.08 215.574L148.579 216.868L148.052 218.161L147.844 219.588L146.92 220.727L146.751 222.188L145.649 223.219L145.217 224.568L144.586 225.827L143.722 226.944L143.014 228.16L142.417 229.453L141.251 230.316L140.892 231.665L140.823 233.028L140.78 234.381L141.065 235.722L141.739 236.917L142.685 237.874L143.446 239.021L144.539 239.883L145.9 240.189L147.235 240.517L148.609 240.387H149.979L151.128 239.698L152.143 238.835L152.878 237.762L153.561 236.705L154.127 235.576L154.68 234.601L155.816 235.119L156.823 236.097L158.033 236.813L159.104 237.719L160.176 238.637L161.239 239.603L162.457 240.318L163.913 240.573L165.209 241.056L166.307 242.056L167.793 242.112L168.925 243.03L170.286 243.306L171.544 243.932L172.879 244.298L174.287 244.35L175.609 244.751L176.979 244.945L178.362 245.001L179.705 245.38L181.075 245.566L182.475 245.268L183.836 245.566L185.21 245.777L186.588 245.428H187.962L189.336 245.255L190.715 245.147L192.149 245.557L193.506 245.195L194.876 244.966L196.232 244.652L197.529 244.177L198.959 244.22L200.255 243.694L201.581 243.306L202.942 243.018L204.282 242.625L205.643 242.293L206.818 241.496L207.967 240.672L209.419 240.487L210.603 239.745L211.847 239.12L212.794 238.025L214.185 237.594L215.023 236.412L216.06 235.507L217.14 234.644L218.061 233.661L218.925 232.64L220.148 231.876L220.757 230.639L221.189 229.315L222.152 228.302L222.373 226.914L222.947 225.702L223.475 224.456L224.066 223.081L224.317 221.615L224.058 220.114L224.213 218.631H224.645L225.847 219.493L227.272 220.153L226.918 221.554L226.983 222.848L227.281 224.115L227.713 225.374L227.679 226.668L227.298 227.961L227.696 229.229L227.791 230.523L227.441 231.937L227.622 233.321L227.873 234.705L227.674 236.106L228.284 237.481L227.968 238.883L228.046 240.28L227.687 241.651L227.441 243.013L227.333 244.397L226.901 245.691L226.94 247.157L226.581 247.088L226.698 248.411L226.426 249.636L226.685 250.865L226.922 252.111L227.411 253.404L228.504 254.266L229.571 255.086L230.707 255.845L232.004 256.362H233.399L234.734 256.03L236.078 255.767L237.374 255.254L238.208 254.107L238.943 252.986L239.643 251.848L239.811 250.52L239.906 249.226L240.114 247.859L239.85 246.488L238.986 245.329L238.727 243.94L238.204 242.647L237.845 241.28L237.703 239.883L237.603 238.482L237.534 237.085L237.24 235.701L237.266 234.299L237.245 232.903L237.543 231.506L237.426 230.109L237.513 228.738L236.955 227.388L237.046 225.784L238.273 226.797L239.651 227.065L240.611 228.056L241.682 228.854L242.87 229.44L244.132 229.871L245.428 230.303L246.431 231.165L247.623 231.713L248.811 232.269L249.676 233.394L250.898 233.89L252.078 234.468L253.193 235.166L254.286 235.903L255.5 236.425L256.77 236.856L257.764 237.775L258.956 238.339L260.253 238.771L261.221 239.723L262.309 240.482L263.493 241.077L264.725 241.59L265.96 242.099L266.967 243.074L268.22 243.578L269.516 244.044L270.471 245.104L271.767 245.535L272.93 246.243L274.2 246.769L275.384 247.437L276.417 248.355L277.514 249.166L278.862 249.567L279.985 250.33L280.936 251.369L282.163 251.973L283.153 252.926L284.527 253.309L285.503 254.357L286.76 254.849L287.711 255.771L288.709 256.634L289.897 257.259L290.796 258.225L291.608 259.272L292.654 260.066L293.712 260.824L294.412 262.058L295.277 263.131L296.119 264.235L296.465 265.597L297.26 266.761L297.731 268.085L297.333 268.598L297.869 268.844L297.787 270.211L298.703 271.164L299.39 272.267L300.686 272.63L301.745 273.242L302.877 273.923L304.173 273.854L305.37 273.423L306.636 273.255L307.798 272.69L308.788 271.828L309.626 270.814L309.933 269.521L310.066 268.275L310.473 267.033L310.079 265.804L309.682 264.511L309.44 263.191L308.978 261.941L308.615 260.648L307.794 259.565L307.202 258.397L306.519 257.349L306.316 255.965L305.283 255.103L304.743 253.991L303.667 253.327L303.076 252.249L302.211 251.253L301.313 250.313L300.081 249.731L299.126 248.868L298.262 247.911L297.169 247.286L296.339 246.29L297.813 245.678L299.295 245.1L300.505 244.669L301.658 244.121L302.868 243.69L303.862 242.828L304.955 242.164L306.074 241.547L307.081 240.758L308.282 240.232L309.345 239.512L310.244 238.585L311.142 237.486L312.577 236.973L313.467 235.865L314.508 234.976L313.994 235.136L313.877 236.723L313.078 238.102L312.879 239.663L312.421 240.957L312.331 241.819L312.089 242.065L312.637 242.276L312.084 242.513L312.43 243.078L312.313 243.397L312.551 244.751L312.905 246.122L313.653 246.911L314.249 247.799L315.234 248.23L315.597 248.567L315.925 248.644L316.236 248.842L317.044 248.739L317.641 249.17L317.991 249.256H318.708L320.501 249.062H321.797L323.063 248.881L324.321 248.674L325.582 248.489L327.112 248.187L328.576 247.614L330.197 247.782L331.372 247.079L332.698 247.01L333.891 246.424L335.187 246.165L336.483 245.932L337.715 245.501L339.046 245.423L340.199 244.686L341.448 244.298L342.792 244.203L344.01 243.712L345.306 243.483L346.456 242.789L347.752 242.435L348.927 242.19L350.068 241.828L351.096 241.155L352.055 240.823L351.826 242.487L351.36 243.699L350.928 244.915L350.595 246.165L350.681 247.502L350.128 248.722V250.446L349.869 252.098L349.835 253.314L349.472 254.486L349.402 255.702L349.251 255.776L349.433 257.129L349.752 258.453L350.081 259.884L351.347 260.682L352.289 261.816L353.663 262.333L355.127 262.118L356.571 262.635L357.932 262.066L359.228 261.437L360.399 260.721L361.31 259.652L362.451 258.893L363.579 258.112L364.547 257.147L365.225 255.875L366.227 254.961L367.39 254.202L368.513 253.417L369.377 252.344L370.293 251.412L371.157 250.395L372.346 249.769L373.447 249.054L374.143 247.859L375.215 247.105L376.221 246.277L377.517 245.846L378.464 244.936L379.414 244.246L378.516 245.449L378.619 246.894V248.222L378.433 249.653L379.207 250.839L379.747 252.171L381.043 252.822L382.123 253.452L383.212 254.215L384.508 254.448L385.77 253.973L387.114 254.042L388.276 253.43L389.253 252.568L390.29 251.744L390.674 250.597L391.361 249.688L391.979 248.735L392.843 247.592L393.707 246.437L394.278 245.234L394.939 244.087L395.315 242.793L396.062 241.694L396.399 240.366L397.021 239.18L397.782 238.051L398.158 236.757L398.711 235.546L399.882 234.938L401.143 234.959L402.232 234.282L403.528 234.368L404.682 233.937L405.883 233.692L407.02 233.118L408.316 233.338L409.448 232.717L410.632 232.364L411.833 232.096L413.349 231.803H414.926L416.689 231.618L416.841 232.812L416.486 234.105L416.581 235.399L417.057 236.692L416.534 237.986L416.456 239.279L417 240.599L416.802 241.892L416.551 243.186L416.91 244.505L416.663 245.799L416.737 247.092L416.37 248.385V249.713L416.218 251.037L416.37 252.374L416.46 253.71L415.985 255.004L416.192 256.349L415.816 257.642L415.57 258.957L415.471 260.281L415.35 261.6L415.324 262.933L415.255 264.261L415.19 265.589V266.925L415.03 268.245L414.762 269.538L414.87 270.892L414.559 272.185L414.434 272.216L414.067 273.509L414.499 274.768L415.104 275.898L415.786 276.95L416.547 277.959L417.454 278.92L418.789 279.075L419.947 279.744L421.243 279.701L422.54 279.55L423.65 278.86L424.946 278.489L425.642 277.351L426.346 276.32L427.21 275.32L426.99 273.966L427.288 272.737L427.124 271.401L426.942 270.06L427.228 268.702L427.012 267.361L427.176 266.007L427.012 264.67L426.77 263.329L426.718 261.984L426.562 260.643L426.739 259.298L426.809 257.953L427.072 256.603L426.614 255.267L427.007 253.922L426.653 252.581L426.77 251.24L426.649 249.895L426.757 248.549L426.618 247.226L426.541 245.906L426.735 244.583L426.623 243.255L426.554 241.931L426.986 240.607L426.644 239.275L427.12 237.951L426.623 236.619L427.055 235.3L426.718 233.963L426.942 232.631V231.506L426.653 230.087L428.299 230.32L429.647 229.889L431.034 229.854L432.417 229.742L433.778 229.402L435.195 229.686L436.539 229.121L437.943 229.302L439.317 228.901L440.717 228.975L442.121 229.246L443.491 228.772L444.899 229.001L446.235 228.919L447.643 228.962L449.021 228.449L449.142 228.298L450.521 228.207L451.514 227.181L451.705 225.801L451.536 224.348L450.594 223.094L449.03 223.02ZM314.392 181.401L314.448 181.53L314.366 181.099L314.392 181.401ZM288.199 200.854L288.77 199.617L289.932 198.884L290.58 197.698L291.556 196.81L292.451 195.844L293.475 195.012L294.313 193.986L295.246 193.05L296.517 192.516L297.51 191.654L298.491 190.791L299.355 189.743L300.578 189.192L301.745 188.571L302.665 187.575L303.832 186.971L304.916 186.415L305.949 185.768L306.848 184.906L307.954 184.376L308.982 183.944V185.212L308.412 186.411L307.776 187.57L307.634 189.054L306.618 190.188L306.485 191.71L305.832 193.003L305.033 194.215L304.255 195.435L303.106 196.388L302.488 197.522L301.52 198.384L300.846 199.496L299.947 200.415L299.113 201.406L298.219 202.351L297.057 202.967L295.886 203.523L294.771 204.209L293.617 204.83L292.477 205.498L291.241 205.968L289.893 206.007L288.636 206.326L287.339 206.55L286.043 206.429L284.721 206.744L283.628 206.929L284.125 205.964L285.058 205.019L285.551 203.769L286.54 202.877L287.46 201.941L288.199 200.854ZM168.143 180.728L169.63 180.844L170.926 181.163L172.248 180.956L173.544 181.099L174.84 181.353L176.184 181.021L177.48 181.202L178.755 181.685L180.051 181.763L181.347 181.87L182.644 182.267L184.005 182.315L185.353 182.444L186.649 182.875L187.997 183.022L189.367 183.095L190.71 183.315L191.933 183.949L193.342 184.509L194.785 184.673L195.8 185.268L194.595 185.639L193.234 186.35L191.747 186.708L190.408 186.881L189.112 187.273L187.854 187.777L186.58 188.243L185.223 188.334L183.966 188.885L182.669 189.2L181.3 189.23L179.917 189.334L178.582 189.7L177.247 190.132L175.847 190.084L174.46 190.114L173.138 190.632L171.76 190.757L170.342 190.55L168.964 190.77L167.599 191.106L166.22 191.352L164.799 191.274L163.727 191.61L164.363 190.14L165.032 188.877L165.421 187.497L165.749 186.087L166.445 184.837L166.907 183.479L167.772 182.315L168.143 180.728ZM162.526 204.485L162.958 204.243L163.256 204.118V204.239H162.496L162.466 204.261L162.526 204.485ZM212.794 221.472L212.508 222.848L211.748 224.038L210.953 225.176L210.089 226.271L209.398 227.565L208.17 228.315L207.051 229.177L205.755 229.759L204.779 230.863L203.482 231.424L202.255 232.053L200.929 232.45L199.633 232.881L198.306 233.239L197.122 234.101L195.705 234.144L194.331 234.282L193.035 234.821L191.635 234.765L190.339 235.489L188.922 235.218L187.578 235.761L186.161 235.239L184.774 235.3L183.374 235.731L181.995 235.3L180.596 235.352L179.209 235.188L177.865 234.757L176.465 234.683L175.121 234.33L173.825 233.808L172.49 233.437L171.034 233.411L169.82 232.799L168.523 232.368L167.361 231.682L166.303 230.82L165.162 230.152L163.866 229.721L162.708 229.031L161.844 227.97L160.915 227.013L159.683 226.379L158.94 225.237L157.89 224.374L157.808 224.413L157.242 223.193L155.98 222.831L154.598 222.701L155.116 221.278L155.449 219.985L155.276 218.605L155.635 217.282L155.985 215.958L156.252 214.617L156.408 213.246L156.767 211.922L157.54 210.719L157.933 209.426V207.994L158.663 206.787L158.97 205.455L159.026 204.545H159.251L159.363 204.33L161.139 204.86L162.435 204.476L163.775 204.653L165.071 204.36L166.367 203.963L167.72 204.282L168.977 203.635L170.304 203.691L171.6 203.45L172.918 203.416L174.253 203.661L175.549 203.372L176.871 203.467L178.167 203.441L179.464 202.821L180.829 203.191L182.155 202.76L183.508 202.803L184.851 202.605L186.204 202.726L187.552 202.821L188.9 202.946L190.248 202.877L191.579 203.105L192.918 203.213L194.262 203.247L195.632 203.019L196.893 203.743L198.19 203.864L199.538 203.812L200.834 204.023L202.044 204.593L203.228 205.175H204.627L205.781 205.834L206.749 206.779L208.14 207.059L208.801 208.314L209.665 209.232L210.906 209.943L211.523 211.129L212.102 212.328L212.271 213.673L212.954 214.863L213.2 216.712L213.416 218.476L213.316 219.994L212.794 221.472ZM268.479 191.192L268.579 191.261V191.408L268.479 191.192ZM236.886 205.545L236.821 204.304L236.778 202.924L236.584 201.544V200.165L236.804 198.781L236.64 197.401L236.398 196.017L236.424 194.637L236.856 193.257L236.795 191.878L236.756 190.498L236.394 189.11L236.523 186.35L236.921 184.975L236.683 183.587V182.043H238.269L239.656 182.582L241.069 182.754L242.499 182.729L243.903 182.953L245.307 183.186L246.729 183.302L248.15 183.397L249.511 183.582L250.833 183.962H252.229L253.573 184.233L254.809 184.94L256.105 185.298L257.548 185.246L258.723 186.079L260.11 186.242L261.454 186.781L262.724 187.497L264.072 188.019L265.368 188.648L266.44 189.446L267.55 190.205L268.194 191.334L268.168 191.231L267.304 192.9L265.917 193.486L264.872 194.495L263.714 195.383L262.387 195.982L261.052 196.452L259.803 197.073L258.779 198.134L257.401 198.505L256.252 199.345L254.865 199.682L253.473 200.001L252.255 200.712L251.037 201.432L249.892 202.036L248.595 202.2L247.381 202.631L246.249 203.29L245.013 203.644H243.67L242.486 204.148L241.324 204.756L240.066 205.045L238.77 205.244L237.664 205.201L236.886 205.545ZM413.695 223.46L412.127 224.003L410.467 223.844L409.24 224.491L407.923 224.443L406.648 224.732L405.352 224.879L404.055 224.909L403.317 225.086L403.818 223.96L404.064 222.667L404.868 221.602L405.365 220.403L405.797 219.174L406.229 217.937L406.734 216.734L407.214 215.518L408.005 214.436L408.337 213.142L408.769 211.905L409.742 210.896L410.2 209.663L410.286 208.262L411.029 207.154L411.833 206.076L412.006 204.713L412.792 203.627L413.453 202.48L413.976 201.277L414.218 199.94L415.06 198.88L415.626 197.47L415.544 199.276L415.721 200.893L415.613 202.234L416.141 203.528L416.236 204.856L416.059 206.197L416.439 207.512L416.521 208.84L416.149 210.189L416.581 211.483L416.322 212.823L416.754 214.143L416.473 215.484L416.365 216.816L416.676 218.14V219.472L416.841 220.8L416.542 222.136V223.383L415.194 223.814L413.695 223.46Z" fill="currentColor"></path></svg>